{"glyphs":{"0":{"ha":842,"x_min":69,"x_max":772,"o":"m 421 -19 q 236 45 315 -19 q 113 225 157 109 q 69 494 69 340 q 113 754 69 642 q 236 929 157 866 q 421 992 315 992 q 606 928 527 992 q 729 753 685 865 q 772 494 772 641 q 729 225 772 340 q 606 45 685 109 q 421 -19 527 -19 m 421 151 q 509 186 470 151 q 572 297 549 222 q 594 494 594 373 q 545 741 594 660 q 421 821 495 821 q 297 741 347 821 q 247 494 247 661 q 270 299 247 374 q 332 187 293 223 q 421 151 372 151 z "},"1":{"ha":465,"x_min":56,"x_max":338,"o":"m 168 0 l 168 721 q 120 690 145 702 q 67 671 95 677 l 56 821 q 119 854 88 831 q 175 908 151 877 q 210 972 199 939 l 338 972 l 338 0 l 168 0 z "},"2":{"ha":625,"x_min":64,"x_max":569,"o":"m 64 0 l 254 364 q 327 511 301 452 q 363 613 353 569 q 374 700 374 657 q 343 790 374 760 q 257 821 313 821 q 171 800 213 821 q 99 754 130 779 l 79 921 q 186 973 129 954 q 315 992 244 992 q 447 956 394 992 q 525 860 499 919 q 551 729 551 800 q 538 614 551 670 q 494 485 525 557 q 408 311 463 414 l 331 164 l 569 164 l 569 0 l 64 0 z "},"3":{"ha":639,"x_min":33,"x_max":569,"o":"m 265 -19 q 141 -5 198 -19 q 33 40 83 10 l 76 190 q 157 147 116 161 q 247 133 199 133 q 354 168 314 133 q 394 276 394 203 q 353 386 394 349 q 240 424 313 424 l 197 424 l 197 590 l 239 590 q 328 625 297 590 q 360 721 360 660 q 330 807 360 774 q 243 839 299 839 q 164 826 201 839 q 92 793 127 814 l 65 944 q 158 978 104 965 q 276 992 212 992 q 414 960 356 992 q 503 873 472 929 q 535 743 535 817 q 489 588 535 649 q 357 496 442 526 l 356 528 q 510 447 451 511 q 569 276 569 382 q 531 115 569 181 q 425 15 493 49 q 265 -19 356 -19 z "},"4":{"ha":694,"x_min":3,"x_max":636,"o":"m 383 0 l 383 222 l 3 222 l 438 972 l 553 972 l 553 363 l 636 363 l 636 222 l 553 222 l 553 0 l 383 0 m 215 322 l 203 363 l 383 363 l 383 781 l 438 731 l 215 322 z "},"5":{"ha":636,"x_min":56,"x_max":581,"o":"m 274 -18 q 155 -3 208 -18 q 56 38 101 12 l 97 197 q 173 162 134 176 q 257 149 211 149 q 368 190 327 149 q 408 303 408 232 q 365 422 408 379 q 239 465 322 465 q 171 460 205 465 q 104 446 138 454 l 167 972 l 542 972 l 531 800 l 294 800 l 261 531 l 200 592 q 248 606 223 601 q 303 611 274 611 q 447 575 385 611 q 545 472 510 540 q 581 310 581 405 q 541 134 581 208 q 432 22 501 61 q 274 -18 363 -18 z "},"6":{"ha":650,"x_min":56,"x_max":603,"o":"m 332 -19 q 183 24 245 -19 q 89 146 122 67 q 56 329 56 224 q 88 549 56 445 q 173 739 120 653 q 286 890 225 826 q 406 993 348 955 l 526 892 q 445 829 488 864 q 365 751 403 794 q 294 655 326 708 q 245 540 263 603 q 226 403 226 477 l 154 454 q 231 550 181 516 q 361 585 282 585 q 484 547 430 585 q 571 442 539 509 q 603 289 603 376 q 571 125 603 194 q 478 18 539 56 q 332 -19 417 -19 m 335 131 q 414 174 386 131 q 442 285 442 217 q 414 394 442 353 q 335 435 386 435 q 255 394 283 435 q 228 285 228 353 q 255 174 228 217 q 335 131 283 131 z "},"7":{"ha":600,"x_min":47,"x_max":589,"o":"m 111 0 l 392 874 l 411 817 l 47 817 l 47 972 l 589 972 l 281 0 l 111 0 z "},"8":{"ha":719,"x_min":67,"x_max":653,"o":"m 360 -19 q 204 18 269 -19 q 102 124 138 56 q 67 279 67 191 q 103 433 67 367 q 206 536 140 499 q 360 574 272 574 q 513 536 447 574 q 616 433 579 499 q 653 279 653 367 q 617 124 653 191 q 516 18 581 56 q 360 -19 450 -19 m 360 133 q 455 176 422 133 q 489 290 489 219 q 455 401 489 357 q 360 444 422 444 q 265 401 299 444 q 231 290 231 357 q 265 176 231 219 q 360 133 299 133 m 360 472 q 233 505 290 472 q 142 595 176 538 q 108 729 108 653 q 134 853 108 793 q 215 953 160 914 q 360 992 270 992 q 506 953 451 992 q 586 853 561 914 q 611 729 611 793 q 580 595 611 653 q 493 505 549 538 q 360 472 436 472 m 360 601 q 432 639 408 601 q 456 728 456 676 q 432 818 456 783 q 360 853 408 853 q 288 818 312 853 q 264 728 264 783 q 288 639 264 676 q 360 601 312 601 z "},"9":{"ha":650,"x_min":47,"x_max":594,"o":"m 244 -19 l 124 82 q 205 145 163 110 q 285 223 247 180 q 356 318 324 266 q 405 434 387 371 q 424 571 424 497 l 496 519 q 419 424 470 458 q 289 389 368 389 q 166 427 220 389 q 79 531 111 465 q 47 685 47 598 q 80 848 47 779 q 172 955 112 917 q 318 993 233 993 q 467 950 405 993 q 561 828 528 906 q 594 644 594 749 q 562 425 594 528 q 477 234 530 321 q 364 83 425 148 q 244 -19 302 19 m 315 539 q 395 580 367 539 q 422 689 422 622 q 395 800 422 757 q 315 843 367 843 q 236 800 265 843 q 208 689 208 757 q 236 580 208 622 q 315 539 265 539 z "},"A":{"ha":743,"x_min":-3,"x_max":746,"o":"m 551 232 l 192 232 l 192 388 l 551 388 l 551 232 m 356 769 l 386 769 l 167 0 l -3 0 l 293 972 l 449 972 l 746 0 l 576 0 l 356 769 z "},"Á":{"ha":743,"x_min":-3,"x_max":746,"o":"m 551 232 l 192 232 l 192 388 l 551 388 l 551 232 m 356 769 l 386 769 l 167 0 l -3 0 l 293 972 l 449 972 l 746 0 l 576 0 l 356 769 m 263 1054 l 263 1150 l 481 1261 l 481 1118 l 263 1054 z "},"Ă":{"ha":743,"x_min":-3,"x_max":746,"o":"m 551 232 l 192 232 l 192 388 l 551 388 l 551 232 m 356 769 l 386 769 l 167 0 l -3 0 l 293 972 l 449 972 l 746 0 l 576 0 l 356 769 m 371 1063 q 264 1087 309 1063 q 195 1151 219 1111 q 171 1239 171 1191 l 289 1239 q 311 1178 289 1199 q 371 1157 333 1157 q 431 1178 408 1157 q 453 1239 453 1199 l 571 1239 q 547 1151 571 1191 q 478 1087 523 1111 q 371 1063 433 1063 z "},"Ắ":{"ha":743,"x_min":-3,"x_max":746,"o":"m 551 232 l 192 232 l 192 388 l 551 388 l 551 232 m 356 769 l 386 769 l 167 0 l -3 0 l 293 972 l 449 972 l 746 0 l 576 0 l 356 769 m 371 1063 q 264 1087 309 1063 q 195 1151 219 1111 q 171 1239 171 1191 l 289 1239 q 311 1178 289 1199 q 371 1157 333 1157 q 431 1178 408 1157 q 453 1239 453 1199 l 571 1239 q 547 1151 571 1191 q 478 1087 523 1111 q 371 1063 433 1063 m 263 1303 l 263 1399 l 481 1510 l 481 1367 l 263 1303 z "},"Ặ":{"ha":743,"x_min":-3,"x_max":746,"o":"m 551 232 l 192 232 l 192 388 l 551 388 l 551 232 m 356 769 l 386 769 l 167 0 l -3 0 l 293 972 l 449 972 l 746 0 l 576 0 l 356 769 m 372 1093 q 268 1118 311 1093 q 201 1184 224 1142 q 178 1275 178 1225 l 290 1275 q 311 1215 290 1237 q 371 1193 331 1193 q 431 1215 410 1193 q 451 1275 451 1237 l 564 1275 q 541 1184 564 1225 q 475 1118 518 1142 q 372 1093 431 1093 z "},"Ằ":{"ha":743,"x_min":-3,"x_max":746,"o":"m 551 232 l 192 232 l 192 388 l 551 388 l 551 232 m 356 769 l 386 769 l 167 0 l -3 0 l 293 972 l 449 972 l 746 0 l 576 0 l 356 769 m 371 1063 q 264 1087 309 1063 q 195 1151 219 1111 q 171 1239 171 1191 l 289 1239 q 311 1178 289 1199 q 371 1157 333 1157 q 431 1178 408 1157 q 453 1239 453 1199 l 571 1239 q 547 1151 571 1191 q 478 1087 523 1111 q 371 1063 433 1063 m 479 1303 l 261 1367 l 261 1510 l 479 1399 l 479 1303 z "},"Ẳ":{"ha":743,"x_min":-3,"x_max":746,"o":"m 551 232 l 192 232 l 192 388 l 551 388 l 551 232 m 356 769 l 386 769 l 167 0 l -3 0 l 293 972 l 449 972 l 746 0 l 576 0 l 356 769 m 371 1063 q 264 1087 309 1063 q 195 1151 219 1111 q 171 1239 171 1191 l 289 1239 q 311 1178 289 1199 q 371 1157 333 1157 q 431 1178 408 1157 q 453 1239 453 1199 l 571 1239 q 547 1151 571 1191 q 478 1087 523 1111 q 371 1063 433 1063 m 378 1260 l 363 1321 q 394 1338 383 1327 q 406 1368 406 1349 q 394 1398 406 1388 q 360 1407 382 1407 q 326 1401 343 1407 q 292 1388 308 1396 l 268 1472 q 316 1487 291 1482 q 368 1492 341 1492 q 458 1464 422 1492 q 494 1385 494 1437 q 465 1308 494 1337 q 378 1260 436 1278 z "},"Ẵ":{"ha":743,"x_min":-3,"x_max":746,"o":"m 551 232 l 192 232 l 192 388 l 551 388 l 551 232 m 356 769 l 386 769 l 167 0 l -3 0 l 293 972 l 449 972 l 746 0 l 576 0 l 356 769 m 372 1063 q 264 1087 309 1063 q 195 1151 219 1111 q 171 1239 171 1191 l 289 1239 q 311 1178 289 1199 q 371 1157 333 1157 q 431 1178 408 1157 q 453 1239 453 1199 l 571 1239 q 547 1151 571 1191 q 478 1087 523 1111 q 372 1063 433 1063 m 478 1307 q 415 1321 446 1307 q 357 1349 385 1335 q 306 1363 329 1363 q 265 1317 265 1363 l 160 1317 q 185 1425 160 1388 q 264 1463 211 1463 q 326 1449 296 1463 q 385 1421 357 1435 q 436 1407 413 1407 q 476 1453 476 1407 l 582 1453 q 557 1345 582 1383 q 478 1307 531 1307 z "},"Â":{"ha":743,"x_min":-3,"x_max":746,"o":"m 551 232 l 192 232 l 192 388 l 551 388 l 551 232 m 356 769 l 386 769 l 167 0 l -3 0 l 293 972 l 449 972 l 746 0 l 576 0 l 356 769 m 201 1035 l 201 1138 l 371 1257 l 540 1138 l 540 1035 l 371 1126 l 201 1035 z "},"Ấ":{"ha":743,"x_min":-3,"x_max":746,"o":"m 551 232 l 192 232 l 192 388 l 551 388 l 551 232 m 356 769 l 386 769 l 167 0 l -3 0 l 293 972 l 449 972 l 746 0 l 576 0 l 356 769 m 201 1035 l 201 1138 l 371 1257 l 540 1138 l 540 1035 l 371 1126 l 201 1035 m 468 1235 l 546 1411 l 700 1411 l 572 1235 l 468 1235 z "},"Ậ":{"ha":743,"x_min":-3,"x_max":746,"o":"m 551 232 l 192 232 l 192 388 l 551 388 l 551 232 m 356 769 l 386 769 l 167 0 l -3 0 l 293 972 l 449 972 l 746 0 l 576 0 l 356 769 m 215 1061 l 215 1171 l 371 1303 l 526 1171 l 526 1061 l 371 1158 l 215 1061 z "},"Ầ":{"ha":743,"x_min":-3,"x_max":746,"o":"m 551 232 l 192 232 l 192 388 l 551 388 l 551 232 m 356 769 l 386 769 l 167 0 l -3 0 l 293 972 l 449 972 l 746 0 l 576 0 l 356 769 m 201 1035 l 201 1138 l 371 1257 l 540 1138 l 540 1035 l 371 1126 l 201 1035 m 507 1235 l 407 1411 l 550 1411 l 607 1235 l 507 1235 z "},"Ẩ":{"ha":743,"x_min":-3,"x_max":746,"o":"m 551 232 l 192 232 l 192 388 l 551 388 l 551 232 m 356 769 l 386 769 l 167 0 l -3 0 l 293 972 l 449 972 l 746 0 l 576 0 l 356 769 m 201 1035 l 201 1138 l 371 1257 l 540 1138 l 540 1035 l 371 1126 l 201 1035 m 504 1217 l 489 1278 q 521 1295 510 1284 q 532 1325 532 1306 q 520 1355 532 1345 q 486 1364 508 1364 q 452 1358 469 1364 q 418 1344 435 1353 l 394 1429 q 442 1444 417 1439 q 494 1449 467 1449 q 584 1421 548 1449 q 621 1342 621 1394 q 592 1265 621 1294 q 504 1217 563 1235 z "},"Ẫ":{"ha":743,"x_min":-3,"x_max":746,"o":"m 551 232 l 192 232 l 192 388 l 551 388 l 551 232 m 356 769 l 386 769 l 167 0 l -3 0 l 293 972 l 449 972 l 746 0 l 576 0 l 356 769 m 201 1035 l 201 1138 l 371 1257 l 540 1138 l 540 1035 l 371 1126 l 201 1035 m 478 1307 q 415 1321 446 1307 q 357 1349 385 1335 q 306 1363 329 1363 q 265 1317 265 1363 l 160 1317 q 185 1425 160 1388 q 264 1463 211 1463 q 326 1449 296 1463 q 385 1421 357 1435 q 436 1407 413 1407 q 476 1453 476 1407 l 582 1453 q 557 1345 582 1383 q 478 1307 531 1307 z "},"Ȁ":{"ha":743,"x_min":-3,"x_max":746,"o":"m 551 232 l 192 232 l 192 388 l 551 388 l 551 232 m 356 769 l 386 769 l 167 0 l -3 0 l 293 972 l 449 972 l 746 0 l 576 0 l 356 769 m 519 1094 l 415 1094 l 301 1313 l 456 1313 l 519 1094 m 321 1094 l 217 1094 l 92 1313 l 246 1313 l 321 1094 z "},"Ä":{"ha":743,"x_min":-3,"x_max":746,"o":"m 551 232 l 192 232 l 192 388 l 551 388 l 551 232 m 356 769 l 386 769 l 167 0 l -3 0 l 293 972 l 449 972 l 746 0 l 576 0 l 356 769 m 192 1088 l 192 1207 l 319 1207 l 319 1088 l 192 1088 m 422 1088 l 422 1207 l 550 1207 l 550 1088 l 422 1088 z "},"Ạ":{"ha":743,"x_min":-3,"x_max":746,"o":"m 551 232 l 192 232 l 192 388 l 551 388 l 551 232 m 356 769 l 386 769 l 167 0 l -3 0 l 293 972 l 449 972 l 746 0 l 576 0 l 356 769 z "},"À":{"ha":743,"x_min":-3,"x_max":746,"o":"m 551 232 l 192 232 l 192 388 l 551 388 l 551 232 m 356 769 l 386 769 l 167 0 l -3 0 l 293 972 l 449 972 l 746 0 l 576 0 l 356 769 m 479 1054 l 261 1118 l 261 1261 l 479 1150 l 479 1054 z "},"Ả":{"ha":743,"x_min":-3,"x_max":746,"o":"m 551 232 l 192 232 l 192 388 l 551 388 l 551 232 m 356 769 l 386 769 l 167 0 l -3 0 l 293 972 l 449 972 l 746 0 l 576 0 l 356 769 m 364 1056 l 349 1117 q 381 1134 369 1123 q 392 1164 392 1144 q 380 1193 392 1184 q 346 1203 368 1203 q 312 1197 329 1203 q 278 1183 294 1192 l 254 1268 q 302 1283 277 1278 q 354 1288 327 1288 q 444 1260 408 1288 q 481 1181 481 1233 q 451 1103 481 1133 q 364 1056 422 1074 z "},"Ȃ":{"ha":743,"x_min":-3,"x_max":746,"o":"m 551 232 l 192 232 l 192 388 l 551 388 l 551 232 m 356 769 l 386 769 l 167 0 l -3 0 l 293 972 l 449 972 l 746 0 l 576 0 l 356 769 m 371 1260 q 478 1236 433 1260 q 547 1172 523 1212 q 571 1083 571 1131 l 453 1083 q 431 1144 453 1123 q 372 1165 408 1165 q 311 1144 333 1165 q 289 1083 289 1123 l 171 1083 q 195 1172 171 1131 q 264 1236 219 1212 q 371 1260 309 1260 z "},"Ā":{"ha":743,"x_min":-3,"x_max":746,"o":"m 551 232 l 192 232 l 192 388 l 551 388 l 551 232 m 356 769 l 386 769 l 167 0 l -3 0 l 293 972 l 449 972 l 746 0 l 576 0 l 356 769 m 157 1101 l 157 1201 l 585 1201 l 585 1101 l 157 1101 z "},"Ą":{"ha":743,"x_min":-3,"x_max":772,"o":"m 551 232 l 192 232 l 192 388 l 551 388 l 551 232 m 356 769 l 386 769 l 167 0 l -3 0 l 293 972 l 449 972 l 746 0 l 576 0 l 356 769 m 619 0 l 706 0 q 640 -72 667 -36 q 613 -144 613 -108 q 631 -192 613 -176 q 678 -208 649 -208 q 715 -203 698 -208 q 749 -192 732 -199 l 772 -268 q 726 -286 753 -278 q 663 -293 699 -293 q 564 -262 603 -293 q 524 -174 524 -232 q 552 -79 524 -120 q 619 0 581 -37 z "},"Å":{"ha":743,"x_min":-3,"x_max":746,"o":"m 551 232 l 192 232 l 192 388 l 551 388 l 551 232 m 356 769 l 386 769 l 167 0 l -3 0 l 293 972 l 449 972 l 746 0 l 576 0 l 356 769 m 371 1047 q 275 1087 310 1047 q 240 1182 240 1127 q 275 1278 240 1238 q 371 1318 310 1318 q 467 1278 433 1318 q 501 1182 501 1238 q 467 1087 501 1127 q 371 1047 433 1047 m 371 1119 q 409 1137 395 1119 q 424 1182 424 1154 q 409 1227 424 1209 q 371 1244 395 1244 q 333 1227 347 1244 q 318 1182 318 1209 q 333 1137 318 1154 q 371 1119 347 1119 z "},"Ǻ":{"ha":743,"x_min":-3,"x_max":746,"o":"m 551 232 l 192 232 l 192 388 l 551 388 l 551 232 m 356 769 l 386 769 l 167 0 l -3 0 l 293 972 l 449 972 l 746 0 l 576 0 l 356 769 m 371 1047 q 275 1087 310 1047 q 240 1182 240 1127 q 275 1278 240 1238 q 371 1318 310 1318 q 467 1278 433 1318 q 501 1182 501 1238 q 467 1087 501 1127 q 371 1047 433 1047 m 371 1119 q 409 1137 395 1119 q 424 1182 424 1154 q 409 1227 424 1209 q 371 1244 395 1244 q 333 1227 347 1244 q 318 1182 318 1209 q 333 1137 318 1154 q 371 1119 347 1119 m 263 1354 l 263 1450 l 481 1561 l 481 1418 l 263 1354 z "},"Ã":{"ha":743,"x_min":-3,"x_max":746,"o":"m 551 232 l 192 232 l 192 388 l 551 388 l 551 232 m 356 769 l 386 769 l 167 0 l -3 0 l 293 972 l 449 972 l 746 0 l 576 0 l 356 769 m 478 1079 q 415 1093 446 1079 q 357 1121 385 1107 q 306 1135 329 1135 q 265 1089 265 1135 l 160 1089 q 185 1197 160 1160 q 264 1235 211 1235 q 326 1221 296 1235 q 385 1193 357 1207 q 436 1179 413 1179 q 476 1225 476 1179 l 582 1225 q 557 1117 582 1156 q 478 1079 531 1079 z "},"Æ":{"ha":1088,"x_min":-11,"x_max":1047,"o":"m -11 0 l 396 972 l 1035 972 l 1035 817 l 658 817 l 658 588 l 949 588 l 949 432 l 658 432 l 658 156 l 1047 156 l 1047 0 l 489 0 l 489 796 l 167 0 l -11 0 m 222 244 l 222 400 l 564 400 l 564 244 l 222 244 z "},"Ǽ":{"ha":1088,"x_min":-11,"x_max":1047,"o":"m -11 0 l 396 972 l 1035 972 l 1035 817 l 658 817 l 658 588 l 949 588 l 949 432 l 658 432 l 658 156 l 1047 156 l 1047 0 l 489 0 l 489 796 l 167 0 l -11 0 m 222 244 l 222 400 l 564 400 l 564 244 l 222 244 m 607 1054 l 607 1150 l 825 1261 l 825 1118 l 607 1054 z "},"B":{"ha":782,"x_min":92,"x_max":732,"o":"m 92 0 l 92 972 l 417 972 q 595 912 537 972 q 654 738 654 852 q 624 590 654 649 q 535 504 594 531 l 535 538 q 681 448 630 513 q 732 276 732 383 q 658 73 732 145 q 456 0 584 0 l 92 0 m 261 156 l 425 156 q 521 185 485 156 q 557 293 557 215 q 519 405 557 376 q 425 435 481 435 l 261 435 l 261 156 m 261 588 l 386 588 q 463 615 438 588 q 488 701 488 642 q 463 790 488 763 q 386 817 438 817 l 261 817 l 261 588 z "},"C":{"ha":728,"x_min":42,"x_max":692,"o":"m 471 -19 q 252 42 349 -19 q 98 217 155 103 q 42 486 42 330 q 98 756 42 642 q 252 931 155 869 q 474 992 350 992 q 595 979 540 992 q 692 946 649 966 l 672 776 q 589 808 630 795 q 496 821 548 821 q 352 781 412 821 q 260 665 292 740 q 228 486 228 590 q 260 307 228 382 q 351 192 292 232 q 494 151 411 151 q 589 164 548 151 q 672 196 630 177 l 692 26 q 593 -7 650 6 q 471 -19 537 -19 z "},"Ć":{"ha":728,"x_min":42,"x_max":692,"o":"m 471 -19 q 252 42 349 -19 q 98 217 155 103 q 42 486 42 330 q 98 756 42 642 q 252 931 155 869 q 474 992 350 992 q 595 979 540 992 q 692 946 649 966 l 672 776 q 589 808 630 795 q 496 821 548 821 q 352 781 412 821 q 260 665 292 740 q 228 486 228 590 q 260 307 228 382 q 351 192 292 232 q 494 151 411 151 q 589 164 548 151 q 672 196 630 177 l 692 26 q 593 -7 650 6 q 471 -19 537 -19 m 349 1054 l 349 1150 l 567 1261 l 567 1118 l 349 1054 z "},"Č":{"ha":728,"x_min":42,"x_max":692,"o":"m 471 -19 q 252 42 349 -19 q 98 217 155 103 q 42 486 42 330 q 98 756 42 642 q 252 931 155 869 q 474 992 350 992 q 595 979 540 992 q 692 946 649 966 l 672 776 q 589 808 630 795 q 496 821 548 821 q 352 781 412 821 q 260 665 292 740 q 228 486 228 590 q 260 307 228 382 q 351 192 292 232 q 494 151 411 151 q 589 164 548 151 q 672 196 630 177 l 692 26 q 593 -7 650 6 q 471 -19 537 -19 z "},"Ç":{"ha":728,"x_min":42,"x_max":692,"o":"m 471 -19 q 252 42 349 -19 q 98 217 155 103 q 42 486 42 330 q 98 756 42 642 q 252 931 155 869 q 474 992 350 992 q 595 979 540 992 q 692 946 649 966 l 672 776 q 589 808 630 795 q 496 821 548 821 q 352 781 412 821 q 260 665 292 740 q 228 486 228 590 q 260 307 228 382 q 351 192 292 232 q 494 151 411 151 q 589 164 548 151 q 672 196 630 177 l 692 26 q 593 -7 650 6 q 471 -19 537 -19 m 501 -110 l 458 -86 q 482 -81 470 -83 q 506 -79 493 -79 q 591 -110 560 -79 q 622 -196 622 -140 q 580 -298 622 -263 q 478 -332 538 -332 q 421 -326 446 -332 q 378 -314 397 -321 l 404 -237 q 438 -248 420 -244 q 474 -253 455 -253 q 522 -239 504 -253 q 539 -200 539 -226 q 524 -160 539 -174 q 479 -147 508 -147 q 451 -150 465 -147 q 424 -157 438 -153 l 463 0 l 535 0 l 501 -110 z "},"Ḉ":{"ha":728,"x_min":42,"x_max":692,"o":"m 471 -19 q 252 42 349 -19 q 98 217 155 103 q 42 486 42 330 q 98 756 42 642 q 252 931 155 869 q 474 992 350 992 q 595 979 540 992 q 692 946 649 966 l 672 776 q 589 808 630 795 q 496 821 548 821 q 352 781 412 821 q 260 665 292 740 q 228 486 228 590 q 260 307 228 382 q 351 192 292 232 q 494 151 411 151 q 589 164 548 151 q 672 196 630 177 l 692 26 q 593 -7 650 6 q 471 -19 537 -19 m 501 -110 l 458 -86 q 482 -81 470 -83 q 506 -79 493 -79 q 591 -110 560 -79 q 622 -196 622 -140 q 580 -298 622 -263 q 478 -332 538 -332 q 421 -326 446 -332 q 378 -314 397 -321 l 404 -237 q 438 -248 420 -244 q 474 -253 455 -253 q 522 -239 504 -253 q 539 -200 539 -226 q 524 -160 539 -174 q 479 -147 508 -147 q 451 -150 465 -147 q 424 -157 438 -153 l 463 0 l 535 0 l 501 -110 m 349 1054 l 349 1150 l 567 1261 l 567 1118 l 349 1054 z "},"Ĉ":{"ha":728,"x_min":42,"x_max":692,"o":"m 471 -19 q 252 42 349 -19 q 98 217 155 103 q 42 486 42 330 q 98 756 42 642 q 252 931 155 869 q 474 992 350 992 q 595 979 540 992 q 692 946 649 966 l 672 776 q 589 808 630 795 q 496 821 548 821 q 352 781 412 821 q 260 665 292 740 q 228 486 228 590 q 260 307 228 382 q 351 192 292 232 q 494 151 411 151 q 589 164 548 151 q 672 196 630 177 l 692 26 q 593 -7 650 6 q 471 -19 537 -19 m 288 1035 l 288 1138 l 457 1257 l 626 1138 l 626 1035 l 457 1126 l 288 1035 z "},"Ċ":{"ha":728,"x_min":42,"x_max":692,"o":"m 471 -19 q 252 42 349 -19 q 98 217 155 103 q 42 486 42 330 q 98 756 42 642 q 252 931 155 869 q 474 992 350 992 q 595 979 540 992 q 692 946 649 966 l 672 776 q 589 808 630 795 q 496 821 548 821 q 352 781 412 821 q 260 665 292 740 q 228 486 228 590 q 260 307 228 382 q 351 192 292 232 q 494 151 411 151 q 589 164 548 151 q 672 196 630 177 l 692 26 q 593 -7 650 6 q 471 -19 537 -19 m 388 1100 l 388 1235 l 526 1235 l 526 1100 l 388 1100 z "},"D":{"ha":860,"x_min":92,"x_max":817,"o":"m 92 0 l 92 972 l 406 972 q 617 914 524 972 q 764 748 710 856 q 817 486 817 639 q 764 225 817 333 q 617 58 710 116 q 406 0 524 0 l 92 0 m 261 156 l 406 156 q 531 196 481 156 q 606 310 581 236 q 631 486 631 384 q 606 663 631 588 q 531 777 581 737 q 406 817 481 817 l 261 817 l 261 156 z "},"Ǆ":{"ha":1503,"x_min":92,"x_max":1492,"o":"m 92 0 l 92 972 l 406 972 q 617 914 524 972 q 764 748 710 856 q 817 486 817 639 q 764 225 817 333 q 617 58 710 116 q 406 0 524 0 l 92 0 m 261 156 l 406 156 q 531 196 481 156 q 606 310 581 236 q 631 486 631 384 q 606 663 631 588 q 531 777 581 737 q 406 817 481 817 l 261 817 l 261 156 z "},"Ð":{"ha":868,"x_min":19,"x_max":825,"o":"m 100 0 l 100 415 l 19 415 l 19 560 l 100 560 l 100 972 l 415 972 q 626 914 533 972 q 772 748 719 856 q 825 486 825 639 q 772 225 825 333 q 626 58 719 116 q 414 0 533 0 l 100 0 m 269 156 l 414 156 q 583 244 526 156 q 639 486 639 333 q 583 728 639 640 q 414 817 526 817 l 269 817 l 269 560 l 419 560 l 419 415 l 269 415 l 269 156 z "},"Ď":{"ha":860,"x_min":92,"x_max":817,"o":"m 92 0 l 92 972 l 406 972 q 617 914 524 972 q 764 748 710 856 q 817 486 817 639 q 764 225 817 333 q 617 58 710 116 q 406 0 524 0 l 92 0 m 261 156 l 406 156 q 531 196 481 156 q 606 310 581 236 q 631 486 631 384 q 606 663 631 588 q 531 777 581 737 q 406 817 481 817 l 261 817 l 261 156 z "},"Đ":{"ha":868,"x_min":19,"x_max":825,"o":"m 100 0 l 100 415 l 19 415 l 19 560 l 100 560 l 100 972 l 415 972 q 626 914 533 972 q 772 748 719 856 q 825 486 825 639 q 772 225 825 333 q 626 58 719 116 q 414 0 533 0 l 100 0 m 269 156 l 414 156 q 583 244 526 156 q 639 486 639 333 q 583 728 639 640 q 414 817 526 817 l 269 817 l 269 560 l 419 560 l 419 415 l 269 415 l 269 156 z "},"Ḍ":{"ha":860,"x_min":92,"x_max":817,"o":"m 92 0 l 92 972 l 406 972 q 617 914 524 972 q 764 748 710 856 q 817 486 817 639 q 764 225 817 333 q 617 58 710 116 q 406 0 524 0 l 92 0 m 261 156 l 406 156 q 531 196 481 156 q 606 310 581 236 q 631 486 631 384 q 606 663 631 588 q 531 777 581 737 q 406 817 481 817 l 261 817 l 261 156 z "},"Ḏ":{"ha":860,"x_min":92,"x_max":817,"o":"m 92 0 l 92 972 l 406 972 q 617 914 524 972 q 764 748 710 856 q 817 486 817 639 q 764 225 817 333 q 617 58 710 116 q 406 0 524 0 l 92 0 m 261 156 l 406 156 q 531 196 481 156 q 606 310 581 236 q 631 486 631 384 q 606 663 631 588 q 531 777 581 737 q 406 817 481 817 l 261 817 l 261 156 z "},"ǅ":{"ha":1410,"x_min":92,"x_max":1389,"o":"m 92 0 l 92 972 l 406 972 q 617 914 524 972 q 764 748 710 856 q 817 486 817 639 q 764 225 817 333 q 617 58 710 116 q 406 0 524 0 l 92 0 m 261 156 l 406 156 q 531 196 481 156 q 606 310 581 236 q 631 486 631 384 q 606 663 631 588 q 531 777 581 737 q 406 817 481 817 l 261 817 l 261 156 z "},"E":{"ha":690,"x_min":92,"x_max":650,"o":"m 92 0 l 92 972 l 638 972 l 638 817 l 261 817 l 261 588 l 551 588 l 551 432 l 261 432 l 261 156 l 650 156 l 650 0 l 92 0 z "},"É":{"ha":690,"x_min":92,"x_max":650,"o":"m 92 0 l 92 972 l 638 972 l 638 817 l 261 817 l 261 588 l 551 588 l 551 432 l 261 432 l 261 156 l 650 156 l 650 0 l 92 0 m 257 1054 l 257 1150 l 475 1261 l 475 1118 l 257 1054 z "},"Ĕ":{"ha":690,"x_min":92,"x_max":650,"o":"m 92 0 l 92 972 l 638 972 l 638 817 l 261 817 l 261 588 l 551 588 l 551 432 l 261 432 l 261 156 l 650 156 l 650 0 l 92 0 m 365 1063 q 259 1087 303 1063 q 190 1151 214 1111 q 165 1239 165 1191 l 283 1239 q 306 1178 283 1199 q 365 1157 328 1157 q 425 1178 403 1157 q 447 1239 447 1199 l 565 1239 q 541 1151 565 1191 q 473 1087 517 1111 q 365 1063 428 1063 z "},"Ě":{"ha":690,"x_min":92,"x_max":650,"o":"m 92 0 l 92 972 l 638 972 l 638 817 l 261 817 l 261 588 l 551 588 l 551 432 l 261 432 l 261 156 l 650 156 l 650 0 l 92 0 z "},"Ḝ":{"ha":690,"x_min":92,"x_max":650,"o":"m 92 0 l 92 972 l 638 972 l 638 817 l 261 817 l 261 588 l 551 588 l 551 432 l 261 432 l 261 156 l 650 156 l 650 0 l 92 0 m 389 -110 l 346 -86 q 369 -81 358 -83 q 393 -79 381 -79 q 478 -110 447 -79 q 510 -196 510 -140 q 468 -298 510 -263 q 365 -332 426 -332 q 309 -326 333 -332 q 265 -314 284 -321 l 292 -237 q 325 -248 308 -244 q 361 -253 342 -253 q 409 -239 392 -253 q 426 -200 426 -226 q 411 -160 426 -174 q 367 -147 396 -147 q 339 -150 352 -147 q 311 -157 325 -153 l 350 0 l 422 0 l 389 -110 m 365 1063 q 259 1087 303 1063 q 190 1151 214 1111 q 165 1239 165 1191 l 283 1239 q 306 1178 283 1199 q 365 1157 328 1157 q 425 1178 403 1157 q 447 1239 447 1199 l 565 1239 q 541 1151 565 1191 q 473 1087 517 1111 q 365 1063 428 1063 z "},"Ê":{"ha":690,"x_min":92,"x_max":650,"o":"m 92 0 l 92 972 l 638 972 l 638 817 l 261 817 l 261 588 l 551 588 l 551 432 l 261 432 l 261 156 l 650 156 l 650 0 l 92 0 m 196 1035 l 196 1138 l 365 1257 l 535 1138 l 535 1035 l 365 1126 l 196 1035 z "},"Ế":{"ha":690,"x_min":92,"x_max":694,"o":"m 92 0 l 92 972 l 638 972 l 638 817 l 261 817 l 261 588 l 551 588 l 551 432 l 261 432 l 261 156 l 650 156 l 650 0 l 92 0 m 196 1035 l 196 1138 l 365 1257 l 535 1138 l 535 1035 l 365 1126 l 196 1035 m 463 1235 l 540 1411 l 694 1411 l 567 1235 l 463 1235 z "},"Ệ":{"ha":690,"x_min":92,"x_max":650,"o":"m 92 0 l 92 972 l 638 972 l 638 817 l 261 817 l 261 588 l 551 588 l 551 432 l 261 432 l 261 156 l 650 156 l 650 0 l 92 0 m 196 1035 l 196 1138 l 365 1257 l 535 1138 l 535 1035 l 365 1126 l 196 1035 z "},"Ề":{"ha":690,"x_min":92,"x_max":650,"o":"m 92 0 l 92 972 l 638 972 l 638 817 l 261 817 l 261 588 l 551 588 l 551 432 l 261 432 l 261 156 l 650 156 l 650 0 l 92 0 m 196 1035 l 196 1138 l 365 1257 l 535 1138 l 535 1035 l 365 1126 l 196 1035 m 501 1235 l 401 1411 l 544 1411 l 601 1235 l 501 1235 z "},"Ể":{"ha":690,"x_min":92,"x_max":650,"o":"m 92 0 l 92 972 l 638 972 l 638 817 l 261 817 l 261 588 l 551 588 l 551 432 l 261 432 l 261 156 l 650 156 l 650 0 l 92 0 m 196 1035 l 196 1138 l 365 1257 l 535 1138 l 535 1035 l 365 1126 l 196 1035 m 499 1217 l 483 1278 q 515 1295 504 1284 q 526 1325 526 1306 q 515 1355 526 1345 q 481 1364 503 1364 q 447 1358 464 1364 q 413 1344 429 1353 l 389 1429 q 437 1444 412 1439 q 489 1449 462 1449 q 579 1421 542 1449 q 615 1342 615 1394 q 586 1265 615 1294 q 499 1217 557 1235 z "},"Ễ":{"ha":690,"x_min":92,"x_max":650,"o":"m 92 0 l 92 972 l 638 972 l 638 817 l 261 817 l 261 588 l 551 588 l 551 432 l 261 432 l 261 156 l 650 156 l 650 0 l 92 0 m 196 1035 l 196 1138 l 365 1257 l 535 1138 l 535 1035 l 365 1126 l 196 1035 m 472 1307 q 410 1321 440 1307 q 351 1349 379 1335 q 300 1363 324 1363 q 260 1317 260 1363 l 154 1317 q 180 1425 154 1388 q 258 1463 206 1463 q 321 1449 290 1463 q 379 1421 351 1435 q 431 1407 407 1407 q 471 1453 471 1407 l 576 1453 q 551 1345 576 1383 q 472 1307 526 1307 z "},"Ȅ":{"ha":690,"x_min":86,"x_max":650,"o":"m 92 0 l 92 972 l 638 972 l 638 817 l 261 817 l 261 588 l 551 588 l 551 432 l 261 432 l 261 156 l 650 156 l 650 0 l 92 0 m 514 1094 l 410 1094 l 296 1313 l 450 1313 l 514 1094 m 315 1094 l 211 1094 l 86 1313 l 240 1313 l 315 1094 z "},"Ë":{"ha":690,"x_min":92,"x_max":650,"o":"m 92 0 l 92 972 l 638 972 l 638 817 l 261 817 l 261 588 l 551 588 l 551 432 l 261 432 l 261 156 l 650 156 l 650 0 l 92 0 m 186 1088 l 186 1207 l 314 1207 l 314 1088 l 186 1088 m 417 1088 l 417 1207 l 544 1207 l 544 1088 l 417 1088 z "},"Ė":{"ha":690,"x_min":92,"x_max":650,"o":"m 92 0 l 92 972 l 638 972 l 638 817 l 261 817 l 261 588 l 551 588 l 551 432 l 261 432 l 261 156 l 650 156 l 650 0 l 92 0 m 296 1100 l 296 1235 l 435 1235 l 435 1100 l 296 1100 z "},"Ẹ":{"ha":690,"x_min":92,"x_max":650,"o":"m 92 0 l 92 972 l 638 972 l 638 817 l 261 817 l 261 588 l 551 588 l 551 432 l 261 432 l 261 156 l 650 156 l 650 0 l 92 0 z "},"È":{"ha":690,"x_min":92,"x_max":650,"o":"m 92 0 l 92 972 l 638 972 l 638 817 l 261 817 l 261 588 l 551 588 l 551 432 l 261 432 l 261 156 l 650 156 l 650 0 l 92 0 m 474 1054 l 256 1118 l 256 1261 l 474 1150 l 474 1054 z "},"Ẻ":{"ha":690,"x_min":92,"x_max":650,"o":"m 92 0 l 92 972 l 638 972 l 638 817 l 261 817 l 261 588 l 551 588 l 551 432 l 261 432 l 261 156 l 650 156 l 650 0 l 92 0 m 358 1056 l 343 1117 q 375 1134 364 1123 q 386 1164 386 1144 q 374 1193 386 1184 q 340 1203 363 1203 q 306 1197 324 1203 q 272 1183 289 1192 l 249 1268 q 297 1283 272 1278 q 349 1288 322 1288 q 439 1260 402 1288 q 475 1181 475 1233 q 446 1103 475 1133 q 358 1056 417 1074 z "},"Ȇ":{"ha":690,"x_min":92,"x_max":650,"o":"m 92 0 l 92 972 l 638 972 l 638 817 l 261 817 l 261 588 l 551 588 l 551 432 l 261 432 l 261 156 l 650 156 l 650 0 l 92 0 m 365 1260 q 473 1236 428 1260 q 541 1172 517 1212 q 565 1083 565 1131 l 447 1083 q 425 1144 447 1123 q 366 1165 403 1165 q 306 1144 328 1165 q 283 1083 283 1123 l 165 1083 q 190 1172 165 1131 q 259 1236 214 1212 q 365 1260 303 1260 z "},"Ē":{"ha":690,"x_min":92,"x_max":650,"o":"m 92 0 l 92 972 l 638 972 l 638 817 l 261 817 l 261 588 l 551 588 l 551 432 l 261 432 l 261 156 l 650 156 l 650 0 l 92 0 m 151 1101 l 151 1201 l 579 1201 l 579 1101 l 151 1101 z "},"Ḗ":{"ha":690,"x_min":92,"x_max":650,"o":"m 92 0 l 92 972 l 638 972 l 638 817 l 261 817 l 261 588 l 551 588 l 551 432 l 261 432 l 261 156 l 650 156 l 650 0 l 92 0 m 151 1101 l 151 1201 l 579 1201 l 579 1101 l 151 1101 m 257 1293 l 257 1389 l 475 1500 l 475 1357 l 257 1293 z "},"Ḕ":{"ha":690,"x_min":92,"x_max":650,"o":"m 92 0 l 92 972 l 638 972 l 638 817 l 261 817 l 261 588 l 551 588 l 551 432 l 261 432 l 261 156 l 650 156 l 650 0 l 92 0 m 151 1101 l 151 1201 l 579 1201 l 579 1101 l 151 1101 m 474 1293 l 256 1357 l 256 1500 l 474 1389 l 474 1293 z "},"Ę":{"ha":690,"x_min":92,"x_max":717,"o":"m 92 0 l 92 972 l 638 972 l 638 817 l 261 817 l 261 588 l 551 588 l 551 432 l 261 432 l 261 156 l 650 156 l 650 0 l 92 0 m 564 0 l 650 0 q 584 -72 612 -36 q 557 -144 557 -108 q 575 -192 557 -176 q 622 -208 593 -208 q 659 -203 642 -208 q 693 -192 676 -199 l 717 -268 q 670 -286 697 -278 q 607 -293 644 -293 q 508 -262 548 -293 q 468 -174 468 -232 q 497 -79 468 -120 q 564 0 526 -37 z "},"Ẽ":{"ha":690,"x_min":92,"x_max":650,"o":"m 92 0 l 92 972 l 638 972 l 638 817 l 261 817 l 261 588 l 551 588 l 551 432 l 261 432 l 261 156 l 650 156 l 650 0 l 92 0 m 472 1079 q 410 1093 440 1079 q 351 1121 379 1107 q 300 1135 324 1135 q 260 1089 260 1135 l 154 1089 q 180 1197 154 1160 q 258 1235 206 1235 q 321 1221 290 1235 q 379 1193 351 1207 q 431 1179 407 1179 q 471 1225 471 1179 l 576 1225 q 551 1117 576 1156 q 472 1079 526 1079 z "},"F":{"ha":629,"x_min":92,"x_max":608,"o":"m 92 0 l 92 972 l 608 972 l 608 817 l 261 817 l 261 588 l 529 588 l 529 432 l 261 432 l 261 0 l 92 0 z "},"G":{"ha":793,"x_min":42,"x_max":738,"o":"m 475 -19 q 248 43 345 -19 q 96 220 150 106 q 42 486 42 333 q 99 756 42 642 q 257 931 157 869 q 482 992 356 992 q 609 979 552 992 q 710 946 665 966 l 690 776 q 603 808 646 795 q 504 821 560 821 q 356 781 417 821 q 261 665 294 740 q 228 486 228 590 q 258 306 228 381 q 346 191 288 231 q 490 151 404 151 q 530 155 509 151 q 568 164 551 158 l 568 332 l 457 332 l 457 488 l 738 488 l 738 51 q 624 0 692 19 q 475 -19 556 -19 z "},"Ğ":{"ha":793,"x_min":42,"x_max":738,"o":"m 475 -19 q 248 43 345 -19 q 96 220 150 106 q 42 486 42 333 q 99 756 42 642 q 257 931 157 869 q 482 992 356 992 q 609 979 552 992 q 710 946 665 966 l 690 776 q 603 808 646 795 q 504 821 560 821 q 356 781 417 821 q 261 665 294 740 q 228 486 228 590 q 258 306 228 381 q 346 191 288 231 q 490 151 404 151 q 530 155 509 151 q 568 164 551 158 l 568 332 l 457 332 l 457 488 l 738 488 l 738 51 q 624 0 692 19 q 475 -19 556 -19 m 479 1063 q 373 1087 417 1063 q 303 1151 328 1111 q 279 1239 279 1191 l 397 1239 q 419 1178 397 1199 q 479 1157 442 1157 q 539 1178 517 1157 q 561 1239 561 1199 l 679 1239 q 655 1151 679 1191 q 586 1087 631 1111 q 479 1063 542 1063 z "},"Ǧ":{"ha":793,"x_min":42,"x_max":738,"o":"m 475 -19 q 248 43 345 -19 q 96 220 150 106 q 42 486 42 333 q 99 756 42 642 q 257 931 157 869 q 482 992 356 992 q 609 979 552 992 q 710 946 665 966 l 690 776 q 603 808 646 795 q 504 821 560 821 q 356 781 417 821 q 261 665 294 740 q 228 486 228 590 q 258 306 228 381 q 346 191 288 231 q 490 151 404 151 q 530 155 509 151 q 568 164 551 158 l 568 332 l 457 332 l 457 488 l 738 488 l 738 51 q 624 0 692 19 q 475 -19 556 -19 z "},"Ĝ":{"ha":793,"x_min":42,"x_max":738,"o":"m 475 -19 q 248 43 345 -19 q 96 220 150 106 q 42 486 42 333 q 99 756 42 642 q 257 931 157 869 q 482 992 356 992 q 609 979 552 992 q 710 946 665 966 l 690 776 q 603 808 646 795 q 504 821 560 821 q 356 781 417 821 q 261 665 294 740 q 228 486 228 590 q 258 306 228 381 q 346 191 288 231 q 490 151 404 151 q 530 155 509 151 q 568 164 551 158 l 568 332 l 457 332 l 457 488 l 738 488 l 738 51 q 624 0 692 19 q 475 -19 556 -19 m 310 1035 l 310 1138 l 479 1257 l 649 1138 l 649 1035 l 479 1126 l 310 1035 z "},"Ģ":{"ha":793,"x_min":42,"x_max":738,"o":"m 475 -19 q 248 43 345 -19 q 96 220 150 106 q 42 486 42 333 q 99 756 42 642 q 257 931 157 869 q 482 992 356 992 q 609 979 552 992 q 710 946 665 966 l 690 776 q 603 808 646 795 q 504 821 560 821 q 356 781 417 821 q 261 665 294 740 q 228 486 228 590 q 258 306 228 381 q 346 191 288 231 q 490 151 404 151 q 530 155 509 151 q 568 164 551 158 l 568 332 l 457 332 l 457 488 l 738 488 l 738 51 q 624 0 692 19 q 475 -19 556 -19 m 464 -414 l 400 -414 l 460 -261 l 414 -261 l 414 -126 l 553 -126 l 553 -244 l 464 -414 z "},"Ġ":{"ha":793,"x_min":42,"x_max":738,"o":"m 475 -19 q 248 43 345 -19 q 96 220 150 106 q 42 486 42 333 q 99 756 42 642 q 257 931 157 869 q 482 992 356 992 q 609 979 552 992 q 710 946 665 966 l 690 776 q 603 808 646 795 q 504 821 560 821 q 356 781 417 821 q 261 665 294 740 q 228 486 228 590 q 258 306 228 381 q 346 191 288 231 q 490 151 404 151 q 530 155 509 151 q 568 164 551 158 l 568 332 l 457 332 l 457 488 l 738 488 l 738 51 q 624 0 692 19 q 475 -19 556 -19 m 410 1100 l 410 1235 l 549 1235 l 549 1100 l 410 1100 z "},"Ḡ":{"ha":793,"x_min":42,"x_max":738,"o":"m 475 -19 q 248 43 345 -19 q 96 220 150 106 q 42 486 42 333 q 99 756 42 642 q 257 931 157 869 q 482 992 356 992 q 609 979 552 992 q 710 946 665 966 l 690 776 q 603 808 646 795 q 504 821 560 821 q 356 781 417 821 q 261 665 294 740 q 228 486 228 590 q 258 306 228 381 q 346 191 288 231 q 490 151 404 151 q 530 155 509 151 q 568 164 551 158 l 568 332 l 457 332 l 457 488 l 738 488 l 738 51 q 624 0 692 19 q 475 -19 556 -19 m 265 1101 l 265 1201 l 693 1201 l 693 1101 l 265 1101 z "},"H":{"ha":883,"x_min":92,"x_max":792,"o":"m 92 0 l 92 972 l 261 972 l 261 588 l 622 588 l 622 972 l 792 972 l 792 0 l 622 0 l 622 421 l 261 421 l 261 0 l 92 0 z "},"Ħ":{"ha":908,"x_min":28,"x_max":881,"o":"m 104 0 l 104 972 l 274 972 l 274 588 l 635 588 l 635 972 l 804 972 l 804 0 l 635 0 l 635 421 l 274 421 l 274 0 l 104 0 m 28 678 l 28 803 l 881 803 l 881 678 l 28 678 z "},"Ḫ":{"ha":883,"x_min":92,"x_max":792,"o":"m 92 0 l 92 972 l 261 972 l 261 588 l 622 588 l 622 972 l 792 972 l 792 0 l 622 0 l 622 421 l 261 421 l 261 0 l 92 0 z "},"Ĥ":{"ha":883,"x_min":92,"x_max":792,"o":"m 92 0 l 92 972 l 261 972 l 261 588 l 622 588 l 622 972 l 792 972 l 792 0 l 622 0 l 622 421 l 261 421 l 261 0 l 92 0 m 272 1035 l 272 1138 l 442 1257 l 611 1138 l 611 1035 l 442 1126 l 272 1035 z "},"Ḥ":{"ha":883,"x_min":92,"x_max":792,"o":"m 92 0 l 92 972 l 261 972 l 261 588 l 622 588 l 622 972 l 792 972 l 792 0 l 622 0 l 622 421 l 261 421 l 261 0 l 92 0 z "},"I":{"ha":336,"x_min":83,"x_max":253,"o":"m 83 0 l 83 972 l 253 972 l 253 0 l 83 0 z "},"Ĳ":{"ha":833,"x_min":83,"x_max":750,"o":"m 257 338 q 279 240 263 282 q 329 175 296 198 q 417 151 362 151 q 500 171 468 151 q 550 227 532 191 q 574 313 567 263 q 581 421 581 362 l 581 972 l 750 972 l 750 375 q 714 167 750 256 q 604 30 678 78 q 417 -19 530 -19 q 181 70 263 -19 q 86 313 100 160 l 257 338 m 83 463 l 83 972 l 253 972 l 253 463 l 83 463 z "},"Í":{"ha":336,"x_min":60,"x_max":278,"o":"m 83 0 l 83 972 l 253 972 l 253 0 l 83 0 m 60 1054 l 60 1150 l 278 1261 l 278 1118 l 60 1054 z "},"Ĭ":{"ha":336,"x_min":-32,"x_max":368,"o":"m 83 0 l 83 972 l 253 972 l 253 0 l 83 0 m 168 1063 q 61 1087 106 1063 q -8 1151 17 1111 q -32 1239 -32 1191 l 86 1239 q 108 1178 86 1199 q 168 1157 131 1157 q 228 1178 206 1157 q 250 1239 250 1199 l 368 1239 q 344 1151 368 1191 q 275 1087 320 1111 q 168 1063 231 1063 z "},"Î":{"ha":336,"x_min":-1,"x_max":338,"o":"m 83 0 l 83 972 l 253 972 l 253 0 l 83 0 m -1 1035 l -1 1138 l 168 1257 l 338 1138 l 338 1035 l 168 1126 l -1 1035 z "},"Ȉ":{"ha":336,"x_min":-111,"x_max":317,"o":"m 83 0 l 83 972 l 253 972 l 253 0 l 83 0 m 317 1094 l 213 1094 l 99 1313 l 253 1313 l 317 1094 m 118 1094 l 14 1094 l -111 1313 l 43 1313 l 118 1094 z "},"Ï":{"ha":336,"x_min":-11,"x_max":347,"o":"m 83 0 l 83 972 l 253 972 l 253 0 l 83 0 m -11 1088 l -11 1207 l 117 1207 l 117 1088 l -11 1088 m 219 1088 l 219 1207 l 347 1207 l 347 1088 l 219 1088 z "},"Ḯ":{"ha":336,"x_min":-11,"x_max":347,"o":"m 83 0 l 83 972 l 253 972 l 253 0 l 83 0 m -11 1088 l -11 1207 l 117 1207 l 117 1088 l -11 1088 m 219 1088 l 219 1207 l 347 1207 l 347 1088 l 219 1088 m 60 1263 l 60 1358 l 278 1469 l 278 1326 l 60 1263 z "},"İ":{"ha":336,"x_min":83,"x_max":253,"o":"m 83 0 l 83 972 l 253 972 l 253 0 l 83 0 m 99 1100 l 99 1235 l 238 1235 l 238 1100 l 99 1100 z "},"Ị":{"ha":336,"x_min":83,"x_max":253,"o":"m 83 0 l 83 972 l 253 972 l 253 0 l 83 0 z "},"Ì":{"ha":336,"x_min":58,"x_max":276,"o":"m 83 0 l 83 972 l 253 972 l 253 0 l 83 0 m 276 1054 l 58 1118 l 58 1261 l 276 1150 l 276 1054 z "},"Ỉ":{"ha":336,"x_min":51,"x_max":278,"o":"m 83 0 l 83 972 l 253 972 l 253 0 l 83 0 m 161 1056 l 146 1117 q 178 1134 167 1123 q 189 1164 189 1144 q 177 1193 189 1184 q 143 1203 165 1203 q 109 1197 126 1203 q 75 1183 92 1192 l 51 1268 q 99 1283 74 1278 q 151 1288 124 1288 q 241 1260 205 1288 q 278 1181 278 1233 q 249 1103 278 1133 q 161 1056 219 1074 z "},"Ȋ":{"ha":336,"x_min":-32,"x_max":368,"o":"m 83 0 l 83 972 l 253 972 l 253 0 l 83 0 m 168 1260 q 275 1236 231 1260 q 344 1172 320 1212 q 368 1083 368 1131 l 250 1083 q 228 1144 250 1123 q 169 1165 206 1165 q 108 1144 131 1165 q 86 1083 86 1123 l -32 1083 q -8 1172 -32 1131 q 61 1236 17 1212 q 168 1260 106 1260 z "},"Ī":{"ha":336,"x_min":-46,"x_max":382,"o":"m 83 0 l 83 972 l 253 972 l 253 0 l 83 0 m -46 1101 l -46 1201 l 382 1201 l 382 1101 l -46 1101 z "},"Į":{"ha":336,"x_min":71,"x_max":319,"o":"m 83 0 l 83 972 l 253 972 l 253 0 l 83 0 m 167 0 l 253 0 q 187 -72 215 -36 q 160 -144 160 -108 q 178 -192 160 -176 q 225 -208 196 -208 q 262 -203 245 -208 q 296 -192 279 -199 l 319 -268 q 273 -286 300 -278 q 210 -293 247 -293 q 111 -262 151 -293 q 71 -174 71 -232 q 100 -79 71 -120 q 167 0 128 -37 z "},"Ĩ":{"ha":336,"x_min":-43,"x_max":379,"o":"m 83 0 l 83 972 l 253 972 l 253 0 l 83 0 m 275 1079 q 213 1093 243 1079 q 154 1121 182 1107 q 103 1135 126 1135 q 63 1089 63 1135 l -43 1089 q -17 1197 -43 1160 q 61 1235 8 1235 q 124 1221 93 1235 q 182 1193 154 1207 q 233 1179 210 1179 q 274 1225 274 1179 l 379 1225 q 354 1117 379 1156 q 275 1079 328 1079 z "},"J":{"ha":336,"x_min":-6,"x_max":250,"o":"m 7 -239 l -6 -89 q 60 -68 40 -89 q 81 -1 81 -48 l 81 972 l 250 972 l 250 -33 q 191 -189 250 -140 q 36 -239 132 -239 l 7 -239 z "},"Ĵ":{"ha":336,"x_min":-6,"x_max":335,"o":"m 7 -239 l -6 -89 q 60 -68 40 -89 q 81 -1 81 -48 l 81 972 l 250 972 l 250 -33 q 191 -189 250 -140 q 36 -239 132 -239 l 7 -239 m -4 1035 l -4 1138 l 165 1257 l 335 1138 l 335 1035 l 165 1126 l -4 1035 z "},"K":{"ha":731,"x_min":75,"x_max":744,"o":"m 544 0 l 251 514 l 544 972 l 744 972 l 443 514 l 744 0 l 544 0 m 75 0 l 75 972 l 244 972 l 244 0 l 75 0 z "},"Ķ":{"ha":731,"x_min":75,"x_max":744,"o":"m 544 0 l 251 514 l 544 972 l 744 972 l 443 514 l 744 0 l 544 0 m 75 0 l 75 972 l 244 972 l 244 0 l 75 0 m 375 -414 l 311 -414 l 371 -261 l 325 -261 l 325 -126 l 464 -126 l 464 -244 l 375 -414 z "},"L":{"ha":597,"x_min":92,"x_max":589,"o":"m 92 0 l 92 972 l 261 972 l 261 156 l 589 156 l 589 0 l 92 0 z "},"Ǉ":{"ha":933,"x_min":92,"x_max":847,"o":"m 92 0 l 92 972 l 261 972 l 261 156 l 589 156 l 589 0 l 92 0 m 604 -239 l 592 -89 q 658 -68 638 -89 q 678 -1 678 -48 l 678 972 l 847 972 l 847 -33 q 788 -189 847 -140 q 633 -239 729 -239 l 604 -239 z "},"Ĺ":{"ha":597,"x_min":68,"x_max":589,"o":"m 92 0 l 92 972 l 261 972 l 261 156 l 589 156 l 589 0 l 92 0 m 68 1054 l 68 1150 l 286 1261 l 286 1118 l 68 1054 z "},"Ľ":{"ha":597,"x_min":92,"x_max":589,"o":"m 92 0 l 92 972 l 261 972 l 261 156 l 589 156 l 589 0 l 92 0 m 457 726 l 457 972 l 589 972 l 549 726 l 457 726 z "},"Ļ":{"ha":597,"x_min":92,"x_max":589,"o":"m 92 0 l 92 972 l 261 972 l 261 156 l 589 156 l 589 0 l 92 0 m 321 -414 l 257 -414 l 317 -261 l 271 -261 l 271 -126 l 410 -126 l 410 -244 l 321 -414 z "},"Ŀ":{"ha":597,"x_min":92,"x_max":589,"o":"m 92 0 l 92 972 l 261 972 l 261 156 l 589 156 l 589 0 l 92 0 m 389 454 l 389 635 l 561 635 l 561 454 l 389 454 z "},"Ḷ":{"ha":597,"x_min":92,"x_max":589,"o":"m 92 0 l 92 972 l 261 972 l 261 156 l 589 156 l 589 0 l 92 0 z "},"ǈ":{"ha":886,"x_min":92,"x_max":825,"o":"m 92 0 l 92 972 l 261 972 l 261 156 l 589 156 l 589 0 l 92 0 m 607 -336 l 593 -194 q 630 -186 616 -194 q 651 -159 644 -178 q 658 -108 658 -140 l 658 694 l 825 694 l 825 -154 q 807 -255 825 -215 q 750 -316 789 -295 q 650 -336 712 -336 l 607 -336 m 658 800 l 658 972 l 825 972 l 825 800 l 658 800 z "},"Ḻ":{"ha":597,"x_min":92,"x_max":589,"o":"m 92 0 l 92 972 l 261 972 l 261 156 l 589 156 l 589 0 l 92 0 z "},"Ł":{"ha":610,"x_min":28,"x_max":601,"o":"m 104 0 l 104 972 l 274 972 l 274 156 l 601 156 l 601 0 l 104 0 m 28 489 l 28 628 l 497 756 l 497 617 l 28 489 z "},"M":{"ha":1014,"x_min":50,"x_max":956,"o":"m 50 0 l 172 972 l 310 972 l 503 546 l 696 972 l 833 972 l 956 0 l 781 0 l 697 731 l 757 724 l 503 196 l 250 722 l 308 729 l 225 0 l 50 0 z "},"Ṃ":{"ha":1014,"x_min":50,"x_max":956,"o":"m 50 0 l 172 972 l 310 972 l 503 546 l 696 972 l 833 972 l 956 0 l 781 0 l 697 731 l 757 724 l 503 196 l 250 722 l 308 729 l 225 0 l 50 0 z "},"N":{"ha":849,"x_min":92,"x_max":757,"o":"m 92 0 l 92 972 l 265 972 l 588 364 l 588 972 l 757 972 l 757 0 l 608 0 l 261 647 l 261 0 l 92 0 z "},"Ǌ":{"ha":1185,"x_min":92,"x_max":1099,"o":"m 92 0 l 92 972 l 265 972 l 588 364 l 588 972 l 757 972 l 757 0 l 608 0 l 261 647 l 261 0 l 92 0 m 856 -239 l 843 -89 q 909 -68 889 -89 q 929 -1 929 -48 l 929 972 l 1099 972 l 1099 -33 q 1040 -189 1099 -140 q 885 -239 981 -239 l 856 -239 z "},"Ń":{"ha":849,"x_min":92,"x_max":757,"o":"m 92 0 l 92 972 l 265 972 l 588 364 l 588 972 l 757 972 l 757 0 l 608 0 l 261 647 l 261 0 l 92 0 m 318 1054 l 318 1150 l 536 1261 l 536 1118 l 318 1054 z "},"Ň":{"ha":849,"x_min":92,"x_max":757,"o":"m 92 0 l 92 972 l 265 972 l 588 364 l 588 972 l 757 972 l 757 0 l 608 0 l 261 647 l 261 0 l 92 0 z "},"Ņ":{"ha":849,"x_min":92,"x_max":757,"o":"m 92 0 l 92 972 l 265 972 l 588 364 l 588 972 l 757 972 l 757 0 l 608 0 l 261 647 l 261 0 l 92 0 m 415 -414 l 351 -414 l 411 -261 l 365 -261 l 365 -126 l 504 -126 l 504 -244 l 415 -414 z "},"Ṅ":{"ha":849,"x_min":92,"x_max":757,"o":"m 92 0 l 92 972 l 265 972 l 588 364 l 588 972 l 757 972 l 757 0 l 608 0 l 261 647 l 261 0 l 92 0 m 357 1100 l 357 1235 l 496 1235 l 496 1100 l 357 1100 z "},"Ṇ":{"ha":849,"x_min":92,"x_max":757,"o":"m 92 0 l 92 972 l 265 972 l 588 364 l 588 972 l 757 972 l 757 0 l 608 0 l 261 647 l 261 0 l 92 0 z "},"Ŋ":{"ha":907,"x_min":83,"x_max":824,"o":"m 824 69 q 779 -129 824 -51 q 655 -246 734 -208 q 475 -285 576 -285 q 356 -268 412 -285 l 374 -119 q 425 -127 399 -124 q 476 -129 451 -129 q 606 -82 557 -129 q 654 58 654 -35 l 654 553 q 603 763 654 690 q 453 836 553 836 q 333 809 383 836 q 253 736 283 781 l 253 0 l 83 0 l 83 972 l 226 972 l 235 879 q 352 963 285 935 q 496 992 420 992 q 678 940 606 992 q 788 796 751 889 q 824 581 824 703 l 824 69 z "},"ǋ":{"ha":1126,"x_min":92,"x_max":1065,"o":"m 92 0 l 92 972 l 265 972 l 588 364 l 588 972 l 757 972 l 757 0 l 608 0 l 261 647 l 261 0 l 92 0 m 847 -336 l 833 -194 q 870 -186 856 -194 q 892 -159 885 -178 q 899 -108 899 -140 l 899 694 l 1065 694 l 1065 -154 q 1047 -255 1065 -215 q 991 -316 1029 -295 q 890 -336 952 -336 l 847 -336 m 899 800 l 899 972 l 1065 972 l 1065 800 l 899 800 z "},"Ṉ":{"ha":849,"x_min":92,"x_max":757,"o":"m 92 0 l 92 972 l 265 972 l 588 364 l 588 972 l 757 972 l 757 0 l 608 0 l 261 647 l 261 0 l 92 0 z "},"Ñ":{"ha":849,"x_min":92,"x_max":757,"o":"m 92 0 l 92 972 l 265 972 l 588 364 l 588 972 l 757 972 l 757 0 l 608 0 l 261 647 l 261 0 l 92 0 m 533 1079 q 471 1093 501 1079 q 413 1121 440 1107 q 361 1135 385 1135 q 321 1089 321 1135 l 215 1089 q 241 1197 215 1160 q 319 1235 267 1235 q 382 1221 351 1235 q 440 1193 413 1207 q 492 1179 468 1179 q 532 1225 532 1179 l 638 1225 q 612 1117 638 1156 q 533 1079 587 1079 z "},"O":{"ha":908,"x_min":42,"x_max":867,"o":"m 454 -19 q 242 43 335 -19 q 95 220 149 106 q 42 486 42 333 q 95 752 42 639 q 242 929 149 866 q 454 992 335 992 q 667 929 574 992 q 814 752 760 866 q 867 486 867 639 q 814 220 867 333 q 667 43 760 106 q 454 -19 574 -19 m 454 151 q 583 194 531 151 q 660 313 635 238 q 686 486 686 389 q 660 659 686 583 q 583 778 635 735 q 454 821 531 821 q 326 778 377 821 q 248 659 274 735 q 222 486 222 583 q 248 313 222 389 q 326 194 274 238 q 454 151 378 151 z "},"Ó":{"ha":908,"x_min":42,"x_max":867,"o":"m 454 -19 q 242 43 335 -19 q 95 220 149 106 q 42 486 42 333 q 95 752 42 639 q 242 929 149 866 q 454 992 335 992 q 667 929 574 992 q 814 752 760 866 q 867 486 867 639 q 814 220 867 333 q 667 43 760 106 q 454 -19 574 -19 m 454 151 q 583 194 531 151 q 660 313 635 238 q 686 486 686 389 q 660 659 686 583 q 583 778 635 735 q 454 821 531 821 q 326 778 377 821 q 248 659 274 735 q 222 486 222 583 q 248 313 222 389 q 326 194 274 238 q 454 151 378 151 m 346 1054 l 346 1150 l 564 1261 l 564 1118 l 346 1054 z "},"Ŏ":{"ha":908,"x_min":42,"x_max":867,"o":"m 454 -19 q 242 43 335 -19 q 95 220 149 106 q 42 486 42 333 q 95 752 42 639 q 242 929 149 866 q 454 992 335 992 q 667 929 574 992 q 814 752 760 866 q 867 486 867 639 q 814 220 867 333 q 667 43 760 106 q 454 -19 574 -19 m 454 151 q 583 194 531 151 q 660 313 635 238 q 686 486 686 389 q 660 659 686 583 q 583 778 635 735 q 454 821 531 821 q 326 778 377 821 q 248 659 274 735 q 222 486 222 583 q 248 313 222 389 q 326 194 274 238 q 454 151 378 151 m 454 1063 q 348 1087 392 1063 q 278 1151 303 1111 q 254 1239 254 1191 l 372 1239 q 394 1178 372 1199 q 454 1157 417 1157 q 514 1178 492 1157 q 536 1239 536 1199 l 654 1239 q 630 1151 654 1191 q 561 1087 606 1111 q 454 1063 517 1063 z "},"Ô":{"ha":908,"x_min":42,"x_max":867,"o":"m 454 -19 q 242 43 335 -19 q 95 220 149 106 q 42 486 42 333 q 95 752 42 639 q 242 929 149 866 q 454 992 335 992 q 667 929 574 992 q 814 752 760 866 q 867 486 867 639 q 814 220 867 333 q 667 43 760 106 q 454 -19 574 -19 m 454 151 q 583 194 531 151 q 660 313 635 238 q 686 486 686 389 q 660 659 686 583 q 583 778 635 735 q 454 821 531 821 q 326 778 377 821 q 248 659 274 735 q 222 486 222 583 q 248 313 222 389 q 326 194 274 238 q 454 151 378 151 m 285 1035 l 285 1138 l 454 1257 l 624 1138 l 624 1035 l 454 1126 l 285 1035 z "},"Ố":{"ha":908,"x_min":42,"x_max":867,"o":"m 454 -19 q 242 43 335 -19 q 95 220 149 106 q 42 486 42 333 q 95 752 42 639 q 242 929 149 866 q 454 992 335 992 q 667 929 574 992 q 814 752 760 866 q 867 486 867 639 q 814 220 867 333 q 667 43 760 106 q 454 -19 574 -19 m 454 151 q 583 194 531 151 q 660 313 635 238 q 686 486 686 389 q 660 659 686 583 q 583 778 635 735 q 454 821 531 821 q 326 778 377 821 q 248 659 274 735 q 222 486 222 583 q 248 313 222 389 q 326 194 274 238 q 454 151 378 151 m 285 1035 l 285 1138 l 454 1257 l 624 1138 l 624 1035 l 454 1126 l 285 1035 m 551 1235 l 629 1411 l 783 1411 l 656 1235 l 551 1235 z "},"Ộ":{"ha":908,"x_min":42,"x_max":867,"o":"m 454 -19 q 242 43 335 -19 q 95 220 149 106 q 42 486 42 333 q 95 752 42 639 q 242 929 149 866 q 454 992 335 992 q 667 929 574 992 q 814 752 760 866 q 867 486 867 639 q 814 220 867 333 q 667 43 760 106 q 454 -19 574 -19 m 454 151 q 583 194 531 151 q 660 313 635 238 q 686 486 686 389 q 660 659 686 583 q 583 778 635 735 q 454 821 531 821 q 326 778 377 821 q 248 659 274 735 q 222 486 222 583 q 248 313 222 389 q 326 194 274 238 q 454 151 378 151 m 299 1061 l 299 1171 l 454 1303 l 610 1171 l 610 1061 l 454 1158 l 299 1061 z "},"Ồ":{"ha":908,"x_min":42,"x_max":867,"o":"m 454 -19 q 242 43 335 -19 q 95 220 149 106 q 42 486 42 333 q 95 752 42 639 q 242 929 149 866 q 454 992 335 992 q 667 929 574 992 q 814 752 760 866 q 867 486 867 639 q 814 220 867 333 q 667 43 760 106 q 454 -19 574 -19 m 454 151 q 583 194 531 151 q 660 313 635 238 q 686 486 686 389 q 660 659 686 583 q 583 778 635 735 q 454 821 531 821 q 326 778 377 821 q 248 659 274 735 q 222 486 222 583 q 248 313 222 389 q 326 194 274 238 q 454 151 378 151 m 285 1035 l 285 1138 l 454 1257 l 624 1138 l 624 1035 l 454 1126 l 285 1035 m 590 1235 l 490 1411 l 633 1411 l 690 1235 l 590 1235 z "},"Ổ":{"ha":908,"x_min":42,"x_max":867,"o":"m 454 -19 q 242 43 335 -19 q 95 220 149 106 q 42 486 42 333 q 95 752 42 639 q 242 929 149 866 q 454 992 335 992 q 667 929 574 992 q 814 752 760 866 q 867 486 867 639 q 814 220 867 333 q 667 43 760 106 q 454 -19 574 -19 m 454 151 q 583 194 531 151 q 660 313 635 238 q 686 486 686 389 q 660 659 686 583 q 583 778 635 735 q 454 821 531 821 q 326 778 377 821 q 248 659 274 735 q 222 486 222 583 q 248 313 222 389 q 326 194 274 238 q 454 151 378 151 m 285 1035 l 285 1138 l 454 1257 l 624 1138 l 624 1035 l 454 1126 l 285 1035 m 588 1217 l 572 1278 q 604 1295 593 1284 q 615 1325 615 1306 q 603 1355 615 1345 q 569 1364 592 1364 q 535 1358 553 1364 q 501 1344 518 1353 l 478 1429 q 526 1444 501 1439 q 578 1449 551 1449 q 668 1421 631 1449 q 704 1342 704 1394 q 675 1265 704 1294 q 588 1217 646 1235 z "},"Ỗ":{"ha":908,"x_min":42,"x_max":867,"o":"m 454 -19 q 242 43 335 -19 q 95 220 149 106 q 42 486 42 333 q 95 752 42 639 q 242 929 149 866 q 454 992 335 992 q 667 929 574 992 q 814 752 760 866 q 867 486 867 639 q 814 220 867 333 q 667 43 760 106 q 454 -19 574 -19 m 454 151 q 583 194 531 151 q 660 313 635 238 q 686 486 686 389 q 660 659 686 583 q 583 778 635 735 q 454 821 531 821 q 326 778 377 821 q 248 659 274 735 q 222 486 222 583 q 248 313 222 389 q 326 194 274 238 q 454 151 378 151 m 285 1035 l 285 1138 l 454 1257 l 624 1138 l 624 1035 l 454 1126 l 285 1035 m 561 1307 q 499 1321 529 1307 q 440 1349 468 1335 q 389 1363 413 1363 q 349 1317 349 1363 l 243 1317 q 269 1425 243 1388 q 347 1463 294 1463 q 410 1449 379 1463 q 468 1421 440 1435 q 519 1407 496 1407 q 560 1453 560 1407 l 665 1453 q 640 1345 665 1383 q 561 1307 615 1307 z "},"Ȍ":{"ha":908,"x_min":42,"x_max":867,"o":"m 454 -19 q 242 43 335 -19 q 95 220 149 106 q 42 486 42 333 q 95 752 42 639 q 242 929 149 866 q 454 992 335 992 q 667 929 574 992 q 814 752 760 866 q 867 486 867 639 q 814 220 867 333 q 667 43 760 106 q 454 -19 574 -19 m 454 151 q 583 194 531 151 q 660 313 635 238 q 686 486 686 389 q 660 659 686 583 q 583 778 635 735 q 454 821 531 821 q 326 778 377 821 q 248 659 274 735 q 222 486 222 583 q 248 313 222 389 q 326 194 274 238 q 454 151 378 151 m 603 1094 l 499 1094 l 385 1313 l 539 1313 l 603 1094 m 404 1094 l 300 1094 l 175 1313 l 329 1313 l 404 1094 z "},"Ö":{"ha":908,"x_min":42,"x_max":867,"o":"m 454 -19 q 242 43 335 -19 q 95 220 149 106 q 42 486 42 333 q 95 752 42 639 q 242 929 149 866 q 454 992 335 992 q 667 929 574 992 q 814 752 760 866 q 867 486 867 639 q 814 220 867 333 q 667 43 760 106 q 454 -19 574 -19 m 454 151 q 583 194 531 151 q 660 313 635 238 q 686 486 686 389 q 660 659 686 583 q 583 778 635 735 q 454 821 531 821 q 326 778 377 821 q 248 659 274 735 q 222 486 222 583 q 248 313 222 389 q 326 194 274 238 q 454 151 378 151 m 275 1088 l 275 1207 l 403 1207 l 403 1088 l 275 1088 m 506 1088 l 506 1207 l 633 1207 l 633 1088 l 506 1088 z "},"Ȫ":{"ha":908,"x_min":42,"x_max":867,"o":"m 454 -19 q 242 43 335 -19 q 95 220 149 106 q 42 486 42 333 q 95 752 42 639 q 242 929 149 866 q 454 992 335 992 q 667 929 574 992 q 814 752 760 866 q 867 486 867 639 q 814 220 867 333 q 667 43 760 106 q 454 -19 574 -19 m 454 151 q 583 194 531 151 q 660 313 635 238 q 686 486 686 389 q 660 659 686 583 q 583 778 635 735 q 454 821 531 821 q 326 778 377 821 q 248 659 274 735 q 222 486 222 583 q 248 313 222 389 q 326 194 274 238 q 454 151 378 151 m 275 1088 l 275 1207 l 403 1207 l 403 1088 l 275 1088 m 506 1088 l 506 1207 l 633 1207 l 633 1088 l 506 1088 m 240 1310 l 240 1410 l 668 1410 l 668 1310 l 240 1310 z "},"Ȱ":{"ha":908,"x_min":42,"x_max":867,"o":"m 454 -19 q 242 43 335 -19 q 95 220 149 106 q 42 486 42 333 q 95 752 42 639 q 242 929 149 866 q 454 992 335 992 q 667 929 574 992 q 814 752 760 866 q 867 486 867 639 q 814 220 867 333 q 667 43 760 106 q 454 -19 574 -19 m 454 151 q 583 194 531 151 q 660 313 635 238 q 686 486 686 389 q 660 659 686 583 q 583 778 635 735 q 454 821 531 821 q 326 778 377 821 q 248 659 274 735 q 222 486 222 583 q 248 313 222 389 q 326 194 274 238 q 454 151 378 151 m 385 1100 l 385 1235 l 524 1235 l 524 1100 l 385 1100 m 240 1351 l 240 1451 l 668 1451 l 668 1351 l 240 1351 z "},"Ọ":{"ha":908,"x_min":42,"x_max":867,"o":"m 454 -19 q 242 43 335 -19 q 95 220 149 106 q 42 486 42 333 q 95 752 42 639 q 242 929 149 866 q 454 992 335 992 q 667 929 574 992 q 814 752 760 866 q 867 486 867 639 q 814 220 867 333 q 667 43 760 106 q 454 -19 574 -19 m 454 151 q 583 194 531 151 q 660 313 635 238 q 686 486 686 389 q 660 659 686 583 q 583 778 635 735 q 454 821 531 821 q 326 778 377 821 q 248 659 274 735 q 222 486 222 583 q 248 313 222 389 q 326 194 274 238 q 454 151 378 151 z "},"Ò":{"ha":908,"x_min":42,"x_max":867,"o":"m 454 -19 q 242 43 335 -19 q 95 220 149 106 q 42 486 42 333 q 95 752 42 639 q 242 929 149 866 q 454 992 335 992 q 667 929 574 992 q 814 752 760 866 q 867 486 867 639 q 814 220 867 333 q 667 43 760 106 q 454 -19 574 -19 m 454 151 q 583 194 531 151 q 660 313 635 238 q 686 486 686 389 q 660 659 686 583 q 583 778 635 735 q 454 821 531 821 q 326 778 377 821 q 248 659 274 735 q 222 486 222 583 q 248 313 222 389 q 326 194 274 238 q 454 151 378 151 m 563 1054 l 344 1118 l 344 1261 l 563 1150 l 563 1054 z "},"Ỏ":{"ha":908,"x_min":42,"x_max":867,"o":"m 454 -19 q 242 43 335 -19 q 95 220 149 106 q 42 486 42 333 q 95 752 42 639 q 242 929 149 866 q 454 992 335 992 q 667 929 574 992 q 814 752 760 866 q 867 486 867 639 q 814 220 867 333 q 667 43 760 106 q 454 -19 574 -19 m 454 151 q 583 194 531 151 q 660 313 635 238 q 686 486 686 389 q 660 659 686 583 q 583 778 635 735 q 454 821 531 821 q 326 778 377 821 q 248 659 274 735 q 222 486 222 583 q 248 313 222 389 q 326 194 274 238 q 454 151 378 151 m 447 1056 l 432 1117 q 464 1134 453 1123 q 475 1164 475 1144 q 463 1193 475 1184 q 429 1203 451 1203 q 395 1197 413 1203 q 361 1183 378 1192 l 338 1268 q 385 1283 360 1278 q 438 1288 410 1288 q 527 1260 491 1288 q 564 1181 564 1233 q 535 1103 564 1133 q 447 1056 506 1074 z "},"Ơ":{"ha":908,"x_min":42,"x_max":867,"o":"m 454 -19 q 242 43 335 -19 q 95 220 149 106 q 42 486 42 333 q 95 752 42 639 q 242 929 149 866 q 454 992 335 992 q 667 929 574 992 q 814 752 760 866 q 867 486 867 639 q 814 220 867 333 q 667 43 760 106 q 454 -19 574 -19 m 454 151 q 583 194 531 151 q 660 313 635 238 q 686 486 686 389 q 660 659 686 583 q 583 778 635 735 q 454 821 531 821 q 326 778 377 821 q 248 659 274 735 q 222 486 222 583 q 248 313 222 389 q 326 194 274 238 q 454 151 378 151 m 575 858 l 575 972 q 649 996 622 972 q 675 1075 675 1020 l 815 1075 q 781 953 815 1001 q 692 882 747 905 q 575 858 638 858 z "},"Ớ":{"ha":908,"x_min":42,"x_max":867,"o":"m 454 -19 q 242 43 335 -19 q 95 220 149 106 q 42 486 42 333 q 95 752 42 639 q 242 929 149 866 q 454 992 335 992 q 667 929 574 992 q 814 752 760 866 q 867 486 867 639 q 814 220 867 333 q 667 43 760 106 q 454 -19 574 -19 m 454 151 q 583 194 531 151 q 660 313 635 238 q 686 486 686 389 q 660 659 686 583 q 583 778 635 735 q 454 821 531 821 q 326 778 377 821 q 248 659 274 735 q 222 486 222 583 q 248 313 222 389 q 326 194 274 238 q 454 151 378 151 m 575 858 l 575 972 q 649 996 622 972 q 675 1075 675 1020 l 815 1075 q 781 953 815 1001 q 692 882 747 905 q 575 858 638 858 m 346 1054 l 346 1150 l 564 1261 l 564 1118 l 346 1054 z "},"Ợ":{"ha":908,"x_min":42,"x_max":867,"o":"m 454 -19 q 242 43 335 -19 q 95 220 149 106 q 42 486 42 333 q 95 752 42 639 q 242 929 149 866 q 454 992 335 992 q 667 929 574 992 q 814 752 760 866 q 867 486 867 639 q 814 220 867 333 q 667 43 760 106 q 454 -19 574 -19 m 454 151 q 583 194 531 151 q 660 313 635 238 q 686 486 686 389 q 660 659 686 583 q 583 778 635 735 q 454 821 531 821 q 326 778 377 821 q 248 659 274 735 q 222 486 222 583 q 248 313 222 389 q 326 194 274 238 q 454 151 378 151 m 575 858 l 575 972 q 649 996 622 972 q 675 1075 675 1020 l 815 1075 q 781 953 815 1001 q 692 882 747 905 q 575 858 638 858 z "},"Ờ":{"ha":908,"x_min":42,"x_max":867,"o":"m 454 -19 q 242 43 335 -19 q 95 220 149 106 q 42 486 42 333 q 95 752 42 639 q 242 929 149 866 q 454 992 335 992 q 667 929 574 992 q 814 752 760 866 q 867 486 867 639 q 814 220 867 333 q 667 43 760 106 q 454 -19 574 -19 m 454 151 q 583 194 531 151 q 660 313 635 238 q 686 486 686 389 q 660 659 686 583 q 583 778 635 735 q 454 821 531 821 q 326 778 377 821 q 248 659 274 735 q 222 486 222 583 q 248 313 222 389 q 326 194 274 238 q 454 151 378 151 m 575 858 l 575 972 q 649 996 622 972 q 675 1075 675 1020 l 815 1075 q 781 953 815 1001 q 692 882 747 905 q 575 858 638 858 m 563 1054 l 344 1118 l 344 1261 l 563 1150 l 563 1054 z "},"Ở":{"ha":908,"x_min":42,"x_max":867,"o":"m 454 -19 q 242 43 335 -19 q 95 220 149 106 q 42 486 42 333 q 95 752 42 639 q 242 929 149 866 q 454 992 335 992 q 667 929 574 992 q 814 752 760 866 q 867 486 867 639 q 814 220 867 333 q 667 43 760 106 q 454 -19 574 -19 m 454 151 q 583 194 531 151 q 660 313 635 238 q 686 486 686 389 q 660 659 686 583 q 583 778 635 735 q 454 821 531 821 q 326 778 377 821 q 248 659 274 735 q 222 486 222 583 q 248 313 222 389 q 326 194 274 238 q 454 151 378 151 m 575 858 l 575 972 q 649 996 622 972 q 675 1075 675 1020 l 815 1075 q 781 953 815 1001 q 692 882 747 905 q 575 858 638 858 m 447 1056 l 432 1117 q 464 1134 453 1123 q 475 1164 475 1144 q 463 1193 475 1184 q 429 1203 451 1203 q 395 1197 413 1203 q 361 1183 378 1192 l 338 1268 q 385 1283 360 1278 q 438 1288 410 1288 q 527 1260 491 1288 q 564 1181 564 1233 q 535 1103 564 1133 q 447 1056 506 1074 z "},"Ỡ":{"ha":908,"x_min":42,"x_max":867,"o":"m 454 -19 q 242 43 335 -19 q 95 220 149 106 q 42 486 42 333 q 95 752 42 639 q 242 929 149 866 q 454 992 335 992 q 667 929 574 992 q 814 752 760 866 q 867 486 867 639 q 814 220 867 333 q 667 43 760 106 q 454 -19 574 -19 m 454 151 q 583 194 531 151 q 660 313 635 238 q 686 486 686 389 q 660 659 686 583 q 583 778 635 735 q 454 821 531 821 q 326 778 377 821 q 248 659 274 735 q 222 486 222 583 q 248 313 222 389 q 326 194 274 238 q 454 151 378 151 m 575 858 l 575 972 q 649 996 622 972 q 675 1075 675 1020 l 815 1075 q 781 953 815 1001 q 692 882 747 905 q 575 858 638 858 m 561 1079 q 499 1093 529 1079 q 440 1121 468 1107 q 389 1135 413 1135 q 349 1089 349 1135 l 243 1089 q 269 1197 243 1160 q 347 1235 294 1235 q 410 1221 379 1235 q 468 1193 440 1207 q 519 1179 496 1179 q 560 1225 560 1179 l 665 1225 q 640 1117 665 1156 q 561 1079 615 1079 z "},"Ő":{"ha":908,"x_min":42,"x_max":867,"o":"m 454 -19 q 242 43 335 -19 q 95 220 149 106 q 42 486 42 333 q 95 752 42 639 q 242 929 149 866 q 454 992 335 992 q 667 929 574 992 q 814 752 760 866 q 867 486 867 639 q 814 220 867 333 q 667 43 760 106 q 454 -19 574 -19 m 454 151 q 583 194 531 151 q 660 313 635 238 q 686 486 686 389 q 660 659 686 583 q 583 778 635 735 q 454 821 531 821 q 326 778 377 821 q 248 659 274 735 q 222 486 222 583 q 248 313 222 389 q 326 194 274 238 q 454 151 378 151 m 297 1094 l 375 1313 l 529 1313 l 401 1094 l 297 1094 m 496 1094 l 585 1313 l 739 1313 l 600 1094 l 496 1094 z "},"Ȏ":{"ha":908,"x_min":42,"x_max":867,"o":"m 454 -19 q 242 43 335 -19 q 95 220 149 106 q 42 486 42 333 q 95 752 42 639 q 242 929 149 866 q 454 992 335 992 q 667 929 574 992 q 814 752 760 866 q 867 486 867 639 q 814 220 867 333 q 667 43 760 106 q 454 -19 574 -19 m 454 151 q 583 194 531 151 q 660 313 635 238 q 686 486 686 389 q 660 659 686 583 q 583 778 635 735 q 454 821 531 821 q 326 778 377 821 q 248 659 274 735 q 222 486 222 583 q 248 313 222 389 q 326 194 274 238 q 454 151 378 151 m 454 1260 q 561 1236 517 1260 q 630 1172 606 1212 q 654 1083 654 1131 l 536 1083 q 514 1144 536 1123 q 455 1165 492 1165 q 394 1144 417 1165 q 372 1083 372 1123 l 254 1083 q 278 1172 254 1131 q 348 1236 303 1212 q 454 1260 392 1260 z "},"Ō":{"ha":908,"x_min":42,"x_max":867,"o":"m 454 -19 q 242 43 335 -19 q 95 220 149 106 q 42 486 42 333 q 95 752 42 639 q 242 929 149 866 q 454 992 335 992 q 667 929 574 992 q 814 752 760 866 q 867 486 867 639 q 814 220 867 333 q 667 43 760 106 q 454 -19 574 -19 m 454 151 q 583 194 531 151 q 660 313 635 238 q 686 486 686 389 q 660 659 686 583 q 583 778 635 735 q 454 821 531 821 q 326 778 377 821 q 248 659 274 735 q 222 486 222 583 q 248 313 222 389 q 326 194 274 238 q 454 151 378 151 m 240 1101 l 240 1201 l 668 1201 l 668 1101 l 240 1101 z "},"Ṓ":{"ha":908,"x_min":42,"x_max":867,"o":"m 454 -19 q 242 43 335 -19 q 95 220 149 106 q 42 486 42 333 q 95 752 42 639 q 242 929 149 866 q 454 992 335 992 q 667 929 574 992 q 814 752 760 866 q 867 486 867 639 q 814 220 867 333 q 667 43 760 106 q 454 -19 574 -19 m 454 151 q 583 194 531 151 q 660 313 635 238 q 686 486 686 389 q 660 659 686 583 q 583 778 635 735 q 454 821 531 821 q 326 778 377 821 q 248 659 274 735 q 222 486 222 583 q 248 313 222 389 q 326 194 274 238 q 454 151 378 151 m 240 1101 l 240 1201 l 668 1201 l 668 1101 l 240 1101 m 346 1293 l 346 1389 l 564 1500 l 564 1357 l 346 1293 z "},"Ṑ":{"ha":908,"x_min":42,"x_max":867,"o":"m 454 -19 q 242 43 335 -19 q 95 220 149 106 q 42 486 42 333 q 95 752 42 639 q 242 929 149 866 q 454 992 335 992 q 667 929 574 992 q 814 752 760 866 q 867 486 867 639 q 814 220 867 333 q 667 43 760 106 q 454 -19 574 -19 m 454 151 q 583 194 531 151 q 660 313 635 238 q 686 486 686 389 q 660 659 686 583 q 583 778 635 735 q 454 821 531 821 q 326 778 377 821 q 248 659 274 735 q 222 486 222 583 q 248 313 222 389 q 326 194 274 238 q 454 151 378 151 m 240 1101 l 240 1201 l 668 1201 l 668 1101 l 240 1101 m 563 1293 l 344 1357 l 344 1500 l 563 1389 l 563 1293 z "},"Ǫ":{"ha":908,"x_min":42,"x_max":867,"o":"m 454 -19 q 242 43 335 -19 q 95 220 149 106 q 42 486 42 333 q 95 752 42 639 q 242 929 149 866 q 454 992 335 992 q 667 929 574 992 q 814 752 760 866 q 867 486 867 639 q 814 220 867 333 q 667 43 760 106 q 454 -19 574 -19 m 454 151 q 583 194 531 151 q 660 313 635 238 q 686 486 686 389 q 660 659 686 583 q 583 778 635 735 q 454 821 531 821 q 326 778 377 821 q 248 659 274 735 q 222 486 222 583 q 248 313 222 389 q 326 194 274 238 q 454 151 378 151 m 442 0 l 528 0 q 462 -72 490 -36 q 435 -144 435 -108 q 453 -192 435 -176 q 500 -208 471 -208 q 537 -203 520 -208 q 571 -192 554 -199 l 594 -268 q 548 -286 575 -278 q 485 -293 522 -293 q 386 -262 426 -293 q 346 -174 346 -232 q 375 -79 346 -120 q 442 0 403 -37 z "},"Ø":{"ha":908,"x_min":42,"x_max":867,"o":"m 64 -61 l 713 1033 l 844 1033 l 196 -61 l 64 -61 m 454 -19 q 242 43 335 -19 q 95 220 149 106 q 42 486 42 333 q 95 752 42 639 q 242 929 149 866 q 454 992 335 992 q 667 929 574 992 q 814 752 760 866 q 867 486 867 639 q 814 220 867 333 q 667 43 760 106 q 454 -19 574 -19 m 454 151 q 583 194 531 151 q 660 313 635 238 q 686 486 686 389 q 660 659 686 583 q 583 778 635 735 q 454 821 531 821 q 326 778 377 821 q 248 659 274 735 q 222 486 222 583 q 248 313 222 389 q 326 194 274 238 q 454 151 378 151 z "},"Ǿ":{"ha":908,"x_min":42,"x_max":867,"o":"m 64 -61 l 713 1033 l 844 1033 l 196 -61 l 64 -61 m 454 -19 q 242 43 335 -19 q 95 220 149 106 q 42 486 42 333 q 95 752 42 639 q 242 929 149 866 q 454 992 335 992 q 667 929 574 992 q 814 752 760 866 q 867 486 867 639 q 814 220 867 333 q 667 43 760 106 q 454 -19 574 -19 m 454 151 q 583 194 531 151 q 660 313 635 238 q 686 486 686 389 q 660 659 686 583 q 583 778 635 735 q 454 821 531 821 q 326 778 377 821 q 248 659 274 735 q 222 486 222 583 q 248 313 222 389 q 326 194 274 238 q 454 151 378 151 m 349 1054 l 349 1150 l 567 1261 l 567 1118 l 349 1054 z "},"Õ":{"ha":908,"x_min":42,"x_max":867,"o":"m 454 -19 q 242 43 335 -19 q 95 220 149 106 q 42 486 42 333 q 95 752 42 639 q 242 929 149 866 q 454 992 335 992 q 667 929 574 992 q 814 752 760 866 q 867 486 867 639 q 814 220 867 333 q 667 43 760 106 q 454 -19 574 -19 m 454 151 q 583 194 531 151 q 660 313 635 238 q 686 486 686 389 q 660 659 686 583 q 583 778 635 735 q 454 821 531 821 q 326 778 377 821 q 248 659 274 735 q 222 486 222 583 q 248 313 222 389 q 326 194 274 238 q 454 151 378 151 m 561 1079 q 499 1093 529 1079 q 440 1121 468 1107 q 389 1135 413 1135 q 349 1089 349 1135 l 243 1089 q 269 1197 243 1160 q 347 1235 294 1235 q 410 1221 379 1235 q 468 1193 440 1207 q 519 1179 496 1179 q 560 1225 560 1179 l 665 1225 q 640 1117 665 1156 q 561 1079 615 1079 z "},"Ṍ":{"ha":908,"x_min":42,"x_max":867,"o":"m 454 -19 q 242 43 335 -19 q 95 220 149 106 q 42 486 42 333 q 95 752 42 639 q 242 929 149 866 q 454 992 335 992 q 667 929 574 992 q 814 752 760 866 q 867 486 867 639 q 814 220 867 333 q 667 43 760 106 q 454 -19 574 -19 m 454 151 q 583 194 531 151 q 660 313 635 238 q 686 486 686 389 q 660 659 686 583 q 583 778 635 735 q 454 821 531 821 q 326 778 377 821 q 248 659 274 735 q 222 486 222 583 q 248 313 222 389 q 326 194 274 238 q 454 151 378 151 m 561 1079 q 499 1093 529 1079 q 440 1121 468 1107 q 389 1135 413 1135 q 349 1089 349 1135 l 243 1089 q 269 1197 243 1160 q 347 1235 294 1235 q 410 1221 379 1235 q 468 1193 440 1207 q 519 1179 496 1179 q 560 1225 560 1179 l 665 1225 q 640 1117 665 1156 q 561 1079 615 1079 m 346 1282 l 346 1378 l 564 1489 l 564 1346 l 346 1282 z "},"Ṏ":{"ha":908,"x_min":42,"x_max":867,"o":"m 454 -19 q 242 43 335 -19 q 95 220 149 106 q 42 486 42 333 q 95 752 42 639 q 242 929 149 866 q 454 992 335 992 q 667 929 574 992 q 814 752 760 866 q 867 486 867 639 q 814 220 867 333 q 667 43 760 106 q 454 -19 574 -19 m 454 151 q 583 194 531 151 q 660 313 635 238 q 686 486 686 389 q 660 659 686 583 q 583 778 635 735 q 454 821 531 821 q 326 778 377 821 q 248 659 274 735 q 222 486 222 583 q 248 313 222 389 q 326 194 274 238 q 454 151 378 151 m 561 1079 q 499 1093 529 1079 q 440 1121 468 1107 q 389 1135 413 1135 q 349 1089 349 1135 l 243 1089 q 269 1197 243 1160 q 347 1235 294 1235 q 410 1221 379 1235 q 468 1193 440 1207 q 519 1179 496 1179 q 560 1225 560 1179 l 665 1225 q 640 1117 665 1156 q 561 1079 615 1079 m 275 1315 l 275 1435 l 403 1435 l 403 1315 l 275 1315 m 506 1315 l 506 1435 l 633 1435 l 633 1315 l 506 1315 z "},"Ȭ":{"ha":908,"x_min":42,"x_max":867,"o":"m 454 -19 q 242 43 335 -19 q 95 220 149 106 q 42 486 42 333 q 95 752 42 639 q 242 929 149 866 q 454 992 335 992 q 667 929 574 992 q 814 752 760 866 q 867 486 867 639 q 814 220 867 333 q 667 43 760 106 q 454 -19 574 -19 m 454 151 q 583 194 531 151 q 660 313 635 238 q 686 486 686 389 q 660 659 686 583 q 583 778 635 735 q 454 821 531 821 q 326 778 377 821 q 248 659 274 735 q 222 486 222 583 q 248 313 222 389 q 326 194 274 238 q 454 151 378 151 m 561 1079 q 499 1093 529 1079 q 440 1121 468 1107 q 389 1135 413 1135 q 349 1089 349 1135 l 243 1089 q 269 1197 243 1160 q 347 1235 294 1235 q 410 1221 379 1235 q 468 1193 440 1207 q 519 1179 496 1179 q 560 1225 560 1179 l 665 1225 q 640 1117 665 1156 q 561 1079 615 1079 m 240 1329 l 240 1429 l 668 1429 l 668 1329 l 240 1329 z "},"Œ":{"ha":1293,"x_min":42,"x_max":1253,"o":"m 440 -19 q 235 43 325 -19 q 93 220 145 106 q 42 486 42 333 q 93 752 42 639 q 235 929 145 866 q 440 992 325 992 q 602 952 529 992 q 728 843 675 913 q 809 682 781 774 q 838 486 838 590 q 809 290 838 382 q 728 129 781 199 q 602 20 675 60 q 440 -19 529 -19 m 454 151 q 580 194 529 151 q 655 313 630 238 q 681 486 681 389 q 655 659 681 583 q 580 778 630 735 q 454 821 529 821 q 329 778 379 821 q 253 659 278 735 q 228 486 228 583 q 253 313 228 389 q 329 194 278 238 q 454 151 379 151 m 694 0 l 694 972 l 1240 972 l 1240 800 l 869 800 l 869 593 l 1154 593 l 1154 421 l 869 421 l 869 172 l 1253 172 l 1253 0 l 694 0 z "},"P":{"ha":721,"x_min":83,"x_max":693,"o":"m 83 0 l 83 972 l 367 972 q 538 938 464 972 q 652 831 611 903 q 693 650 693 760 q 652 469 693 540 q 538 363 611 397 q 367 328 464 328 l 253 328 l 253 0 l 83 0 m 253 475 l 351 475 q 473 514 428 475 q 518 650 518 552 q 473 783 518 741 q 351 825 428 825 l 253 825 l 253 475 z "},"Þ":{"ha":736,"x_min":83,"x_max":708,"o":"m 83 0 l 83 972 l 253 972 l 253 771 l 397 771 q 630 701 551 771 q 708 500 708 631 q 630 300 708 370 q 397 229 551 229 l 253 229 l 253 0 l 83 0 m 253 368 l 376 368 q 504 403 469 368 q 539 501 539 439 q 504 601 539 570 q 376 632 469 632 l 253 632 l 253 368 z "},"Q":{"ha":908,"x_min":42,"x_max":874,"o":"m 453 275 l 563 385 l 874 90 l 764 -19 l 453 275 m 454 -19 q 242 43 335 -19 q 95 220 149 106 q 42 486 42 333 q 95 752 42 639 q 242 929 149 866 q 454 992 335 992 q 667 929 574 992 q 814 752 760 866 q 867 486 867 639 q 814 220 867 333 q 667 43 760 106 q 454 -19 574 -19 m 454 151 q 583 194 531 151 q 660 313 635 238 q 686 486 686 389 q 660 659 686 583 q 583 778 635 735 q 454 821 531 821 q 326 778 377 821 q 248 659 274 735 q 222 486 222 583 q 248 313 222 389 q 326 194 274 238 q 454 151 378 151 z "},"R":{"ha":746,"x_min":85,"x_max":742,"o":"m 85 0 l 85 972 l 368 972 q 539 942 465 972 q 652 845 612 911 q 693 672 693 779 q 657 514 693 581 q 556 408 620 447 l 742 0 l 551 0 l 393 361 q 385 361 389 361 q 378 361 382 361 l 254 361 l 254 0 l 85 0 m 254 508 l 353 508 q 475 545 431 508 q 518 667 518 581 q 475 789 518 752 q 353 825 431 825 l 254 825 l 254 508 z "},"Ŕ":{"ha":746,"x_min":85,"x_max":742,"o":"m 85 0 l 85 972 l 368 972 q 539 942 465 972 q 652 845 612 911 q 693 672 693 779 q 657 514 693 581 q 556 408 620 447 l 742 0 l 551 0 l 393 361 q 385 361 389 361 q 378 361 382 361 l 254 361 l 254 0 l 85 0 m 254 508 l 353 508 q 475 545 431 508 q 518 667 518 581 q 475 789 518 752 q 353 825 431 825 l 254 825 l 254 508 m 265 1054 l 265 1150 l 483 1261 l 483 1118 l 265 1054 z "},"Ř":{"ha":746,"x_min":85,"x_max":742,"o":"m 85 0 l 85 972 l 368 972 q 539 942 465 972 q 652 845 612 911 q 693 672 693 779 q 657 514 693 581 q 556 408 620 447 l 742 0 l 551 0 l 393 361 q 385 361 389 361 q 378 361 382 361 l 254 361 l 254 0 l 85 0 m 254 508 l 353 508 q 475 545 431 508 q 518 667 518 581 q 475 789 518 752 q 353 825 431 825 l 254 825 l 254 508 z "},"Ŗ":{"ha":746,"x_min":85,"x_max":742,"o":"m 85 0 l 85 972 l 368 972 q 539 942 465 972 q 652 845 612 911 q 693 672 693 779 q 657 514 693 581 q 556 408 620 447 l 742 0 l 551 0 l 393 361 q 385 361 389 361 q 378 361 382 361 l 254 361 l 254 0 l 85 0 m 254 508 l 353 508 q 475 545 431 508 q 518 667 518 581 q 475 789 518 752 q 353 825 431 825 l 254 825 l 254 508 m 383 -414 l 319 -414 l 379 -261 l 333 -261 l 333 -126 l 472 -126 l 472 -244 l 383 -414 z "},"Ȑ":{"ha":746,"x_min":85,"x_max":742,"o":"m 85 0 l 85 972 l 368 972 q 539 942 465 972 q 652 845 612 911 q 693 672 693 779 q 657 514 693 581 q 556 408 620 447 l 742 0 l 551 0 l 393 361 q 385 361 389 361 q 378 361 382 361 l 254 361 l 254 0 l 85 0 m 254 508 l 353 508 q 475 545 431 508 q 518 667 518 581 q 475 789 518 752 q 353 825 431 825 l 254 825 l 254 508 m 522 1094 l 418 1094 l 304 1313 l 458 1313 l 522 1094 m 324 1094 l 219 1094 l 94 1313 l 249 1313 l 324 1094 z "},"Ṛ":{"ha":746,"x_min":85,"x_max":742,"o":"m 85 0 l 85 972 l 368 972 q 539 942 465 972 q 652 845 612 911 q 693 672 693 779 q 657 514 693 581 q 556 408 620 447 l 742 0 l 551 0 l 393 361 q 385 361 389 361 q 378 361 382 361 l 254 361 l 254 0 l 85 0 m 254 508 l 353 508 q 475 545 431 508 q 518 667 518 581 q 475 789 518 752 q 353 825 431 825 l 254 825 l 254 508 z "},"Ȓ":{"ha":746,"x_min":85,"x_max":742,"o":"m 85 0 l 85 972 l 368 972 q 539 942 465 972 q 652 845 612 911 q 693 672 693 779 q 657 514 693 581 q 556 408 620 447 l 742 0 l 551 0 l 393 361 q 385 361 389 361 q 378 361 382 361 l 254 361 l 254 0 l 85 0 m 254 508 l 353 508 q 475 545 431 508 q 518 667 518 581 q 475 789 518 752 q 353 825 431 825 l 254 825 l 254 508 m 374 1260 q 481 1236 436 1260 q 550 1172 526 1212 q 574 1083 574 1131 l 456 1083 q 433 1144 456 1123 q 374 1165 411 1165 q 314 1144 336 1165 q 292 1083 292 1123 l 174 1083 q 198 1172 174 1131 q 267 1236 222 1212 q 374 1260 312 1260 z "},"Ṟ":{"ha":746,"x_min":85,"x_max":742,"o":"m 85 0 l 85 972 l 368 972 q 539 942 465 972 q 652 845 612 911 q 693 672 693 779 q 657 514 693 581 q 556 408 620 447 l 742 0 l 551 0 l 393 361 q 385 361 389 361 q 378 361 382 361 l 254 361 l 254 0 l 85 0 m 254 508 l 353 508 q 475 545 431 508 q 518 667 518 581 q 475 789 518 752 q 353 825 431 825 l 254 825 l 254 508 z "},"S":{"ha":704,"x_min":57,"x_max":669,"o":"m 336 -19 q 236 -12 286 -19 q 140 8 186 -5 q 57 40 94 22 l 78 229 q 166 188 122 205 q 255 161 210 170 q 347 151 300 151 q 451 178 413 151 q 489 256 489 205 q 470 321 489 293 q 408 375 451 349 q 293 433 365 401 q 163 506 216 468 q 84 594 110 544 q 57 715 57 644 q 95 858 57 795 q 207 956 134 920 q 383 992 280 992 q 519 976 456 992 q 636 935 581 960 l 618 751 q 491 803 551 785 q 369 821 431 821 q 272 796 306 821 q 238 722 238 772 q 261 657 238 683 q 328 608 285 631 q 433 556 372 585 q 564 478 511 518 q 643 386 616 438 q 669 263 669 334 q 647 147 669 199 q 581 57 624 94 q 476 0 538 20 q 336 -19 415 -19 z "},"Ś":{"ha":704,"x_min":57,"x_max":669,"o":"m 336 -19 q 236 -12 286 -19 q 140 8 186 -5 q 57 40 94 22 l 78 229 q 166 188 122 205 q 255 161 210 170 q 347 151 300 151 q 451 178 413 151 q 489 256 489 205 q 470 321 489 293 q 408 375 451 349 q 293 433 365 401 q 163 506 216 468 q 84 594 110 544 q 57 715 57 644 q 95 858 57 795 q 207 956 134 920 q 383 992 280 992 q 519 976 456 992 q 636 935 581 960 l 618 751 q 491 803 551 785 q 369 821 431 821 q 272 796 306 821 q 238 722 238 772 q 261 657 238 683 q 328 608 285 631 q 433 556 372 585 q 564 478 511 518 q 643 386 616 438 q 669 263 669 334 q 647 147 669 199 q 581 57 624 94 q 476 0 538 20 q 336 -19 415 -19 m 268 1054 l 268 1150 l 486 1261 l 486 1118 l 268 1054 z "},"Ṥ":{"ha":704,"x_min":57,"x_max":669,"o":"m 336 -19 q 236 -12 286 -19 q 140 8 186 -5 q 57 40 94 22 l 78 229 q 166 188 122 205 q 255 161 210 170 q 347 151 300 151 q 451 178 413 151 q 489 256 489 205 q 470 321 489 293 q 408 375 451 349 q 293 433 365 401 q 163 506 216 468 q 84 594 110 544 q 57 715 57 644 q 95 858 57 795 q 207 956 134 920 q 383 992 280 992 q 519 976 456 992 q 636 935 581 960 l 618 751 q 491 803 551 785 q 369 821 431 821 q 272 796 306 821 q 238 722 238 772 q 261 657 238 683 q 328 608 285 631 q 433 556 372 585 q 564 478 511 518 q 643 386 616 438 q 669 263 669 334 q 647 147 669 199 q 581 57 624 94 q 476 0 538 20 q 336 -19 415 -19 m 268 1054 l 268 1150 l 486 1261 l 486 1118 l 268 1054 m 307 1325 l 307 1460 l 446 1460 l 446 1325 l 307 1325 z "},"Š":{"ha":704,"x_min":57,"x_max":669,"o":"m 336 -19 q 236 -12 286 -19 q 140 8 186 -5 q 57 40 94 22 l 78 229 q 166 188 122 205 q 255 161 210 170 q 347 151 300 151 q 451 178 413 151 q 489 256 489 205 q 470 321 489 293 q 408 375 451 349 q 293 433 365 401 q 163 506 216 468 q 84 594 110 544 q 57 715 57 644 q 95 858 57 795 q 207 956 134 920 q 383 992 280 992 q 519 976 456 992 q 636 935 581 960 l 618 751 q 491 803 551 785 q 369 821 431 821 q 272 796 306 821 q 238 722 238 772 q 261 657 238 683 q 328 608 285 631 q 433 556 372 585 q 564 478 511 518 q 643 386 616 438 q 669 263 669 334 q 647 147 669 199 q 581 57 624 94 q 476 0 538 20 q 336 -19 415 -19 z "},"Ṧ":{"ha":704,"x_min":57,"x_max":669,"o":"m 336 -19 q 236 -12 286 -19 q 140 8 186 -5 q 57 40 94 22 l 78 229 q 166 188 122 205 q 255 161 210 170 q 347 151 300 151 q 451 178 413 151 q 489 256 489 205 q 470 321 489 293 q 408 375 451 349 q 293 433 365 401 q 163 506 216 468 q 84 594 110 544 q 57 715 57 644 q 95 858 57 795 q 207 956 134 920 q 383 992 280 992 q 519 976 456 992 q 636 935 581 960 l 618 751 q 491 803 551 785 q 369 821 431 821 q 272 796 306 821 q 238 722 238 772 q 261 657 238 683 q 328 608 285 631 q 433 556 372 585 q 564 478 511 518 q 643 386 616 438 q 669 263 669 334 q 647 147 669 199 q 581 57 624 94 q 476 0 538 20 q 336 -19 415 -19 m 307 1358 l 307 1493 l 446 1493 l 446 1358 l 307 1358 z "},"Ş":{"ha":704,"x_min":57,"x_max":669,"o":"m 336 -19 q 236 -12 286 -19 q 140 8 186 -5 q 57 40 94 22 l 78 229 q 166 188 122 205 q 255 161 210 170 q 347 151 300 151 q 451 178 413 151 q 489 256 489 205 q 470 321 489 293 q 408 375 451 349 q 293 433 365 401 q 163 506 216 468 q 84 594 110 544 q 57 715 57 644 q 95 858 57 795 q 207 956 134 920 q 383 992 280 992 q 519 976 456 992 q 636 935 581 960 l 618 751 q 491 803 551 785 q 369 821 431 821 q 272 796 306 821 q 238 722 238 772 q 261 657 238 683 q 328 608 285 631 q 433 556 372 585 q 564 478 511 518 q 643 386 616 438 q 669 263 669 334 q 647 147 669 199 q 581 57 624 94 q 476 0 538 20 q 336 -19 415 -19 m 389 -110 l 346 -86 q 369 -81 358 -83 q 393 -79 381 -79 q 478 -110 447 -79 q 510 -196 510 -140 q 468 -298 510 -263 q 365 -332 426 -332 q 309 -326 333 -332 q 265 -314 284 -321 l 292 -237 q 325 -248 308 -244 q 361 -253 342 -253 q 409 -239 392 -253 q 426 -200 426 -226 q 411 -160 426 -174 q 367 -147 396 -147 q 339 -150 352 -147 q 311 -157 325 -153 l 350 0 l 422 0 l 389 -110 z "},"Ŝ":{"ha":704,"x_min":57,"x_max":669,"o":"m 336 -19 q 236 -12 286 -19 q 140 8 186 -5 q 57 40 94 22 l 78 229 q 166 188 122 205 q 255 161 210 170 q 347 151 300 151 q 451 178 413 151 q 489 256 489 205 q 470 321 489 293 q 408 375 451 349 q 293 433 365 401 q 163 506 216 468 q 84 594 110 544 q 57 715 57 644 q 95 858 57 795 q 207 956 134 920 q 383 992 280 992 q 519 976 456 992 q 636 935 581 960 l 618 751 q 491 803 551 785 q 369 821 431 821 q 272 796 306 821 q 238 722 238 772 q 261 657 238 683 q 328 608 285 631 q 433 556 372 585 q 564 478 511 518 q 643 386 616 438 q 669 263 669 334 q 647 147 669 199 q 581 57 624 94 q 476 0 538 20 q 336 -19 415 -19 m 207 1035 l 207 1138 l 376 1257 l 546 1138 l 546 1035 l 376 1126 l 207 1035 z "},"Ș":{"ha":704,"x_min":57,"x_max":669,"o":"m 336 -19 q 236 -12 286 -19 q 140 8 186 -5 q 57 40 94 22 l 78 229 q 166 188 122 205 q 255 161 210 170 q 347 151 300 151 q 451 178 413 151 q 489 256 489 205 q 470 321 489 293 q 408 375 451 349 q 293 433 365 401 q 163 506 216 468 q 84 594 110 544 q 57 715 57 644 q 95 858 57 795 q 207 956 134 920 q 383 992 280 992 q 519 976 456 992 q 636 935 581 960 l 618 751 q 491 803 551 785 q 369 821 431 821 q 272 796 306 821 q 238 722 238 772 q 261 657 238 683 q 328 608 285 631 q 433 556 372 585 q 564 478 511 518 q 643 386 616 438 q 669 263 669 334 q 647 147 669 199 q 581 57 624 94 q 476 0 538 20 q 336 -19 415 -19 m 351 -414 l 288 -414 l 347 -261 l 301 -261 l 301 -126 l 440 -126 l 440 -244 l 351 -414 z "},"Ṡ":{"ha":704,"x_min":57,"x_max":669,"o":"m 336 -19 q 236 -12 286 -19 q 140 8 186 -5 q 57 40 94 22 l 78 229 q 166 188 122 205 q 255 161 210 170 q 347 151 300 151 q 451 178 413 151 q 489 256 489 205 q 470 321 489 293 q 408 375 451 349 q 293 433 365 401 q 163 506 216 468 q 84 594 110 544 q 57 715 57 644 q 95 858 57 795 q 207 956 134 920 q 383 992 280 992 q 519 976 456 992 q 636 935 581 960 l 618 751 q 491 803 551 785 q 369 821 431 821 q 272 796 306 821 q 238 722 238 772 q 261 657 238 683 q 328 608 285 631 q 433 556 372 585 q 564 478 511 518 q 643 386 616 438 q 669 263 669 334 q 647 147 669 199 q 581 57 624 94 q 476 0 538 20 q 336 -19 415 -19 m 307 1100 l 307 1235 l 446 1235 l 446 1100 l 307 1100 z "},"Ṣ":{"ha":704,"x_min":57,"x_max":669,"o":"m 336 -19 q 236 -12 286 -19 q 140 8 186 -5 q 57 40 94 22 l 78 229 q 166 188 122 205 q 255 161 210 170 q 347 151 300 151 q 451 178 413 151 q 489 256 489 205 q 470 321 489 293 q 408 375 451 349 q 293 433 365 401 q 163 506 216 468 q 84 594 110 544 q 57 715 57 644 q 95 858 57 795 q 207 956 134 920 q 383 992 280 992 q 519 976 456 992 q 636 935 581 960 l 618 751 q 491 803 551 785 q 369 821 431 821 q 272 796 306 821 q 238 722 238 772 q 261 657 238 683 q 328 608 285 631 q 433 556 372 585 q 564 478 511 518 q 643 386 616 438 q 669 263 669 334 q 647 147 669 199 q 581 57 624 94 q 476 0 538 20 q 336 -19 415 -19 z "},"Ṩ":{"ha":704,"x_min":57,"x_max":669,"o":"m 336 -19 q 236 -12 286 -19 q 140 8 186 -5 q 57 40 94 22 l 78 229 q 166 188 122 205 q 255 161 210 170 q 347 151 300 151 q 451 178 413 151 q 489 256 489 205 q 470 321 489 293 q 408 375 451 349 q 293 433 365 401 q 163 506 216 468 q 84 594 110 544 q 57 715 57 644 q 95 858 57 795 q 207 956 134 920 q 383 992 280 992 q 519 976 456 992 q 636 935 581 960 l 618 751 q 491 803 551 785 q 369 821 431 821 q 272 796 306 821 q 238 722 238 772 q 261 657 238 683 q 328 608 285 631 q 433 556 372 585 q 564 478 511 518 q 643 386 616 438 q 669 263 669 334 q 647 147 669 199 q 581 57 624 94 q 476 0 538 20 q 336 -19 415 -19 m 307 1100 l 307 1235 l 446 1235 l 446 1100 l 307 1100 z "},"ẞ":{"ha":806,"x_min":92,"x_max":756,"o":"m 92 0 l 92 629 q 134 832 92 751 q 253 952 177 913 q 431 992 330 992 q 567 972 507 992 q 674 922 627 953 l 674 782 l 490 483 l 424 583 q 594 553 519 583 q 713 458 669 524 q 756 285 756 392 q 719 115 756 182 q 621 14 683 47 q 483 -19 559 -19 q 417 -14 449 -19 q 356 0 385 -9 l 356 165 q 439 151 395 151 q 534 190 499 151 q 569 294 569 228 q 533 403 569 365 q 425 442 497 442 l 374 442 l 374 582 l 581 906 l 588 793 q 525 826 556 815 q 453 838 494 838 q 317 783 365 838 q 269 632 269 728 l 269 0 l 92 0 z "},"Ə":{"ha":825,"x_min":42,"x_max":783,"o":"m 603 475 q 547 729 603 637 q 351 821 490 821 q 227 803 287 821 q 110 757 167 786 l 99 924 q 232 973 160 955 q 394 992 303 992 q 606 925 519 992 q 738 742 692 859 q 783 472 783 625 q 757 267 783 358 q 681 112 731 176 q 562 14 632 48 q 406 -19 492 -19 q 208 32 290 -19 q 84 176 127 83 q 42 394 42 269 q 44 456 42 423 q 53 522 47 488 l 679 522 l 679 364 l 221 364 q 266 206 221 260 q 408 151 312 151 q 558 240 514 151 q 603 475 603 329 z "},"T":{"ha":661,"x_min":13,"x_max":649,"o":"m 246 0 l 246 817 l 13 817 l 13 972 l 649 972 l 649 817 l 415 817 l 415 0 l 246 0 z "},"Ŧ":{"ha":661,"x_min":13,"x_max":649,"o":"m 246 0 l 246 817 l 13 817 l 13 972 l 649 972 l 649 817 l 415 817 l 415 0 l 246 0 m 65 425 l 65 540 l 596 540 l 596 425 l 65 425 z "},"Ť":{"ha":661,"x_min":13,"x_max":649,"o":"m 246 0 l 246 817 l 13 817 l 13 972 l 649 972 l 649 817 l 415 817 l 415 0 l 246 0 z "},"Ţ":{"ha":661,"x_min":13,"x_max":649,"o":"m 246 0 l 246 817 l 13 817 l 13 972 l 649 972 l 649 817 l 415 817 l 415 0 l 246 0 z "},"Ț":{"ha":661,"x_min":13,"x_max":649,"o":"m 246 0 l 246 817 l 13 817 l 13 972 l 649 972 l 649 817 l 415 817 l 415 0 l 246 0 m 311 -414 l 247 -414 l 307 -261 l 261 -261 l 261 -126 l 400 -126 l 400 -244 l 311 -414 z "},"Ṭ":{"ha":661,"x_min":13,"x_max":649,"o":"m 246 0 l 246 817 l 13 817 l 13 972 l 649 972 l 649 817 l 415 817 l 415 0 l 246 0 z "},"Ṯ":{"ha":661,"x_min":13,"x_max":649,"o":"m 246 0 l 246 817 l 13 817 l 13 972 l 649 972 l 649 817 l 415 817 l 415 0 l 246 0 z "},"U":{"ha":861,"x_min":83,"x_max":778,"o":"m 431 -19 q 235 30 313 -19 q 121 167 158 78 q 83 375 83 256 l 83 972 l 253 972 l 253 421 q 260 313 253 362 q 287 227 268 263 q 341 171 306 191 q 431 151 376 151 q 521 171 486 151 q 575 227 556 191 q 601 313 594 263 q 608 421 608 362 l 608 972 l 778 972 l 778 375 q 740 167 778 256 q 626 30 703 78 q 431 -19 549 -19 z "},"Ú":{"ha":861,"x_min":83,"x_max":778,"o":"m 431 -19 q 235 30 313 -19 q 121 167 158 78 q 83 375 83 256 l 83 972 l 253 972 l 253 421 q 260 313 253 362 q 287 227 268 263 q 341 171 306 191 q 431 151 376 151 q 521 171 486 151 q 575 227 556 191 q 601 313 594 263 q 608 421 608 362 l 608 972 l 778 972 l 778 375 q 740 167 778 256 q 626 30 703 78 q 431 -19 549 -19 m 324 1054 l 324 1150 l 542 1261 l 542 1118 l 324 1054 z "},"Ŭ":{"ha":861,"x_min":83,"x_max":778,"o":"m 431 -19 q 235 30 313 -19 q 121 167 158 78 q 83 375 83 256 l 83 972 l 253 972 l 253 421 q 260 313 253 362 q 287 227 268 263 q 341 171 306 191 q 431 151 376 151 q 521 171 486 151 q 575 227 556 191 q 601 313 594 263 q 608 421 608 362 l 608 972 l 778 972 l 778 375 q 740 167 778 256 q 626 30 703 78 q 431 -19 549 -19 m 432 1063 q 325 1087 370 1063 q 256 1151 281 1111 q 232 1239 232 1191 l 350 1239 q 372 1178 350 1199 q 432 1157 394 1157 q 492 1178 469 1157 q 514 1239 514 1199 l 632 1239 q 608 1151 632 1191 q 539 1087 584 1111 q 432 1063 494 1063 z "},"Û":{"ha":861,"x_min":83,"x_max":778,"o":"m 431 -19 q 235 30 313 -19 q 121 167 158 78 q 83 375 83 256 l 83 972 l 253 972 l 253 421 q 260 313 253 362 q 287 227 268 263 q 341 171 306 191 q 431 151 376 151 q 521 171 486 151 q 575 227 556 191 q 601 313 594 263 q 608 421 608 362 l 608 972 l 778 972 l 778 375 q 740 167 778 256 q 626 30 703 78 q 431 -19 549 -19 m 263 1035 l 263 1138 l 432 1257 l 601 1138 l 601 1035 l 432 1126 l 263 1035 z "},"Ȕ":{"ha":861,"x_min":83,"x_max":778,"o":"m 431 -19 q 235 30 313 -19 q 121 167 158 78 q 83 375 83 256 l 83 972 l 253 972 l 253 421 q 260 313 253 362 q 287 227 268 263 q 341 171 306 191 q 431 151 376 151 q 521 171 486 151 q 575 227 556 191 q 601 313 594 263 q 608 421 608 362 l 608 972 l 778 972 l 778 375 q 740 167 778 256 q 626 30 703 78 q 431 -19 549 -19 m 597 1094 l 497 1094 l 378 1340 l 528 1340 l 597 1094 m 401 1094 l 300 1094 l 169 1340 l 321 1340 l 401 1094 z "},"Ü":{"ha":861,"x_min":83,"x_max":778,"o":"m 431 -19 q 235 30 313 -19 q 121 167 158 78 q 83 375 83 256 l 83 972 l 253 972 l 253 421 q 260 313 253 362 q 287 227 268 263 q 341 171 306 191 q 431 151 376 151 q 521 171 486 151 q 575 227 556 191 q 601 313 594 263 q 608 421 608 362 l 608 972 l 778 972 l 778 375 q 740 167 778 256 q 626 30 703 78 q 431 -19 549 -19 m 253 1088 l 253 1207 l 381 1207 l 381 1088 l 253 1088 m 483 1088 l 483 1207 l 611 1207 l 611 1088 l 483 1088 z "},"Ụ":{"ha":861,"x_min":83,"x_max":778,"o":"m 431 -19 q 235 30 313 -19 q 121 167 158 78 q 83 375 83 256 l 83 972 l 253 972 l 253 421 q 260 313 253 362 q 287 227 268 263 q 341 171 306 191 q 431 151 376 151 q 521 171 486 151 q 575 227 556 191 q 601 313 594 263 q 608 421 608 362 l 608 972 l 778 972 l 778 375 q 740 167 778 256 q 626 30 703 78 q 431 -19 549 -19 z "},"Ù":{"ha":861,"x_min":83,"x_max":778,"o":"m 431 -19 q 235 30 313 -19 q 121 167 158 78 q 83 375 83 256 l 83 972 l 253 972 l 253 421 q 260 313 253 362 q 287 227 268 263 q 341 171 306 191 q 431 151 376 151 q 521 171 486 151 q 575 227 556 191 q 601 313 594 263 q 608 421 608 362 l 608 972 l 778 972 l 778 375 q 740 167 778 256 q 626 30 703 78 q 431 -19 549 -19 m 540 1054 l 322 1118 l 322 1261 l 540 1150 l 540 1054 z "},"Ủ":{"ha":861,"x_min":83,"x_max":778,"o":"m 431 -19 q 235 30 313 -19 q 121 167 158 78 q 83 375 83 256 l 83 972 l 253 972 l 253 421 q 260 313 253 362 q 287 227 268 263 q 341 171 306 191 q 431 151 376 151 q 521 171 486 151 q 575 227 556 191 q 601 313 594 263 q 608 421 608 362 l 608 972 l 778 972 l 778 375 q 740 167 778 256 q 626 30 703 78 q 431 -19 549 -19 m 425 1056 l 410 1117 q 442 1134 431 1123 q 453 1164 453 1144 q 441 1193 453 1184 q 407 1203 429 1203 q 373 1197 390 1203 q 339 1183 356 1192 l 315 1268 q 363 1283 338 1278 q 415 1288 388 1288 q 505 1260 469 1288 q 542 1181 542 1233 q 513 1103 542 1133 q 425 1056 483 1074 z "},"Ư":{"ha":861,"x_min":83,"x_max":906,"o":"m 431 -19 q 235 30 313 -19 q 121 167 158 78 q 83 375 83 256 l 83 972 l 253 972 l 253 421 q 260 313 253 362 q 287 227 268 263 q 341 171 306 191 q 431 151 376 151 q 521 171 486 151 q 575 227 556 191 q 601 313 594 263 q 608 421 608 362 l 608 972 l 778 972 l 778 375 q 740 167 778 256 q 626 30 703 78 q 431 -19 549 -19 m 665 858 l 665 972 q 739 996 713 972 q 765 1075 765 1020 l 906 1075 q 872 953 906 1001 q 783 882 838 905 q 665 858 728 858 z "},"Ứ":{"ha":861,"x_min":83,"x_max":906,"o":"m 431 -19 q 235 30 313 -19 q 121 167 158 78 q 83 375 83 256 l 83 972 l 253 972 l 253 421 q 260 313 253 362 q 287 227 268 263 q 341 171 306 191 q 431 151 376 151 q 521 171 486 151 q 575 227 556 191 q 601 313 594 263 q 608 421 608 362 l 608 972 l 778 972 l 778 375 q 740 167 778 256 q 626 30 703 78 q 431 -19 549 -19 m 665 858 l 665 972 q 739 996 713 972 q 765 1075 765 1020 l 906 1075 q 872 953 906 1001 q 783 882 838 905 q 665 858 728 858 m 324 1054 l 324 1150 l 542 1261 l 542 1118 l 324 1054 z "},"Ự":{"ha":861,"x_min":83,"x_max":906,"o":"m 431 -19 q 235 30 313 -19 q 121 167 158 78 q 83 375 83 256 l 83 972 l 253 972 l 253 421 q 260 313 253 362 q 287 227 268 263 q 341 171 306 191 q 431 151 376 151 q 521 171 486 151 q 575 227 556 191 q 601 313 594 263 q 608 421 608 362 l 608 972 l 778 972 l 778 375 q 740 167 778 256 q 626 30 703 78 q 431 -19 549 -19 m 665 858 l 665 972 q 739 996 713 972 q 765 1075 765 1020 l 906 1075 q 872 953 906 1001 q 783 882 838 905 q 665 858 728 858 z "},"Ừ":{"ha":861,"x_min":83,"x_max":906,"o":"m 431 -19 q 235 30 313 -19 q 121 167 158 78 q 83 375 83 256 l 83 972 l 253 972 l 253 421 q 260 313 253 362 q 287 227 268 263 q 341 171 306 191 q 431 151 376 151 q 521 171 486 151 q 575 227 556 191 q 601 313 594 263 q 608 421 608 362 l 608 972 l 778 972 l 778 375 q 740 167 778 256 q 626 30 703 78 q 431 -19 549 -19 m 665 858 l 665 972 q 739 996 713 972 q 765 1075 765 1020 l 906 1075 q 872 953 906 1001 q 783 882 838 905 q 665 858 728 858 m 540 1054 l 322 1118 l 322 1261 l 540 1150 l 540 1054 z "},"Ử":{"ha":861,"x_min":83,"x_max":906,"o":"m 431 -19 q 235 30 313 -19 q 121 167 158 78 q 83 375 83 256 l 83 972 l 253 972 l 253 421 q 260 313 253 362 q 287 227 268 263 q 341 171 306 191 q 431 151 376 151 q 521 171 486 151 q 575 227 556 191 q 601 313 594 263 q 608 421 608 362 l 608 972 l 778 972 l 778 375 q 740 167 778 256 q 626 30 703 78 q 431 -19 549 -19 m 665 858 l 665 972 q 739 996 713 972 q 765 1075 765 1020 l 906 1075 q 872 953 906 1001 q 783 882 838 905 q 665 858 728 858 m 425 1056 l 410 1117 q 442 1134 431 1123 q 453 1164 453 1144 q 441 1193 453 1184 q 407 1203 429 1203 q 373 1197 390 1203 q 339 1183 356 1192 l 315 1268 q 363 1283 338 1278 q 415 1288 388 1288 q 505 1260 469 1288 q 542 1181 542 1233 q 513 1103 542 1133 q 425 1056 483 1074 z "},"Ữ":{"ha":861,"x_min":83,"x_max":906,"o":"m 431 -19 q 235 30 313 -19 q 121 167 158 78 q 83 375 83 256 l 83 972 l 253 972 l 253 421 q 260 313 253 362 q 287 227 268 263 q 341 171 306 191 q 431 151 376 151 q 521 171 486 151 q 575 227 556 191 q 601 313 594 263 q 608 421 608 362 l 608 972 l 778 972 l 778 375 q 740 167 778 256 q 626 30 703 78 q 431 -19 549 -19 m 665 858 l 665 972 q 739 996 713 972 q 765 1075 765 1020 l 906 1075 q 872 953 906 1001 q 783 882 838 905 q 665 858 728 858 m 539 1079 q 476 1093 507 1079 q 418 1121 446 1107 q 367 1135 390 1135 q 326 1089 326 1135 l 221 1089 q 247 1197 221 1160 q 325 1235 272 1235 q 388 1221 357 1235 q 446 1193 418 1207 q 497 1179 474 1179 q 538 1225 538 1179 l 643 1225 q 618 1117 643 1156 q 539 1079 592 1079 z "},"Ű":{"ha":861,"x_min":83,"x_max":778,"o":"m 431 -19 q 235 30 313 -19 q 121 167 158 78 q 83 375 83 256 l 83 972 l 253 972 l 253 421 q 260 313 253 362 q 287 227 268 263 q 341 171 306 191 q 431 151 376 151 q 521 171 486 151 q 575 227 556 191 q 601 313 594 263 q 608 421 608 362 l 608 972 l 778 972 l 778 375 q 740 167 778 256 q 626 30 703 78 q 431 -19 549 -19 m 275 1094 l 353 1313 l 507 1313 l 379 1094 l 275 1094 m 474 1094 l 563 1313 l 717 1313 l 578 1094 l 474 1094 z "},"Ȗ":{"ha":861,"x_min":83,"x_max":778,"o":"m 431 -19 q 235 30 313 -19 q 121 167 158 78 q 83 375 83 256 l 83 972 l 253 972 l 253 421 q 260 313 253 362 q 287 227 268 263 q 341 171 306 191 q 431 151 376 151 q 521 171 486 151 q 575 227 556 191 q 601 313 594 263 q 608 421 608 362 l 608 972 l 778 972 l 778 375 q 740 167 778 256 q 626 30 703 78 q 431 -19 549 -19 m 432 1260 q 539 1236 494 1260 q 608 1172 584 1212 q 632 1083 632 1131 l 514 1083 q 492 1144 514 1123 q 433 1165 469 1165 q 372 1144 394 1165 q 350 1083 350 1123 l 232 1083 q 256 1172 232 1131 q 325 1236 281 1212 q 432 1260 370 1260 z "},"Ū":{"ha":861,"x_min":83,"x_max":778,"o":"m 431 -19 q 235 30 313 -19 q 121 167 158 78 q 83 375 83 256 l 83 972 l 253 972 l 253 421 q 260 313 253 362 q 287 227 268 263 q 341 171 306 191 q 431 151 376 151 q 521 171 486 151 q 575 227 556 191 q 601 313 594 263 q 608 421 608 362 l 608 972 l 778 972 l 778 375 q 740 167 778 256 q 626 30 703 78 q 431 -19 549 -19 m 218 1101 l 218 1201 l 646 1201 l 646 1101 l 218 1101 z "},"Ṻ":{"ha":861,"x_min":83,"x_max":778,"o":"m 431 -19 q 235 30 313 -19 q 121 167 158 78 q 83 375 83 256 l 83 972 l 253 972 l 253 421 q 260 313 253 362 q 287 227 268 263 q 341 171 306 191 q 431 151 376 151 q 521 171 486 151 q 575 227 556 191 q 601 313 594 263 q 608 421 608 362 l 608 972 l 778 972 l 778 375 q 740 167 778 256 q 626 30 703 78 q 431 -19 549 -19 m 218 1101 l 218 1201 l 646 1201 l 646 1101 l 218 1101 m 253 1326 l 253 1446 l 381 1446 l 381 1326 l 253 1326 m 483 1326 l 483 1446 l 611 1446 l 611 1326 l 483 1326 z "},"Ų":{"ha":861,"x_min":83,"x_max":778,"o":"m 431 -19 q 235 30 313 -19 q 121 167 158 78 q 83 375 83 256 l 83 972 l 253 972 l 253 421 q 260 313 253 362 q 287 227 268 263 q 341 171 306 191 q 431 151 376 151 q 521 171 486 151 q 575 227 556 191 q 601 313 594 263 q 608 421 608 362 l 608 972 l 778 972 l 778 375 q 740 167 778 256 q 626 30 703 78 q 431 -19 549 -19 m 454 0 l 540 0 q 475 -72 502 -36 q 447 -144 447 -108 q 465 -192 447 -176 q 513 -208 483 -208 q 550 -203 533 -208 q 583 -192 567 -199 l 607 -268 q 561 -286 588 -278 q 497 -293 534 -293 q 398 -262 438 -293 q 358 -174 358 -232 q 387 -79 358 -120 q 454 0 416 -37 z "},"Ů":{"ha":861,"x_min":83,"x_max":778,"o":"m 431 -19 q 235 30 313 -19 q 121 167 158 78 q 83 375 83 256 l 83 972 l 253 972 l 253 421 q 260 313 253 362 q 287 227 268 263 q 341 171 306 191 q 431 151 376 151 q 521 171 486 151 q 575 227 556 191 q 601 313 594 263 q 608 421 608 362 l 608 972 l 778 972 l 778 375 q 740 167 778 256 q 626 30 703 78 q 431 -19 549 -19 m 432 1047 q 336 1087 372 1047 q 301 1182 301 1127 q 336 1278 301 1238 q 432 1318 372 1318 q 528 1278 494 1318 q 563 1182 563 1238 q 528 1087 563 1127 q 432 1047 494 1047 m 432 1119 q 470 1137 456 1119 q 485 1182 485 1154 q 470 1227 485 1209 q 432 1244 456 1244 q 394 1227 408 1244 q 379 1182 379 1209 q 394 1137 379 1154 q 432 1119 408 1119 z "},"Ũ":{"ha":861,"x_min":83,"x_max":778,"o":"m 431 -19 q 235 30 313 -19 q 121 167 158 78 q 83 375 83 256 l 83 972 l 253 972 l 253 421 q 260 313 253 362 q 287 227 268 263 q 341 171 306 191 q 431 151 376 151 q 521 171 486 151 q 575 227 556 191 q 601 313 594 263 q 608 421 608 362 l 608 972 l 778 972 l 778 375 q 740 167 778 256 q 626 30 703 78 q 431 -19 549 -19 m 539 1079 q 476 1093 507 1079 q 418 1121 446 1107 q 367 1135 390 1135 q 326 1089 326 1135 l 221 1089 q 247 1197 221 1160 q 325 1235 272 1235 q 388 1221 357 1235 q 446 1193 418 1207 q 497 1179 474 1179 q 538 1225 538 1179 l 643 1225 q 618 1117 643 1156 q 539 1079 592 1079 z "},"Ṹ":{"ha":861,"x_min":83,"x_max":778,"o":"m 431 -19 q 235 30 313 -19 q 121 167 158 78 q 83 375 83 256 l 83 972 l 253 972 l 253 421 q 260 313 253 362 q 287 227 268 263 q 341 171 306 191 q 431 151 376 151 q 521 171 486 151 q 575 227 556 191 q 601 313 594 263 q 608 421 608 362 l 608 972 l 778 972 l 778 375 q 740 167 778 256 q 626 30 703 78 q 431 -19 549 -19 m 539 1079 q 476 1093 507 1079 q 418 1121 446 1107 q 367 1135 390 1135 q 326 1089 326 1135 l 221 1089 q 247 1197 221 1160 q 325 1235 272 1235 q 388 1221 357 1235 q 446 1193 418 1207 q 497 1179 474 1179 q 538 1225 538 1179 l 643 1225 q 618 1117 643 1156 q 539 1079 592 1079 m 324 1282 l 324 1378 l 542 1489 l 542 1346 l 324 1282 z "},"V":{"ha":800,"x_min":-3,"x_max":803,"o":"m 300 0 l -3 972 l 167 972 l 424 138 l 376 138 l 633 972 l 803 972 l 500 0 l 300 0 z "},"W":{"ha":1125,"x_min":-3,"x_max":1128,"o":"m 214 0 l -3 972 l 167 972 l 308 254 l 472 954 l 653 954 l 817 254 l 958 972 l 1128 972 l 911 0 l 731 0 l 563 700 l 394 0 l 214 0 z "},"Ẃ":{"ha":1125,"x_min":-3,"x_max":1128,"o":"m 214 0 l -3 972 l 167 972 l 308 254 l 472 954 l 653 954 l 817 254 l 958 972 l 1128 972 l 911 0 l 731 0 l 563 700 l 394 0 l 214 0 m 454 1054 l 454 1150 l 672 1261 l 672 1118 l 454 1054 z "},"Ŵ":{"ha":1125,"x_min":-3,"x_max":1128,"o":"m 214 0 l -3 972 l 167 972 l 308 254 l 472 954 l 653 954 l 817 254 l 958 972 l 1128 972 l 911 0 l 731 0 l 563 700 l 394 0 l 214 0 m 393 1035 l 393 1138 l 563 1257 l 732 1138 l 732 1035 l 563 1126 l 393 1035 z "},"Ẅ":{"ha":1125,"x_min":-3,"x_max":1128,"o":"m 214 0 l -3 972 l 167 972 l 308 254 l 472 954 l 653 954 l 817 254 l 958 972 l 1128 972 l 911 0 l 731 0 l 563 700 l 394 0 l 214 0 m 383 1088 l 383 1207 l 511 1207 l 511 1088 l 383 1088 m 614 1088 l 614 1207 l 742 1207 l 742 1088 l 614 1088 z "},"Ẁ":{"ha":1125,"x_min":-3,"x_max":1128,"o":"m 214 0 l -3 972 l 167 972 l 308 254 l 472 954 l 653 954 l 817 254 l 958 972 l 1128 972 l 911 0 l 731 0 l 563 700 l 394 0 l 214 0 m 671 1054 l 453 1118 l 453 1261 l 671 1150 l 671 1054 z "},"X":{"ha":771,"x_min":-3,"x_max":774,"o":"m -3 0 l 295 498 l 11 972 l 192 972 l 385 649 l 579 972 l 760 972 l 476 498 l 774 0 l 593 0 l 385 347 l 178 0 l -3 0 z "},"Y":{"ha":729,"x_min":-11,"x_max":740,"o":"m 281 0 l 281 431 l -11 972 l 169 972 l 401 518 l 331 518 l 560 972 l 740 972 l 449 431 l 449 0 l 281 0 z "},"Ý":{"ha":729,"x_min":-11,"x_max":740,"o":"m 281 0 l 281 431 l -11 972 l 169 972 l 401 518 l 331 518 l 560 972 l 740 972 l 449 431 l 449 0 l 281 0 m 257 1054 l 257 1150 l 475 1261 l 475 1118 l 257 1054 z "},"Ŷ":{"ha":729,"x_min":-11,"x_max":740,"o":"m 281 0 l 281 431 l -11 972 l 169 972 l 401 518 l 331 518 l 560 972 l 740 972 l 449 431 l 449 0 l 281 0 m 196 1035 l 196 1138 l 365 1257 l 535 1138 l 535 1035 l 365 1126 l 196 1035 z "},"Ÿ":{"ha":729,"x_min":-11,"x_max":740,"o":"m 281 0 l 281 431 l -11 972 l 169 972 l 401 518 l 331 518 l 560 972 l 740 972 l 449 431 l 449 0 l 281 0 m 186 1088 l 186 1207 l 314 1207 l 314 1088 l 186 1088 m 417 1088 l 417 1207 l 544 1207 l 544 1088 l 417 1088 z "},"Ẏ":{"ha":729,"x_min":-11,"x_max":740,"o":"m 281 0 l 281 431 l -11 972 l 169 972 l 401 518 l 331 518 l 560 972 l 740 972 l 449 431 l 449 0 l 281 0 m 296 1100 l 296 1235 l 435 1235 l 435 1100 l 296 1100 z "},"Ỵ":{"ha":729,"x_min":-11,"x_max":740,"o":"m 281 0 l 281 431 l -11 972 l 169 972 l 401 518 l 331 518 l 560 972 l 740 972 l 449 431 l 449 0 l 281 0 z "},"Ỳ":{"ha":729,"x_min":-11,"x_max":740,"o":"m 281 0 l 281 431 l -11 972 l 169 972 l 401 518 l 331 518 l 560 972 l 740 972 l 449 431 l 449 0 l 281 0 m 474 1054 l 256 1118 l 256 1261 l 474 1150 l 474 1054 z "},"Ỷ":{"ha":729,"x_min":-11,"x_max":740,"o":"m 281 0 l 281 431 l -11 972 l 169 972 l 401 518 l 331 518 l 560 972 l 740 972 l 449 431 l 449 0 l 281 0 m 358 1056 l 343 1117 q 375 1134 364 1123 q 386 1164 386 1144 q 374 1193 386 1184 q 340 1203 363 1203 q 306 1197 324 1203 q 272 1183 289 1192 l 249 1268 q 297 1283 272 1278 q 349 1288 322 1288 q 439 1260 402 1288 q 475 1181 475 1233 q 446 1103 475 1133 q 358 1056 417 1074 z "},"Ȳ":{"ha":729,"x_min":-11,"x_max":740,"o":"m 281 0 l 281 431 l -11 972 l 169 972 l 401 518 l 331 518 l 560 972 l 740 972 l 449 431 l 449 0 l 281 0 m 151 1101 l 151 1201 l 579 1201 l 579 1101 l 151 1101 z "},"Ỹ":{"ha":729,"x_min":-11,"x_max":740,"o":"m 281 0 l 281 431 l -11 972 l 169 972 l 401 518 l 331 518 l 560 972 l 740 972 l 449 431 l 449 0 l 281 0 m 472 1079 q 410 1093 440 1079 q 351 1121 379 1107 q 300 1135 324 1135 q 260 1089 260 1135 l 154 1089 q 180 1197 154 1160 q 258 1235 206 1235 q 321 1221 290 1235 q 379 1193 351 1207 q 431 1179 407 1179 q 471 1225 471 1179 l 576 1225 q 551 1117 576 1156 q 472 1079 526 1079 z "},"Z":{"ha":663,"x_min":10,"x_max":651,"o":"m 10 0 l 428 872 l 461 817 l 65 817 l 65 972 l 646 972 l 231 100 l 197 156 l 651 156 l 651 0 l 10 0 z "},"Ź":{"ha":663,"x_min":10,"x_max":651,"o":"m 10 0 l 428 872 l 461 817 l 65 817 l 65 972 l 646 972 l 231 100 l 197 156 l 651 156 l 651 0 l 10 0 m 247 1054 l 247 1150 l 465 1261 l 465 1118 l 247 1054 z "},"Ž":{"ha":663,"x_min":10,"x_max":651,"o":"m 10 0 l 428 872 l 461 817 l 65 817 l 65 972 l 646 972 l 231 100 l 197 156 l 651 156 l 651 0 l 10 0 z "},"Ż":{"ha":663,"x_min":10,"x_max":651,"o":"m 10 0 l 428 872 l 461 817 l 65 817 l 65 972 l 646 972 l 231 100 l 197 156 l 651 156 l 651 0 l 10 0 m 286 1100 l 286 1235 l 425 1235 l 425 1100 l 286 1100 z "},"Ẓ":{"ha":663,"x_min":10,"x_max":651,"o":"m 10 0 l 428 872 l 461 817 l 65 817 l 65 972 l 646 972 l 231 100 l 197 156 l 651 156 l 651 0 l 10 0 z "},"a":{"ha":588,"x_min":17,"x_max":582,"o":"m 201 -14 q 111 8 153 -14 q 43 72 69 29 q 17 179 17 115 q 41 286 17 242 q 105 361 65 331 q 189 408 144 391 q 275 434 233 426 q 346 443 317 442 q 324 530 346 503 q 247 557 303 557 q 164 543 203 557 q 79 504 124 529 l 68 644 q 180 690 124 675 q 292 706 237 706 q 408 680 358 706 q 486 598 458 654 q 514 449 514 541 l 514 239 q 518 164 514 187 q 532 134 522 140 q 560 128 542 128 l 582 128 l 571 -14 l 497 -14 q 447 -4 472 -14 q 402 24 422 6 q 371 67 382 42 q 298 8 337 29 q 201 -14 259 -14 m 258 118 q 306 131 285 118 q 347 168 328 144 l 347 326 q 273 307 308 322 q 214 266 237 293 q 192 196 192 239 q 211 136 192 153 q 258 118 231 118 z "},"á":{"ha":588,"x_min":17,"x_max":582,"o":"m 201 -14 q 111 8 153 -14 q 43 72 69 29 q 17 179 17 115 q 41 286 17 242 q 105 361 65 331 q 189 408 144 391 q 275 434 233 426 q 346 443 317 442 q 324 530 346 503 q 247 557 303 557 q 164 543 203 557 q 79 504 124 529 l 68 644 q 180 690 124 675 q 292 706 237 706 q 408 680 358 706 q 486 598 458 654 q 514 449 514 541 l 514 239 q 518 164 514 187 q 532 134 522 140 q 560 128 542 128 l 582 128 l 571 -14 l 497 -14 q 447 -4 472 -14 q 402 24 422 6 q 371 67 382 42 q 298 8 337 29 q 201 -14 259 -14 m 258 118 q 306 131 285 118 q 347 168 328 144 l 347 326 q 273 307 308 322 q 214 266 237 293 q 192 196 192 239 q 211 136 192 153 q 258 118 231 118 m 186 803 l 186 913 l 404 1046 l 404 886 l 186 803 z "},"ă":{"ha":588,"x_min":17,"x_max":582,"o":"m 201 -14 q 111 8 153 -14 q 43 72 69 29 q 17 179 17 115 q 41 286 17 242 q 105 361 65 331 q 189 408 144 391 q 275 434 233 426 q 346 443 317 442 q 324 530 346 503 q 247 557 303 557 q 164 543 203 557 q 79 504 124 529 l 68 644 q 180 690 124 675 q 292 706 237 706 q 408 680 358 706 q 486 598 458 654 q 514 449 514 541 l 514 239 q 518 164 514 187 q 532 134 522 140 q 560 128 542 128 l 582 128 l 571 -14 l 497 -14 q 447 -4 472 -14 q 402 24 422 6 q 371 67 382 42 q 298 8 337 29 q 201 -14 259 -14 m 258 118 q 306 131 285 118 q 347 168 328 144 l 347 326 q 273 307 308 322 q 214 266 237 293 q 192 196 192 239 q 211 136 192 153 q 258 118 231 118 m 295 815 q 191 840 235 815 q 125 906 148 865 q 101 997 101 947 l 214 997 q 234 937 214 959 q 294 915 255 915 q 355 937 334 915 q 375 997 375 959 l 488 997 q 465 906 488 947 q 398 840 442 865 q 295 815 355 815 z "},"ắ":{"ha":588,"x_min":17,"x_max":582,"o":"m 201 -14 q 111 8 153 -14 q 43 72 69 29 q 17 179 17 115 q 41 286 17 242 q 105 361 65 331 q 189 408 144 391 q 275 434 233 426 q 346 443 317 442 q 324 530 346 503 q 247 557 303 557 q 164 543 203 557 q 79 504 124 529 l 68 644 q 180 690 124 675 q 292 706 237 706 q 408 680 358 706 q 486 598 458 654 q 514 449 514 541 l 514 239 q 518 164 514 187 q 532 134 522 140 q 560 128 542 128 l 582 128 l 571 -14 l 497 -14 q 447 -4 472 -14 q 402 24 422 6 q 371 67 382 42 q 298 8 337 29 q 201 -14 259 -14 m 258 118 q 306 131 285 118 q 347 168 328 144 l 347 326 q 273 307 308 322 q 214 266 237 293 q 192 196 192 239 q 211 136 192 153 q 258 118 231 118 m 294 785 q 188 809 233 785 q 119 873 143 833 q 94 961 94 913 l 213 961 q 235 900 213 922 q 294 879 257 879 q 354 900 332 879 q 376 961 376 922 l 494 961 q 470 873 494 913 q 402 809 447 833 q 294 785 357 785 m 186 1025 l 186 1121 l 404 1232 l 404 1089 l 186 1025 z "},"ặ":{"ha":588,"x_min":17,"x_max":582,"o":"m 201 -14 q 111 8 153 -14 q 43 72 69 29 q 17 179 17 115 q 41 286 17 242 q 105 361 65 331 q 189 408 144 391 q 275 434 233 426 q 346 443 317 442 q 324 530 346 503 q 247 557 303 557 q 164 543 203 557 q 79 504 124 529 l 68 644 q 180 690 124 675 q 292 706 237 706 q 408 680 358 706 q 486 598 458 654 q 514 449 514 541 l 514 239 q 518 164 514 187 q 532 134 522 140 q 560 128 542 128 l 582 128 l 571 -14 l 497 -14 q 447 -4 472 -14 q 402 24 422 6 q 371 67 382 42 q 298 8 337 29 q 201 -14 259 -14 m 258 118 q 306 131 285 118 q 347 168 328 144 l 347 326 q 273 307 308 322 q 214 266 237 293 q 192 196 192 239 q 211 136 192 153 q 258 118 231 118 m 295 815 q 191 840 235 815 q 125 906 148 865 q 101 997 101 947 l 214 997 q 234 937 214 959 q 294 915 255 915 q 355 937 334 915 q 375 997 375 959 l 488 997 q 465 906 488 947 q 398 840 442 865 q 295 815 355 815 z "},"ằ":{"ha":588,"x_min":17,"x_max":582,"o":"m 201 -14 q 111 8 153 -14 q 43 72 69 29 q 17 179 17 115 q 41 286 17 242 q 105 361 65 331 q 189 408 144 391 q 275 434 233 426 q 346 443 317 442 q 324 530 346 503 q 247 557 303 557 q 164 543 203 557 q 79 504 124 529 l 68 644 q 180 690 124 675 q 292 706 237 706 q 408 680 358 706 q 486 598 458 654 q 514 449 514 541 l 514 239 q 518 164 514 187 q 532 134 522 140 q 560 128 542 128 l 582 128 l 571 -14 l 497 -14 q 447 -4 472 -14 q 402 24 422 6 q 371 67 382 42 q 298 8 337 29 q 201 -14 259 -14 m 258 118 q 306 131 285 118 q 347 168 328 144 l 347 326 q 273 307 308 322 q 214 266 237 293 q 192 196 192 239 q 211 136 192 153 q 258 118 231 118 m 294 785 q 188 809 233 785 q 119 873 143 833 q 94 961 94 913 l 213 961 q 235 900 213 922 q 294 879 257 879 q 354 900 332 879 q 376 961 376 922 l 494 961 q 470 873 494 913 q 402 809 447 833 q 294 785 357 785 m 403 1025 l 185 1089 l 185 1232 l 403 1121 l 403 1025 z "},"ẳ":{"ha":588,"x_min":17,"x_max":582,"o":"m 201 -14 q 111 8 153 -14 q 43 72 69 29 q 17 179 17 115 q 41 286 17 242 q 105 361 65 331 q 189 408 144 391 q 275 434 233 426 q 346 443 317 442 q 324 530 346 503 q 247 557 303 557 q 164 543 203 557 q 79 504 124 529 l 68 644 q 180 690 124 675 q 292 706 237 706 q 408 680 358 706 q 486 598 458 654 q 514 449 514 541 l 514 239 q 518 164 514 187 q 532 134 522 140 q 560 128 542 128 l 582 128 l 571 -14 l 497 -14 q 447 -4 472 -14 q 402 24 422 6 q 371 67 382 42 q 298 8 337 29 q 201 -14 259 -14 m 258 118 q 306 131 285 118 q 347 168 328 144 l 347 326 q 273 307 308 322 q 214 266 237 293 q 192 196 192 239 q 211 136 192 153 q 258 118 231 118 m 294 785 q 188 809 233 785 q 119 873 143 833 q 94 961 94 913 l 213 961 q 235 900 213 922 q 294 879 257 879 q 354 900 332 879 q 376 961 376 922 l 494 961 q 470 873 494 913 q 402 809 447 833 q 294 785 357 785 m 301 982 l 286 1043 q 318 1060 307 1049 q 329 1090 329 1071 q 317 1120 329 1110 q 283 1129 306 1129 q 249 1124 267 1129 q 215 1110 232 1118 l 192 1194 q 240 1209 215 1204 q 292 1214 265 1214 q 382 1186 345 1214 q 418 1107 418 1159 q 389 1030 418 1059 q 301 982 360 1001 z "},"ẵ":{"ha":588,"x_min":17,"x_max":582,"o":"m 201 -14 q 111 8 153 -14 q 43 72 69 29 q 17 179 17 115 q 41 286 17 242 q 105 361 65 331 q 189 408 144 391 q 275 434 233 426 q 346 443 317 442 q 324 530 346 503 q 247 557 303 557 q 164 543 203 557 q 79 504 124 529 l 68 644 q 180 690 124 675 q 292 706 237 706 q 408 680 358 706 q 486 598 458 654 q 514 449 514 541 l 514 239 q 518 164 514 187 q 532 134 522 140 q 560 128 542 128 l 582 128 l 571 -14 l 497 -14 q 447 -4 472 -14 q 402 24 422 6 q 371 67 382 42 q 298 8 337 29 q 201 -14 259 -14 m 258 118 q 306 131 285 118 q 347 168 328 144 l 347 326 q 273 307 308 322 q 214 266 237 293 q 192 196 192 239 q 211 136 192 153 q 258 118 231 118 m 295 785 q 188 809 233 785 q 119 873 143 833 q 94 961 94 913 l 213 961 q 235 900 213 922 q 294 879 257 879 q 354 900 332 879 q 376 961 376 922 l 494 961 q 470 873 494 913 q 402 809 447 833 q 295 785 357 785 m 401 1029 q 339 1043 369 1029 q 281 1071 308 1057 q 229 1085 253 1085 q 189 1039 189 1085 l 83 1039 q 109 1147 83 1110 q 188 1185 135 1185 q 250 1171 219 1185 q 308 1143 281 1157 q 360 1129 336 1129 q 400 1175 400 1129 l 506 1175 q 480 1067 506 1106 q 401 1029 455 1029 z "},"â":{"ha":588,"x_min":17,"x_max":582,"o":"m 201 -14 q 111 8 153 -14 q 43 72 69 29 q 17 179 17 115 q 41 286 17 242 q 105 361 65 331 q 189 408 144 391 q 275 434 233 426 q 346 443 317 442 q 324 530 346 503 q 247 557 303 557 q 164 543 203 557 q 79 504 124 529 l 68 644 q 180 690 124 675 q 292 706 237 706 q 408 680 358 706 q 486 598 458 654 q 514 449 514 541 l 514 239 q 518 164 514 187 q 532 134 522 140 q 560 128 542 128 l 582 128 l 571 -14 l 497 -14 q 447 -4 472 -14 q 402 24 422 6 q 371 67 382 42 q 298 8 337 29 q 201 -14 259 -14 m 258 118 q 306 131 285 118 q 347 168 328 144 l 347 326 q 273 307 308 322 q 214 266 237 293 q 192 196 192 239 q 211 136 192 153 q 258 118 231 118 m 139 783 l 139 893 l 294 1025 l 450 893 l 450 783 l 294 881 l 139 783 z "},"ấ":{"ha":588,"x_min":17,"x_max":624,"o":"m 201 -14 q 111 8 153 -14 q 43 72 69 29 q 17 179 17 115 q 41 286 17 242 q 105 361 65 331 q 189 408 144 391 q 275 434 233 426 q 346 443 317 442 q 324 530 346 503 q 247 557 303 557 q 164 543 203 557 q 79 504 124 529 l 68 644 q 180 690 124 675 q 292 706 237 706 q 408 680 358 706 q 486 598 458 654 q 514 449 514 541 l 514 239 q 518 164 514 187 q 532 134 522 140 q 560 128 542 128 l 582 128 l 571 -14 l 497 -14 q 447 -4 472 -14 q 402 24 422 6 q 371 67 382 42 q 298 8 337 29 q 201 -14 259 -14 m 258 118 q 306 131 285 118 q 347 168 328 144 l 347 326 q 273 307 308 322 q 214 266 237 293 q 192 196 192 239 q 211 136 192 153 q 258 118 231 118 m 125 757 l 125 860 l 294 979 l 464 860 l 464 757 l 294 849 l 125 757 m 392 957 l 469 1133 l 624 1133 l 496 957 l 392 957 z "},"ậ":{"ha":588,"x_min":17,"x_max":582,"o":"m 201 -14 q 111 8 153 -14 q 43 72 69 29 q 17 179 17 115 q 41 286 17 242 q 105 361 65 331 q 189 408 144 391 q 275 434 233 426 q 346 443 317 442 q 324 530 346 503 q 247 557 303 557 q 164 543 203 557 q 79 504 124 529 l 68 644 q 180 690 124 675 q 292 706 237 706 q 408 680 358 706 q 486 598 458 654 q 514 449 514 541 l 514 239 q 518 164 514 187 q 532 134 522 140 q 560 128 542 128 l 582 128 l 571 -14 l 497 -14 q 447 -4 472 -14 q 402 24 422 6 q 371 67 382 42 q 298 8 337 29 q 201 -14 259 -14 m 258 118 q 306 131 285 118 q 347 168 328 144 l 347 326 q 273 307 308 322 q 214 266 237 293 q 192 196 192 239 q 211 136 192 153 q 258 118 231 118 m 139 783 l 139 893 l 294 1025 l 450 893 l 450 783 l 294 881 l 139 783 z "},"ầ":{"ha":588,"x_min":17,"x_max":582,"o":"m 201 -14 q 111 8 153 -14 q 43 72 69 29 q 17 179 17 115 q 41 286 17 242 q 105 361 65 331 q 189 408 144 391 q 275 434 233 426 q 346 443 317 442 q 324 530 346 503 q 247 557 303 557 q 164 543 203 557 q 79 504 124 529 l 68 644 q 180 690 124 675 q 292 706 237 706 q 408 680 358 706 q 486 598 458 654 q 514 449 514 541 l 514 239 q 518 164 514 187 q 532 134 522 140 q 560 128 542 128 l 582 128 l 571 -14 l 497 -14 q 447 -4 472 -14 q 402 24 422 6 q 371 67 382 42 q 298 8 337 29 q 201 -14 259 -14 m 258 118 q 306 131 285 118 q 347 168 328 144 l 347 326 q 273 307 308 322 q 214 266 237 293 q 192 196 192 239 q 211 136 192 153 q 258 118 231 118 m 125 757 l 125 860 l 294 979 l 464 860 l 464 757 l 294 849 l 125 757 m 431 957 l 331 1133 l 474 1133 l 531 957 l 431 957 z "},"ẩ":{"ha":588,"x_min":17,"x_max":582,"o":"m 201 -14 q 111 8 153 -14 q 43 72 69 29 q 17 179 17 115 q 41 286 17 242 q 105 361 65 331 q 189 408 144 391 q 275 434 233 426 q 346 443 317 442 q 324 530 346 503 q 247 557 303 557 q 164 543 203 557 q 79 504 124 529 l 68 644 q 180 690 124 675 q 292 706 237 706 q 408 680 358 706 q 486 598 458 654 q 514 449 514 541 l 514 239 q 518 164 514 187 q 532 134 522 140 q 560 128 542 128 l 582 128 l 571 -14 l 497 -14 q 447 -4 472 -14 q 402 24 422 6 q 371 67 382 42 q 298 8 337 29 q 201 -14 259 -14 m 258 118 q 306 131 285 118 q 347 168 328 144 l 347 326 q 273 307 308 322 q 214 266 237 293 q 192 196 192 239 q 211 136 192 153 q 258 118 231 118 m 125 757 l 125 860 l 294 979 l 464 860 l 464 757 l 294 849 l 125 757 m 428 939 l 413 1000 q 444 1017 433 1006 q 456 1047 456 1028 q 444 1077 456 1067 q 410 1086 432 1086 q 376 1081 393 1086 q 342 1067 358 1075 l 318 1151 q 366 1166 341 1161 q 418 1171 391 1171 q 508 1143 472 1171 q 544 1064 544 1116 q 515 987 544 1016 q 428 939 486 958 z "},"ẫ":{"ha":588,"x_min":17,"x_max":582,"o":"m 201 -14 q 111 8 153 -14 q 43 72 69 29 q 17 179 17 115 q 41 286 17 242 q 105 361 65 331 q 189 408 144 391 q 275 434 233 426 q 346 443 317 442 q 324 530 346 503 q 247 557 303 557 q 164 543 203 557 q 79 504 124 529 l 68 644 q 180 690 124 675 q 292 706 237 706 q 408 680 358 706 q 486 598 458 654 q 514 449 514 541 l 514 239 q 518 164 514 187 q 532 134 522 140 q 560 128 542 128 l 582 128 l 571 -14 l 497 -14 q 447 -4 472 -14 q 402 24 422 6 q 371 67 382 42 q 298 8 337 29 q 201 -14 259 -14 m 258 118 q 306 131 285 118 q 347 168 328 144 l 347 326 q 273 307 308 322 q 214 266 237 293 q 192 196 192 239 q 211 136 192 153 q 258 118 231 118 m 125 757 l 125 860 l 294 979 l 464 860 l 464 757 l 294 849 l 125 757 m 401 1029 q 339 1043 369 1029 q 281 1071 308 1057 q 229 1085 253 1085 q 189 1039 189 1085 l 83 1039 q 109 1147 83 1110 q 188 1185 135 1185 q 250 1171 219 1185 q 308 1143 281 1157 q 360 1129 336 1129 q 400 1175 400 1129 l 506 1175 q 480 1067 506 1106 q 401 1029 455 1029 z "},"ȁ":{"ha":588,"x_min":17,"x_max":582,"o":"m 201 -14 q 111 8 153 -14 q 43 72 69 29 q 17 179 17 115 q 41 286 17 242 q 105 361 65 331 q 189 408 144 391 q 275 434 233 426 q 346 443 317 442 q 324 530 346 503 q 247 557 303 557 q 164 543 203 557 q 79 504 124 529 l 68 644 q 180 690 124 675 q 292 706 237 706 q 408 680 358 706 q 486 598 458 654 q 514 449 514 541 l 514 239 q 518 164 514 187 q 532 134 522 140 q 560 128 542 128 l 582 128 l 571 -14 l 497 -14 q 447 -4 472 -14 q 402 24 422 6 q 371 67 382 42 q 298 8 337 29 q 201 -14 259 -14 m 258 118 q 306 131 285 118 q 347 168 328 144 l 347 326 q 273 307 308 322 q 214 266 237 293 q 192 196 192 239 q 211 136 192 153 q 258 118 231 118 m 460 817 l 360 817 l 240 1063 l 390 1063 l 460 817 m 264 817 l 163 817 l 32 1063 l 183 1063 l 264 817 z "},"ä":{"ha":588,"x_min":17,"x_max":582,"o":"m 201 -14 q 111 8 153 -14 q 43 72 69 29 q 17 179 17 115 q 41 286 17 242 q 105 361 65 331 q 189 408 144 391 q 275 434 233 426 q 346 443 317 442 q 324 530 346 503 q 247 557 303 557 q 164 543 203 557 q 79 504 124 529 l 68 644 q 180 690 124 675 q 292 706 237 706 q 408 680 358 706 q 486 598 458 654 q 514 449 514 541 l 514 239 q 518 164 514 187 q 532 134 522 140 q 560 128 542 128 l 582 128 l 571 -14 l 497 -14 q 447 -4 472 -14 q 402 24 422 6 q 371 67 382 42 q 298 8 337 29 q 201 -14 259 -14 m 258 118 q 306 131 285 118 q 347 168 328 144 l 347 326 q 273 307 308 322 q 214 266 237 293 q 192 196 192 239 q 211 136 192 153 q 258 118 231 118 m 346 821 l 346 946 l 474 946 l 474 821 l 346 821 m 115 821 l 115 946 l 243 946 l 243 821 l 115 821 z "},"ạ":{"ha":588,"x_min":17,"x_max":582,"o":"m 201 -14 q 111 8 153 -14 q 43 72 69 29 q 17 179 17 115 q 41 286 17 242 q 105 361 65 331 q 189 408 144 391 q 275 434 233 426 q 346 443 317 442 q 324 530 346 503 q 247 557 303 557 q 164 543 203 557 q 79 504 124 529 l 68 644 q 180 690 124 675 q 292 706 237 706 q 408 680 358 706 q 486 598 458 654 q 514 449 514 541 l 514 239 q 518 164 514 187 q 532 134 522 140 q 560 128 542 128 l 582 128 l 571 -14 l 497 -14 q 447 -4 472 -14 q 402 24 422 6 q 371 67 382 42 q 298 8 337 29 q 201 -14 259 -14 m 258 118 q 306 131 285 118 q 347 168 328 144 l 347 326 q 273 307 308 322 q 214 266 237 293 q 192 196 192 239 q 211 136 192 153 q 258 118 231 118 z "},"à":{"ha":588,"x_min":17,"x_max":582,"o":"m 201 -14 q 111 8 153 -14 q 43 72 69 29 q 17 179 17 115 q 41 286 17 242 q 105 361 65 331 q 189 408 144 391 q 275 434 233 426 q 346 443 317 442 q 324 530 346 503 q 247 557 303 557 q 164 543 203 557 q 79 504 124 529 l 68 644 q 180 690 124 675 q 292 706 237 706 q 408 680 358 706 q 486 598 458 654 q 514 449 514 541 l 514 239 q 518 164 514 187 q 532 134 522 140 q 560 128 542 128 l 582 128 l 571 -14 l 497 -14 q 447 -4 472 -14 q 402 24 422 6 q 371 67 382 42 q 298 8 337 29 q 201 -14 259 -14 m 258 118 q 306 131 285 118 q 347 168 328 144 l 347 326 q 273 307 308 322 q 214 266 237 293 q 192 196 192 239 q 211 136 192 153 q 258 118 231 118 m 403 800 l 185 889 l 185 1054 l 403 915 l 403 800 z "},"ả":{"ha":588,"x_min":17,"x_max":582,"o":"m 201 -14 q 111 8 153 -14 q 43 72 69 29 q 17 179 17 115 q 41 286 17 242 q 105 361 65 331 q 189 408 144 391 q 275 434 233 426 q 346 443 317 442 q 324 530 346 503 q 247 557 303 557 q 164 543 203 557 q 79 504 124 529 l 68 644 q 180 690 124 675 q 292 706 237 706 q 408 680 358 706 q 486 598 458 654 q 514 449 514 541 l 514 239 q 518 164 514 187 q 532 134 522 140 q 560 128 542 128 l 582 128 l 571 -14 l 497 -14 q 447 -4 472 -14 q 402 24 422 6 q 371 67 382 42 q 298 8 337 29 q 201 -14 259 -14 m 258 118 q 306 131 285 118 q 347 168 328 144 l 347 326 q 273 307 308 322 q 214 266 237 293 q 192 196 192 239 q 211 136 192 153 q 258 118 231 118 m 317 742 l 265 793 q 302 837 288 817 q 315 882 315 857 q 302 916 315 905 q 267 928 290 928 q 234 922 251 928 q 201 907 217 917 l 178 989 q 223 1004 199 999 q 272 1010 247 1010 q 362 978 326 1010 q 399 888 399 946 q 377 808 399 842 q 317 742 356 775 z "},"ȃ":{"ha":588,"x_min":17,"x_max":582,"o":"m 201 -14 q 111 8 153 -14 q 43 72 69 29 q 17 179 17 115 q 41 286 17 242 q 105 361 65 331 q 189 408 144 391 q 275 434 233 426 q 346 443 317 442 q 324 530 346 503 q 247 557 303 557 q 164 543 203 557 q 79 504 124 529 l 68 644 q 180 690 124 675 q 292 706 237 706 q 408 680 358 706 q 486 598 458 654 q 514 449 514 541 l 514 239 q 518 164 514 187 q 532 134 522 140 q 560 128 542 128 l 582 128 l 571 -14 l 497 -14 q 447 -4 472 -14 q 402 24 422 6 q 371 67 382 42 q 298 8 337 29 q 201 -14 259 -14 m 258 118 q 306 131 285 118 q 347 168 328 144 l 347 326 q 273 307 308 322 q 214 266 237 293 q 192 196 192 239 q 211 136 192 153 q 258 118 231 118 m 294 994 q 406 970 359 994 q 477 905 452 946 q 501 815 501 865 l 383 815 q 359 871 383 852 q 295 890 335 890 q 230 871 254 890 q 206 815 206 852 l 88 815 q 113 905 88 865 q 184 970 138 946 q 294 994 231 994 z "},"ā":{"ha":588,"x_min":17,"x_max":582,"o":"m 201 -14 q 111 8 153 -14 q 43 72 69 29 q 17 179 17 115 q 41 286 17 242 q 105 361 65 331 q 189 408 144 391 q 275 434 233 426 q 346 443 317 442 q 324 530 346 503 q 247 557 303 557 q 164 543 203 557 q 79 504 124 529 l 68 644 q 180 690 124 675 q 292 706 237 706 q 408 680 358 706 q 486 598 458 654 q 514 449 514 541 l 514 239 q 518 164 514 187 q 532 134 522 140 q 560 128 542 128 l 582 128 l 571 -14 l 497 -14 q 447 -4 472 -14 q 402 24 422 6 q 371 67 382 42 q 298 8 337 29 q 201 -14 259 -14 m 258 118 q 306 131 285 118 q 347 168 328 144 l 347 326 q 273 307 308 322 q 214 266 237 293 q 192 196 192 239 q 211 136 192 153 q 258 118 231 118 m 94 838 l 94 944 l 494 944 l 494 838 l 94 838 z "},"ą":{"ha":588,"x_min":17,"x_max":626,"o":"m 201 -14 q 111 8 153 -14 q 43 72 69 29 q 17 179 17 115 q 41 286 17 242 q 105 361 65 331 q 189 408 144 391 q 275 434 233 426 q 346 443 317 442 q 324 530 346 503 q 247 557 303 557 q 164 543 203 557 q 79 504 124 529 l 68 644 q 180 690 124 675 q 292 706 237 706 q 408 680 358 706 q 486 598 458 654 q 514 449 514 541 l 514 239 q 518 164 514 187 q 532 134 522 140 q 560 128 542 128 l 582 128 l 571 -14 l 497 -14 q 447 -4 472 -14 q 402 24 422 6 q 371 67 382 42 q 298 8 337 29 q 201 -14 259 -14 m 258 118 q 306 131 285 118 q 347 168 328 144 l 347 326 q 273 307 308 322 q 214 266 237 293 q 192 196 192 239 q 211 136 192 153 q 258 118 231 118 m 474 0 l 560 0 q 494 -72 522 -36 q 467 -144 467 -108 q 485 -192 467 -176 q 532 -208 503 -208 q 569 -203 552 -208 q 603 -192 586 -199 l 626 -268 q 580 -286 607 -278 q 517 -293 553 -293 q 418 -262 458 -293 q 378 -174 378 -232 q 407 -79 378 -120 q 474 0 435 -37 z "},"å":{"ha":588,"x_min":17,"x_max":582,"o":"m 201 -14 q 111 8 153 -14 q 43 72 69 29 q 17 179 17 115 q 41 286 17 242 q 105 361 65 331 q 189 408 144 391 q 275 434 233 426 q 346 443 317 442 q 324 530 346 503 q 247 557 303 557 q 164 543 203 557 q 79 504 124 529 l 68 644 q 180 690 124 675 q 292 706 237 706 q 408 680 358 706 q 486 598 458 654 q 514 449 514 541 l 514 239 q 518 164 514 187 q 532 134 522 140 q 560 128 542 128 l 582 128 l 571 -14 l 497 -14 q 447 -4 472 -14 q 402 24 422 6 q 371 67 382 42 q 298 8 337 29 q 201 -14 259 -14 m 258 118 q 306 131 285 118 q 347 168 328 144 l 347 326 q 273 307 308 322 q 214 266 237 293 q 192 196 192 239 q 211 136 192 153 q 258 118 231 118 m 294 792 q 197 832 230 792 q 164 926 164 872 q 197 1022 164 982 q 294 1063 230 1063 q 393 1022 360 1063 q 425 926 425 982 q 393 832 425 872 q 294 792 360 792 m 294 861 q 332 879 319 861 q 344 926 344 897 q 332 973 344 955 q 294 992 319 992 q 257 973 269 992 q 244 926 244 955 q 257 879 244 897 q 294 861 269 861 z "},"ǻ":{"ha":588,"x_min":17,"x_max":582,"o":"m 201 -14 q 111 8 153 -14 q 43 72 69 29 q 17 179 17 115 q 41 286 17 242 q 105 361 65 331 q 189 408 144 391 q 275 434 233 426 q 346 443 317 442 q 324 530 346 503 q 247 557 303 557 q 164 543 203 557 q 79 504 124 529 l 68 644 q 180 690 124 675 q 292 706 237 706 q 408 680 358 706 q 486 598 458 654 q 514 449 514 541 l 514 239 q 518 164 514 187 q 532 134 522 140 q 560 128 542 128 l 582 128 l 571 -14 l 497 -14 q 447 -4 472 -14 q 402 24 422 6 q 371 67 382 42 q 298 8 337 29 q 201 -14 259 -14 m 258 118 q 306 131 285 118 q 347 168 328 144 l 347 326 q 273 307 308 322 q 214 266 237 293 q 192 196 192 239 q 211 136 192 153 q 258 118 231 118 m 294 792 q 197 832 230 792 q 164 926 164 872 q 197 1022 164 982 q 294 1063 230 1063 q 393 1022 360 1063 q 425 926 425 982 q 393 832 425 872 q 294 792 360 792 m 294 861 q 332 879 319 861 q 344 926 344 897 q 332 973 344 955 q 294 992 319 992 q 257 973 269 992 q 244 926 244 955 q 257 879 244 897 q 294 861 269 861 m 186 1117 l 186 1213 l 404 1324 l 404 1181 l 186 1117 z "},"ã":{"ha":588,"x_min":17,"x_max":582,"o":"m 201 -14 q 111 8 153 -14 q 43 72 69 29 q 17 179 17 115 q 41 286 17 242 q 105 361 65 331 q 189 408 144 391 q 275 434 233 426 q 346 443 317 442 q 324 530 346 503 q 247 557 303 557 q 164 543 203 557 q 79 504 124 529 l 68 644 q 180 690 124 675 q 292 706 237 706 q 408 680 358 706 q 486 598 458 654 q 514 449 514 541 l 514 239 q 518 164 514 187 q 532 134 522 140 q 560 128 542 128 l 582 128 l 571 -14 l 497 -14 q 447 -4 472 -14 q 402 24 422 6 q 371 67 382 42 q 298 8 337 29 q 201 -14 259 -14 m 258 118 q 306 131 285 118 q 347 168 328 144 l 347 326 q 273 307 308 322 q 214 266 237 293 q 192 196 192 239 q 211 136 192 153 q 258 118 231 118 m 390 803 q 329 818 355 803 q 282 849 303 833 q 236 864 260 864 q 197 814 197 864 l 85 814 q 117 939 88 895 q 199 982 146 982 q 260 967 234 982 q 307 936 285 951 q 353 921 329 921 q 392 971 392 921 l 504 971 q 473 846 501 890 q 390 803 444 803 z "},"æ":{"ha":943,"x_min":17,"x_max":908,"o":"m 206 -14 q 113 8 156 -14 q 43 72 69 29 q 17 179 17 115 q 52 301 17 253 q 143 376 87 349 q 264 415 199 403 q 386 426 328 426 l 740 426 q 720 528 740 486 q 643 569 699 569 q 554 515 584 569 q 524 354 524 460 q 548 220 524 272 q 611 146 572 169 q 699 122 651 122 q 797 138 752 122 q 878 178 842 154 l 882 32 q 795 -1 846 13 q 681 -14 744 -14 q 498 36 571 -14 q 390 167 426 85 q 354 347 354 249 l 353 447 q 328 531 352 505 q 247 557 303 557 q 164 543 203 557 q 79 504 124 529 l 68 644 q 180 690 124 675 q 292 706 237 706 q 408 673 358 706 q 482 568 457 641 l 429 567 q 526 668 466 631 q 668 706 587 706 q 804 665 751 706 q 883 557 857 625 q 908 406 908 489 q 906 359 908 382 q 900 310 904 336 l 382 310 q 245 281 298 310 q 192 196 192 252 q 211 136 192 153 q 258 118 231 118 q 330 138 295 118 q 396 196 364 158 l 446 113 q 341 21 396 56 q 206 -14 287 -14 z "},"ǽ":{"ha":943,"x_min":17,"x_max":908,"o":"m 206 -14 q 113 8 156 -14 q 43 72 69 29 q 17 179 17 115 q 52 301 17 253 q 143 376 87 349 q 264 415 199 403 q 386 426 328 426 l 740 426 q 720 528 740 486 q 643 569 699 569 q 554 515 584 569 q 524 354 524 460 q 548 220 524 272 q 611 146 572 169 q 699 122 651 122 q 797 138 752 122 q 878 178 842 154 l 882 32 q 795 -1 846 13 q 681 -14 744 -14 q 498 36 571 -14 q 390 167 426 85 q 354 347 354 249 l 353 447 q 328 531 352 505 q 247 557 303 557 q 164 543 203 557 q 79 504 124 529 l 68 644 q 180 690 124 675 q 292 706 237 706 q 408 673 358 706 q 482 568 457 641 l 429 567 q 526 668 466 631 q 668 706 587 706 q 804 665 751 706 q 883 557 857 625 q 908 406 908 489 q 906 359 908 382 q 900 310 904 336 l 382 310 q 245 281 298 310 q 192 196 192 252 q 211 136 192 153 q 258 118 231 118 q 330 138 295 118 q 396 196 364 158 l 446 113 q 341 21 396 56 q 206 -14 287 -14 m 360 803 l 360 913 l 578 1046 l 578 886 l 360 803 z "},"b":{"ha":685,"x_min":69,"x_max":664,"o":"m 396 -14 q 280 14 331 -14 q 192 89 229 41 l 233 118 l 225 0 l 69 0 l 69 1042 l 236 1042 l 236 579 l 200 606 q 282 678 233 651 q 396 706 331 706 q 543 656 483 706 q 633 525 603 607 q 664 346 664 443 q 633 167 664 249 q 543 35 603 85 q 396 -14 483 -14 m 364 122 q 435 151 406 122 q 479 230 464 179 q 494 346 494 280 q 479 462 494 412 q 435 541 464 513 q 364 569 406 569 q 286 541 317 569 q 242 462 256 513 q 228 346 228 412 q 242 230 228 280 q 286 151 256 179 q 364 122 317 122 z "},"c":{"ha":535,"x_min":33,"x_max":503,"o":"m 361 -14 q 181 35 253 -14 q 70 166 108 84 q 33 346 33 247 q 70 526 33 444 q 181 657 107 608 q 367 706 255 706 q 442 699 408 706 q 500 682 476 692 l 488 546 q 441 563 466 556 q 386 569 415 569 q 251 507 299 569 q 203 346 203 445 q 250 187 203 251 q 385 122 297 122 q 441 128 415 122 q 492 147 467 135 l 503 14 q 440 -6 477 1 q 361 -14 402 -14 z "},"ć":{"ha":535,"x_min":33,"x_max":503,"o":"m 361 -14 q 181 35 253 -14 q 70 166 108 84 q 33 346 33 247 q 70 526 33 444 q 181 657 107 608 q 367 706 255 706 q 442 699 408 706 q 500 682 476 692 l 488 546 q 441 563 466 556 q 386 569 415 569 q 251 507 299 569 q 203 346 203 445 q 250 187 203 251 q 385 122 297 122 q 441 128 415 122 q 492 147 467 135 l 503 14 q 440 -6 477 1 q 361 -14 402 -14 m 218 803 l 218 913 l 436 1046 l 436 886 l 218 803 z "},"č":{"ha":535,"x_min":33,"x_max":503,"o":"m 361 -14 q 181 35 253 -14 q 70 166 108 84 q 33 346 33 247 q 70 526 33 444 q 181 657 107 608 q 367 706 255 706 q 442 699 408 706 q 500 682 476 692 l 488 546 q 441 563 466 556 q 386 569 415 569 q 251 507 299 569 q 203 346 203 445 q 250 187 203 251 q 385 122 297 122 q 441 128 415 122 q 492 147 467 135 l 503 14 q 440 -6 477 1 q 361 -14 402 -14 m 326 783 l 171 914 l 171 1024 l 326 926 l 482 1024 l 482 914 l 326 783 z "},"ç":{"ha":535,"x_min":33,"x_max":503,"o":"m 361 -14 q 181 35 253 -14 q 70 166 108 84 q 33 346 33 247 q 70 526 33 444 q 181 657 107 608 q 367 706 255 706 q 442 699 408 706 q 500 682 476 692 l 488 546 q 441 563 466 556 q 386 569 415 569 q 251 507 299 569 q 203 346 203 445 q 250 187 203 251 q 385 122 297 122 q 441 128 415 122 q 492 147 467 135 l 503 14 q 440 -6 477 1 q 361 -14 402 -14 m 356 -110 l 313 -86 q 336 -81 324 -83 q 360 -79 347 -79 q 445 -110 414 -79 q 476 -196 476 -140 q 434 -298 476 -263 q 332 -332 392 -332 q 275 -326 300 -332 q 232 -314 251 -321 l 258 -237 q 292 -248 274 -244 q 328 -253 309 -253 q 376 -239 358 -253 q 393 -200 393 -226 q 378 -160 393 -174 q 333 -147 363 -147 q 305 -150 319 -147 q 278 -157 292 -153 l 317 0 l 389 0 l 356 -110 z "},"ḉ":{"ha":535,"x_min":33,"x_max":503,"o":"m 361 -14 q 181 35 253 -14 q 70 166 108 84 q 33 346 33 247 q 70 526 33 444 q 181 657 107 608 q 367 706 255 706 q 442 699 408 706 q 500 682 476 692 l 488 546 q 441 563 466 556 q 386 569 415 569 q 251 507 299 569 q 203 346 203 445 q 250 187 203 251 q 385 122 297 122 q 441 128 415 122 q 492 147 467 135 l 503 14 q 440 -6 477 1 q 361 -14 402 -14 m 356 -110 l 313 -86 q 336 -81 324 -83 q 360 -79 347 -79 q 445 -110 414 -79 q 476 -196 476 -140 q 434 -298 476 -263 q 332 -332 392 -332 q 275 -326 300 -332 q 232 -314 251 -321 l 258 -237 q 292 -248 274 -244 q 328 -253 309 -253 q 376 -239 358 -253 q 393 -200 393 -226 q 378 -160 393 -174 q 333 -147 363 -147 q 305 -150 319 -147 q 278 -157 292 -153 l 317 0 l 389 0 l 356 -110 m 218 803 l 218 913 l 436 1046 l 436 886 l 218 803 z "},"ĉ":{"ha":535,"x_min":33,"x_max":503,"o":"m 361 -14 q 181 35 253 -14 q 70 166 108 84 q 33 346 33 247 q 70 526 33 444 q 181 657 107 608 q 367 706 255 706 q 442 699 408 706 q 500 682 476 692 l 488 546 q 441 563 466 556 q 386 569 415 569 q 251 507 299 569 q 203 346 203 445 q 250 187 203 251 q 385 122 297 122 q 441 128 415 122 q 492 147 467 135 l 503 14 q 440 -6 477 1 q 361 -14 402 -14 m 171 783 l 171 893 l 326 1025 l 482 893 l 482 783 l 326 881 l 171 783 z "},"ċ":{"ha":535,"x_min":33,"x_max":503,"o":"m 361 -14 q 181 35 253 -14 q 70 166 108 84 q 33 346 33 247 q 70 526 33 444 q 181 657 107 608 q 367 706 255 706 q 442 699 408 706 q 500 682 476 692 l 488 546 q 441 563 466 556 q 386 569 415 569 q 251 507 299 569 q 203 346 203 445 q 250 187 203 251 q 385 122 297 122 q 441 128 415 122 q 492 147 467 135 l 503 14 q 440 -6 477 1 q 361 -14 402 -14 m 260 836 l 260 971 l 393 971 l 393 836 l 260 836 z "},"d":{"ha":685,"x_min":21,"x_max":615,"o":"m 296 -14 q 145 35 207 -14 q 52 167 84 85 q 21 346 21 249 q 52 525 21 443 q 145 656 84 607 q 296 706 207 706 q 406 680 360 706 q 485 615 451 655 l 449 579 l 449 1042 l 615 1042 l 615 0 l 458 0 l 450 118 l 494 82 q 408 12 453 38 q 296 -14 364 -14 m 321 122 q 398 151 368 122 q 443 230 428 179 q 457 346 457 280 q 443 462 457 412 q 398 541 428 513 q 321 569 368 569 q 250 541 279 569 q 206 462 221 513 q 190 346 190 412 q 206 230 190 280 q 250 151 221 179 q 321 122 279 122 z "},"ð":{"ha":613,"x_min":25,"x_max":569,"o":"m 293 -18 q 149 21 209 -18 q 57 128 89 60 q 25 286 25 197 q 54 440 25 371 q 140 551 83 510 q 282 592 197 592 q 385 568 344 592 q 451 511 426 544 l 400 482 q 362 657 400 579 q 258 792 324 735 q 111 882 193 849 l 146 974 q 314 888 237 944 q 449 752 392 832 q 538 570 506 672 q 569 349 569 469 q 551 190 569 258 q 496 75 532 122 q 409 6 460 29 q 293 -18 358 -18 m 301 122 q 375 170 349 122 q 400 292 400 218 q 374 411 400 366 q 297 457 349 457 q 240 436 263 457 q 206 378 217 415 q 194 292 194 341 q 220 170 194 218 q 301 122 247 122 m 167 682 l 111 765 l 443 972 l 497 889 l 167 682 z "},"ď":{"ha":789,"x_min":21,"x_max":803,"o":"m 296 -14 q 145 35 207 -14 q 52 167 84 85 q 21 346 21 249 q 52 525 21 443 q 145 656 84 607 q 296 706 207 706 q 406 680 360 706 q 485 615 451 655 l 449 579 l 449 1042 l 615 1042 l 615 0 l 458 0 l 450 118 l 494 82 q 408 12 453 38 q 296 -14 364 -14 m 321 122 q 398 151 368 122 q 443 230 428 179 q 457 346 457 280 q 443 462 457 412 q 398 541 428 513 q 321 569 368 569 q 250 541 279 569 q 206 462 221 513 q 190 346 190 412 q 206 230 190 280 q 250 151 221 179 q 321 122 279 122 m 671 796 l 671 1042 l 803 1042 l 763 796 l 671 796 z "},"đ":{"ha":699,"x_min":21,"x_max":699,"o":"m 254 815 l 254 931 l 699 931 l 699 815 l 254 815 m 296 -14 q 145 35 207 -14 q 52 167 84 85 q 21 346 21 249 q 52 525 21 443 q 145 656 84 607 q 296 706 207 706 q 406 680 360 706 q 485 615 451 655 l 449 579 l 449 1042 l 615 1042 l 615 0 l 458 0 l 450 118 l 494 82 q 408 12 453 38 q 296 -14 364 -14 m 321 122 q 398 151 368 122 q 443 230 428 179 q 457 346 457 280 q 443 462 457 412 q 398 541 428 513 q 321 569 368 569 q 250 541 279 569 q 206 462 221 513 q 190 346 190 412 q 206 230 190 280 q 250 151 221 179 q 321 122 279 122 z "},"ḍ":{"ha":685,"x_min":21,"x_max":615,"o":"m 296 -14 q 145 35 207 -14 q 52 167 84 85 q 21 346 21 249 q 52 525 21 443 q 145 656 84 607 q 296 706 207 706 q 406 680 360 706 q 485 615 451 655 l 449 579 l 449 1042 l 615 1042 l 615 0 l 458 0 l 450 118 l 494 82 q 408 12 453 38 q 296 -14 364 -14 m 321 122 q 398 151 368 122 q 443 230 428 179 q 457 346 457 280 q 443 462 457 412 q 398 541 428 513 q 321 569 368 569 q 250 541 279 569 q 206 462 221 513 q 190 346 190 412 q 206 230 190 280 q 250 151 221 179 q 321 122 279 122 z "},"ḏ":{"ha":685,"x_min":21,"x_max":615,"o":"m 296 -14 q 145 35 207 -14 q 52 167 84 85 q 21 346 21 249 q 52 525 21 443 q 145 656 84 607 q 296 706 207 706 q 406 680 360 706 q 485 615 451 655 l 449 579 l 449 1042 l 615 1042 l 615 0 l 458 0 l 450 118 l 494 82 q 408 12 453 38 q 296 -14 364 -14 m 321 122 q 398 151 368 122 q 443 230 428 179 q 457 346 457 280 q 443 462 457 412 q 398 541 428 513 q 321 569 368 569 q 250 541 279 569 q 206 462 221 513 q 190 346 190 412 q 206 230 190 280 q 250 151 221 179 q 321 122 279 122 z "},"ǆ":{"ha":1242,"x_min":21,"x_max":1221,"o":"m 296 -14 q 145 35 207 -14 q 52 167 84 85 q 21 346 21 249 q 52 525 21 443 q 145 656 84 607 q 296 706 207 706 q 406 680 360 706 q 485 615 451 655 l 449 579 l 449 1042 l 615 1042 l 615 0 l 458 0 l 450 118 l 494 82 q 408 12 453 38 q 296 -14 364 -14 m 321 122 q 398 151 368 122 q 443 230 428 179 q 457 346 457 280 q 443 462 457 412 q 398 541 428 513 q 321 569 368 569 q 250 541 279 569 q 206 462 221 513 q 190 346 190 412 q 206 230 190 280 q 250 151 221 179 q 321 122 279 122 z "},"e":{"ha":619,"x_min":31,"x_max":585,"o":"m 357 -14 q 175 36 247 -14 q 66 167 102 85 q 31 347 31 249 q 65 529 31 448 q 166 658 99 610 q 331 706 233 706 q 467 668 410 706 q 554 561 524 630 q 585 399 585 492 q 583 356 585 377 q 576 310 581 334 l 202 310 q 233 202 209 244 q 295 141 258 160 q 375 122 332 122 q 473 138 428 122 q 554 178 518 154 l 558 32 q 472 -1 522 13 q 357 -14 421 -14 m 204 426 l 417 426 q 408 498 417 466 q 378 550 399 531 q 319 569 357 569 q 242 533 271 569 q 204 426 214 497 z "},"é":{"ha":619,"x_min":31,"x_max":585,"o":"m 357 -14 q 175 36 247 -14 q 66 167 102 85 q 31 347 31 249 q 65 529 31 448 q 166 658 99 610 q 331 706 233 706 q 467 668 410 706 q 554 561 524 630 q 585 399 585 492 q 583 356 585 377 q 576 310 581 334 l 202 310 q 233 202 209 244 q 295 141 258 160 q 375 122 332 122 q 473 138 428 122 q 554 178 518 154 l 558 32 q 472 -1 522 13 q 357 -14 421 -14 m 204 426 l 417 426 q 408 498 417 466 q 378 550 399 531 q 319 569 357 569 q 242 533 271 569 q 204 426 214 497 m 222 803 l 222 913 l 440 1046 l 440 886 l 222 803 z "},"ĕ":{"ha":619,"x_min":31,"x_max":585,"o":"m 357 -14 q 175 36 247 -14 q 66 167 102 85 q 31 347 31 249 q 65 529 31 448 q 166 658 99 610 q 331 706 233 706 q 467 668 410 706 q 554 561 524 630 q 585 399 585 492 q 583 356 585 377 q 576 310 581 334 l 202 310 q 233 202 209 244 q 295 141 258 160 q 375 122 332 122 q 473 138 428 122 q 554 178 518 154 l 558 32 q 472 -1 522 13 q 357 -14 421 -14 m 204 426 l 417 426 q 408 498 417 466 q 378 550 399 531 q 319 569 357 569 q 242 533 271 569 q 204 426 214 497 m 331 815 q 227 840 271 815 q 161 906 184 865 q 138 997 138 947 l 250 997 q 270 937 250 959 q 331 915 291 915 q 391 937 370 915 q 411 997 411 959 l 524 997 q 501 906 524 947 q 434 840 478 865 q 331 815 391 815 z "},"ě":{"ha":619,"x_min":31,"x_max":585,"o":"m 357 -14 q 175 36 247 -14 q 66 167 102 85 q 31 347 31 249 q 65 529 31 448 q 166 658 99 610 q 331 706 233 706 q 467 668 410 706 q 554 561 524 630 q 585 399 585 492 q 583 356 585 377 q 576 310 581 334 l 202 310 q 233 202 209 244 q 295 141 258 160 q 375 122 332 122 q 473 138 428 122 q 554 178 518 154 l 558 32 q 472 -1 522 13 q 357 -14 421 -14 m 204 426 l 417 426 q 408 498 417 466 q 378 550 399 531 q 319 569 357 569 q 242 533 271 569 q 204 426 214 497 z "},"ḝ":{"ha":619,"x_min":31,"x_max":585,"o":"m 357 -14 q 175 36 247 -14 q 66 167 102 85 q 31 347 31 249 q 65 529 31 448 q 166 658 99 610 q 331 706 233 706 q 467 668 410 706 q 554 561 524 630 q 585 399 585 492 q 583 356 585 377 q 576 310 581 334 l 202 310 q 233 202 209 244 q 295 141 258 160 q 375 122 332 122 q 473 138 428 122 q 554 178 518 154 l 558 32 q 472 -1 522 13 q 357 -14 421 -14 m 204 426 l 417 426 q 408 498 417 466 q 378 550 399 531 q 319 569 357 569 q 242 533 271 569 q 204 426 214 497 m 371 -110 l 328 -86 q 351 -81 340 -83 q 375 -79 363 -79 q 460 -110 429 -79 q 492 -196 492 -140 q 450 -298 492 -263 q 347 -332 408 -332 q 291 -326 315 -332 q 247 -314 266 -321 l 274 -237 q 307 -248 290 -244 q 343 -253 324 -253 q 391 -239 374 -253 q 408 -200 408 -226 q 393 -160 408 -174 q 349 -147 378 -147 q 320 -150 334 -147 q 293 -157 307 -153 l 332 0 l 404 0 l 371 -110 m 331 815 q 227 840 271 815 q 161 906 184 865 q 138 997 138 947 l 250 997 q 270 937 250 959 q 331 915 291 915 q 391 937 370 915 q 411 997 411 959 l 524 997 q 501 906 524 947 q 434 840 478 865 q 331 815 391 815 z "},"ê":{"ha":619,"x_min":31,"x_max":585,"o":"m 357 -14 q 175 36 247 -14 q 66 167 102 85 q 31 347 31 249 q 65 529 31 448 q 166 658 99 610 q 331 706 233 706 q 467 668 410 706 q 554 561 524 630 q 585 399 585 492 q 583 356 585 377 q 576 310 581 334 l 202 310 q 233 202 209 244 q 295 141 258 160 q 375 122 332 122 q 473 138 428 122 q 554 178 518 154 l 558 32 q 472 -1 522 13 q 357 -14 421 -14 m 204 426 l 417 426 q 408 498 417 466 q 378 550 399 531 q 319 569 357 569 q 242 533 271 569 q 204 426 214 497 m 175 783 l 175 893 l 331 1025 l 486 893 l 486 783 l 331 881 l 175 783 z "},"ế":{"ha":619,"x_min":31,"x_max":660,"o":"m 357 -14 q 175 36 247 -14 q 66 167 102 85 q 31 347 31 249 q 65 529 31 448 q 166 658 99 610 q 331 706 233 706 q 467 668 410 706 q 554 561 524 630 q 585 399 585 492 q 583 356 585 377 q 576 310 581 334 l 202 310 q 233 202 209 244 q 295 141 258 160 q 375 122 332 122 q 473 138 428 122 q 554 178 518 154 l 558 32 q 472 -1 522 13 q 357 -14 421 -14 m 204 426 l 417 426 q 408 498 417 466 q 378 550 399 531 q 319 569 357 569 q 242 533 271 569 q 204 426 214 497 m 161 757 l 161 860 l 331 979 l 500 860 l 500 757 l 331 849 l 161 757 m 428 957 l 506 1133 l 660 1133 l 532 957 l 428 957 z "},"ệ":{"ha":619,"x_min":31,"x_max":585,"o":"m 357 -14 q 175 36 247 -14 q 66 167 102 85 q 31 347 31 249 q 65 529 31 448 q 166 658 99 610 q 331 706 233 706 q 467 668 410 706 q 554 561 524 630 q 585 399 585 492 q 583 356 585 377 q 576 310 581 334 l 202 310 q 233 202 209 244 q 295 141 258 160 q 375 122 332 122 q 473 138 428 122 q 554 178 518 154 l 558 32 q 472 -1 522 13 q 357 -14 421 -14 m 204 426 l 417 426 q 408 498 417 466 q 378 550 399 531 q 319 569 357 569 q 242 533 271 569 q 204 426 214 497 m 175 783 l 175 893 l 331 1025 l 486 893 l 486 783 l 331 881 l 175 783 z "},"ề":{"ha":619,"x_min":31,"x_max":585,"o":"m 357 -14 q 175 36 247 -14 q 66 167 102 85 q 31 347 31 249 q 65 529 31 448 q 166 658 99 610 q 331 706 233 706 q 467 668 410 706 q 554 561 524 630 q 585 399 585 492 q 583 356 585 377 q 576 310 581 334 l 202 310 q 233 202 209 244 q 295 141 258 160 q 375 122 332 122 q 473 138 428 122 q 554 178 518 154 l 558 32 q 472 -1 522 13 q 357 -14 421 -14 m 204 426 l 417 426 q 408 498 417 466 q 378 550 399 531 q 319 569 357 569 q 242 533 271 569 q 204 426 214 497 m 161 757 l 161 860 l 331 979 l 500 860 l 500 757 l 331 849 l 161 757 m 467 957 l 367 1133 l 510 1133 l 567 957 l 467 957 z "},"ể":{"ha":619,"x_min":31,"x_max":585,"o":"m 357 -14 q 175 36 247 -14 q 66 167 102 85 q 31 347 31 249 q 65 529 31 448 q 166 658 99 610 q 331 706 233 706 q 467 668 410 706 q 554 561 524 630 q 585 399 585 492 q 583 356 585 377 q 576 310 581 334 l 202 310 q 233 202 209 244 q 295 141 258 160 q 375 122 332 122 q 473 138 428 122 q 554 178 518 154 l 558 32 q 472 -1 522 13 q 357 -14 421 -14 m 204 426 l 417 426 q 408 498 417 466 q 378 550 399 531 q 319 569 357 569 q 242 533 271 569 q 204 426 214 497 m 161 757 l 161 860 l 331 979 l 500 860 l 500 757 l 331 849 l 161 757 m 464 939 l 449 1000 q 481 1017 469 1006 q 492 1047 492 1028 q 480 1077 492 1067 q 446 1086 468 1086 q 412 1081 429 1086 q 378 1067 394 1075 l 354 1151 q 402 1166 377 1161 q 454 1171 427 1171 q 544 1143 508 1171 q 581 1064 581 1116 q 551 987 581 1016 q 464 939 522 958 z "},"ễ":{"ha":619,"x_min":31,"x_max":585,"o":"m 357 -14 q 175 36 247 -14 q 66 167 102 85 q 31 347 31 249 q 65 529 31 448 q 166 658 99 610 q 331 706 233 706 q 467 668 410 706 q 554 561 524 630 q 585 399 585 492 q 583 356 585 377 q 576 310 581 334 l 202 310 q 233 202 209 244 q 295 141 258 160 q 375 122 332 122 q 473 138 428 122 q 554 178 518 154 l 558 32 q 472 -1 522 13 q 357 -14 421 -14 m 204 426 l 417 426 q 408 498 417 466 q 378 550 399 531 q 319 569 357 569 q 242 533 271 569 q 204 426 214 497 m 161 757 l 161 860 l 331 979 l 500 860 l 500 757 l 331 849 l 161 757 m 438 1029 q 375 1043 406 1029 q 317 1071 344 1057 q 265 1085 289 1085 q 225 1039 225 1085 l 119 1039 q 145 1147 119 1110 q 224 1185 171 1185 q 286 1171 256 1185 q 344 1143 317 1157 q 396 1129 372 1129 q 436 1175 436 1129 l 542 1175 q 516 1067 542 1106 q 438 1029 491 1029 z "},"ȅ":{"ha":619,"x_min":31,"x_max":585,"o":"m 357 -14 q 175 36 247 -14 q 66 167 102 85 q 31 347 31 249 q 65 529 31 448 q 166 658 99 610 q 331 706 233 706 q 467 668 410 706 q 554 561 524 630 q 585 399 585 492 q 583 356 585 377 q 576 310 581 334 l 202 310 q 233 202 209 244 q 295 141 258 160 q 375 122 332 122 q 473 138 428 122 q 554 178 518 154 l 558 32 q 472 -1 522 13 q 357 -14 421 -14 m 204 426 l 417 426 q 408 498 417 466 q 378 550 399 531 q 319 569 357 569 q 242 533 271 569 q 204 426 214 497 m 496 817 l 396 817 l 276 1063 l 426 1063 l 496 817 m 300 817 l 199 817 l 68 1063 l 219 1063 l 300 817 z "},"ë":{"ha":619,"x_min":31,"x_max":585,"o":"m 357 -14 q 175 36 247 -14 q 66 167 102 85 q 31 347 31 249 q 65 529 31 448 q 166 658 99 610 q 331 706 233 706 q 467 668 410 706 q 554 561 524 630 q 585 399 585 492 q 583 356 585 377 q 576 310 581 334 l 202 310 q 233 202 209 244 q 295 141 258 160 q 375 122 332 122 q 473 138 428 122 q 554 178 518 154 l 558 32 q 472 -1 522 13 q 357 -14 421 -14 m 204 426 l 417 426 q 408 498 417 466 q 378 550 399 531 q 319 569 357 569 q 242 533 271 569 q 204 426 214 497 m 382 821 l 382 946 l 510 946 l 510 821 l 382 821 m 151 821 l 151 946 l 279 946 l 279 821 l 151 821 z "},"ė":{"ha":619,"x_min":31,"x_max":585,"o":"m 357 -14 q 175 36 247 -14 q 66 167 102 85 q 31 347 31 249 q 65 529 31 448 q 166 658 99 610 q 331 706 233 706 q 467 668 410 706 q 554 561 524 630 q 585 399 585 492 q 583 356 585 377 q 576 310 581 334 l 202 310 q 233 202 209 244 q 295 141 258 160 q 375 122 332 122 q 473 138 428 122 q 554 178 518 154 l 558 32 q 472 -1 522 13 q 357 -14 421 -14 m 204 426 l 417 426 q 408 498 417 466 q 378 550 399 531 q 319 569 357 569 q 242 533 271 569 q 204 426 214 497 m 264 836 l 264 971 l 397 971 l 397 836 l 264 836 z "},"ẹ":{"ha":619,"x_min":31,"x_max":585,"o":"m 357 -14 q 175 36 247 -14 q 66 167 102 85 q 31 347 31 249 q 65 529 31 448 q 166 658 99 610 q 331 706 233 706 q 467 668 410 706 q 554 561 524 630 q 585 399 585 492 q 583 356 585 377 q 576 310 581 334 l 202 310 q 233 202 209 244 q 295 141 258 160 q 375 122 332 122 q 473 138 428 122 q 554 178 518 154 l 558 32 q 472 -1 522 13 q 357 -14 421 -14 m 204 426 l 417 426 q 408 498 417 466 q 378 550 399 531 q 319 569 357 569 q 242 533 271 569 q 204 426 214 497 z "},"è":{"ha":619,"x_min":31,"x_max":585,"o":"m 357 -14 q 175 36 247 -14 q 66 167 102 85 q 31 347 31 249 q 65 529 31 448 q 166 658 99 610 q 331 706 233 706 q 467 668 410 706 q 554 561 524 630 q 585 399 585 492 q 583 356 585 377 q 576 310 581 334 l 202 310 q 233 202 209 244 q 295 141 258 160 q 375 122 332 122 q 473 138 428 122 q 554 178 518 154 l 558 32 q 472 -1 522 13 q 357 -14 421 -14 m 204 426 l 417 426 q 408 498 417 466 q 378 550 399 531 q 319 569 357 569 q 242 533 271 569 q 204 426 214 497 m 439 800 l 221 889 l 221 1054 l 439 915 l 439 800 z "},"ẻ":{"ha":619,"x_min":31,"x_max":585,"o":"m 357 -14 q 175 36 247 -14 q 66 167 102 85 q 31 347 31 249 q 65 529 31 448 q 166 658 99 610 q 331 706 233 706 q 467 668 410 706 q 554 561 524 630 q 585 399 585 492 q 583 356 585 377 q 576 310 581 334 l 202 310 q 233 202 209 244 q 295 141 258 160 q 375 122 332 122 q 473 138 428 122 q 554 178 518 154 l 558 32 q 472 -1 522 13 q 357 -14 421 -14 m 204 426 l 417 426 q 408 498 417 466 q 378 550 399 531 q 319 569 357 569 q 242 533 271 569 q 204 426 214 497 m 353 742 l 301 793 q 338 837 324 817 q 351 882 351 857 q 339 916 351 905 q 303 928 326 928 q 270 922 288 928 q 238 907 253 917 l 214 989 q 259 1004 235 999 q 308 1010 283 1010 q 398 978 362 1010 q 435 888 435 946 q 414 808 435 842 q 353 742 392 775 z "},"ȇ":{"ha":619,"x_min":31,"x_max":585,"o":"m 357 -14 q 175 36 247 -14 q 66 167 102 85 q 31 347 31 249 q 65 529 31 448 q 166 658 99 610 q 331 706 233 706 q 467 668 410 706 q 554 561 524 630 q 585 399 585 492 q 583 356 585 377 q 576 310 581 334 l 202 310 q 233 202 209 244 q 295 141 258 160 q 375 122 332 122 q 473 138 428 122 q 554 178 518 154 l 558 32 q 472 -1 522 13 q 357 -14 421 -14 m 204 426 l 417 426 q 408 498 417 466 q 378 550 399 531 q 319 569 357 569 q 242 533 271 569 q 204 426 214 497 m 331 994 q 442 970 395 994 q 513 905 488 946 q 538 815 538 865 l 419 815 q 395 871 419 852 q 331 890 372 890 q 266 871 290 890 q 242 815 242 852 l 124 815 q 149 905 124 865 q 220 970 174 946 q 331 994 267 994 z "},"ē":{"ha":619,"x_min":31,"x_max":585,"o":"m 357 -14 q 175 36 247 -14 q 66 167 102 85 q 31 347 31 249 q 65 529 31 448 q 166 658 99 610 q 331 706 233 706 q 467 668 410 706 q 554 561 524 630 q 585 399 585 492 q 583 356 585 377 q 576 310 581 334 l 202 310 q 233 202 209 244 q 295 141 258 160 q 375 122 332 122 q 473 138 428 122 q 554 178 518 154 l 558 32 q 472 -1 522 13 q 357 -14 421 -14 m 204 426 l 417 426 q 408 498 417 466 q 378 550 399 531 q 319 569 357 569 q 242 533 271 569 q 204 426 214 497 m 131 838 l 131 944 l 531 944 l 531 838 l 131 838 z "},"ḗ":{"ha":619,"x_min":31,"x_max":585,"o":"m 357 -14 q 175 36 247 -14 q 66 167 102 85 q 31 347 31 249 q 65 529 31 448 q 166 658 99 610 q 331 706 233 706 q 467 668 410 706 q 554 561 524 630 q 585 399 585 492 q 583 356 585 377 q 576 310 581 334 l 202 310 q 233 202 209 244 q 295 141 258 160 q 375 122 332 122 q 473 138 428 122 q 554 178 518 154 l 558 32 q 472 -1 522 13 q 357 -14 421 -14 m 204 426 l 417 426 q 408 498 417 466 q 378 550 399 531 q 319 569 357 569 q 242 533 271 569 q 204 426 214 497 m 117 824 l 117 924 l 544 924 l 544 824 l 117 824 m 222 1015 l 222 1111 l 440 1222 l 440 1079 l 222 1015 z "},"ḕ":{"ha":619,"x_min":31,"x_max":585,"o":"m 357 -14 q 175 36 247 -14 q 66 167 102 85 q 31 347 31 249 q 65 529 31 448 q 166 658 99 610 q 331 706 233 706 q 467 668 410 706 q 554 561 524 630 q 585 399 585 492 q 583 356 585 377 q 576 310 581 334 l 202 310 q 233 202 209 244 q 295 141 258 160 q 375 122 332 122 q 473 138 428 122 q 554 178 518 154 l 558 32 q 472 -1 522 13 q 357 -14 421 -14 m 204 426 l 417 426 q 408 498 417 466 q 378 550 399 531 q 319 569 357 569 q 242 533 271 569 q 204 426 214 497 m 117 824 l 117 924 l 544 924 l 544 824 l 117 824 m 439 1015 l 221 1079 l 221 1222 l 439 1111 l 439 1015 z "},"ę":{"ha":619,"x_min":31,"x_max":625,"o":"m 357 -14 q 175 36 247 -14 q 66 167 102 85 q 31 347 31 249 q 65 529 31 448 q 166 658 99 610 q 331 706 233 706 q 467 668 410 706 q 554 561 524 630 q 585 399 585 492 q 583 356 585 377 q 576 310 581 334 l 202 310 q 233 202 209 244 q 295 141 258 160 q 375 122 332 122 q 473 138 428 122 q 554 178 518 154 l 558 32 q 472 -1 522 13 q 357 -14 421 -14 m 204 426 l 417 426 q 408 498 417 466 q 378 550 399 531 q 319 569 357 569 q 242 533 271 569 q 204 426 214 497 m 472 32 l 558 32 q 493 -40 520 -4 q 465 -112 465 -76 q 483 -160 465 -144 q 531 -176 501 -176 q 568 -172 551 -176 q 601 -160 585 -167 l 625 -236 q 579 -254 606 -247 q 515 -261 552 -261 q 416 -231 456 -261 q 376 -142 376 -200 q 405 -47 376 -88 q 472 32 434 -6 z "},"ẽ":{"ha":619,"x_min":31,"x_max":585,"o":"m 357 -14 q 175 36 247 -14 q 66 167 102 85 q 31 347 31 249 q 65 529 31 448 q 166 658 99 610 q 331 706 233 706 q 467 668 410 706 q 554 561 524 630 q 585 399 585 492 q 583 356 585 377 q 576 310 581 334 l 202 310 q 233 202 209 244 q 295 141 258 160 q 375 122 332 122 q 473 138 428 122 q 554 178 518 154 l 558 32 q 472 -1 522 13 q 357 -14 421 -14 m 204 426 l 417 426 q 408 498 417 466 q 378 550 399 531 q 319 569 357 569 q 242 533 271 569 q 204 426 214 497 m 426 803 q 365 818 391 803 q 318 849 340 833 q 272 864 296 864 q 233 814 233 864 l 121 814 q 153 939 124 895 q 235 982 182 982 q 296 967 270 982 q 343 936 322 951 q 389 921 365 921 q 428 971 428 921 l 540 971 q 509 846 538 890 q 426 803 480 803 z "},"ə":{"ha":619,"x_min":35,"x_max":589,"o":"m 263 708 q 445 659 372 708 q 553 527 517 609 q 589 347 589 445 q 555 165 589 247 q 453 36 520 84 q 289 -11 387 -11 q 153 27 210 -11 q 65 134 96 65 q 35 296 35 203 q 37 339 35 317 q 43 385 39 360 l 417 385 q 386 492 410 451 q 325 553 362 534 q 244 572 288 572 q 146 556 191 572 q 65 517 101 540 l 61 663 q 148 695 97 682 q 263 708 199 708 m 415 268 l 203 268 q 211 196 203 228 q 241 144 220 164 q 300 125 263 125 q 377 161 349 125 q 415 268 406 198 z "},"f":{"ha":407,"x_min":22,"x_max":388,"o":"m 100 0 l 100 553 l 22 553 l 35 694 l 100 694 l 100 842 q 148 985 100 928 q 296 1042 195 1042 q 347 1038 323 1042 q 388 1028 370 1034 l 375 890 q 357 895 367 894 q 336 897 348 897 q 285 875 303 897 q 267 817 267 853 l 267 694 l 386 694 l 386 553 l 267 553 l 267 0 l 100 0 z "},"g":{"ha":600,"x_min":29,"x_max":597,"o":"m 306 -347 q 162 -325 224 -347 q 65 -259 100 -302 q 29 -153 29 -215 q 58 -60 29 -99 q 133 8 86 -22 q 88 49 103 24 q 74 103 74 73 q 91 159 74 135 q 139 202 108 183 q 61 300 88 239 q 33 432 33 360 q 63 570 33 508 q 149 669 93 633 q 283 706 205 706 q 368 692 330 706 q 437 656 407 679 q 493 693 463 680 q 553 706 522 706 q 573 705 565 706 q 588 703 581 704 l 575 596 q 564 598 570 597 q 547 599 557 599 q 521 596 534 599 q 494 588 508 594 q 523 515 513 555 q 533 432 533 476 q 503 294 533 357 q 418 194 474 232 q 283 157 362 157 q 256 158 269 157 q 230 162 242 160 q 218 139 218 152 q 228 118 218 126 q 261 104 238 110 l 404 71 q 550 2 503 48 q 597 -129 597 -44 q 560 -244 597 -195 q 457 -320 522 -293 q 306 -347 391 -347 m 310 -222 q 413 -201 372 -222 q 453 -139 453 -179 q 431 -86 453 -104 q 357 -56 408 -68 l 237 -26 q 183 -72 203 -47 q 163 -129 163 -97 q 204 -199 163 -175 q 310 -222 245 -222 m 283 282 q 356 324 331 282 q 381 432 381 365 q 356 539 381 497 q 283 581 331 581 q 211 539 235 581 q 186 432 186 497 q 211 324 186 365 q 283 282 235 282 z "},"ğ":{"ha":600,"x_min":29,"x_max":597,"o":"m 306 -347 q 162 -325 224 -347 q 65 -259 100 -302 q 29 -153 29 -215 q 58 -60 29 -99 q 133 8 86 -22 q 88 49 103 24 q 74 103 74 73 q 91 159 74 135 q 139 202 108 183 q 61 300 88 239 q 33 432 33 360 q 63 570 33 508 q 149 669 93 633 q 283 706 205 706 q 368 692 330 706 q 437 656 407 679 q 493 693 463 680 q 553 706 522 706 q 573 705 565 706 q 588 703 581 704 l 575 596 q 564 598 570 597 q 547 599 557 599 q 521 596 534 599 q 494 588 508 594 q 523 515 513 555 q 533 432 533 476 q 503 294 533 357 q 418 194 474 232 q 283 157 362 157 q 256 158 269 157 q 230 162 242 160 q 218 139 218 152 q 228 118 218 126 q 261 104 238 110 l 404 71 q 550 2 503 48 q 597 -129 597 -44 q 560 -244 597 -195 q 457 -320 522 -293 q 306 -347 391 -347 m 310 -222 q 413 -201 372 -222 q 453 -139 453 -179 q 431 -86 453 -104 q 357 -56 408 -68 l 237 -26 q 183 -72 203 -47 q 163 -129 163 -97 q 204 -199 163 -175 q 310 -222 245 -222 m 283 282 q 356 324 331 282 q 381 432 381 365 q 356 539 381 497 q 283 581 331 581 q 211 539 235 581 q 186 432 186 497 q 211 324 186 365 q 283 282 235 282 m 301 815 q 197 840 240 815 q 130 906 153 865 q 107 997 107 947 l 219 997 q 240 937 219 959 q 300 915 260 915 q 360 937 340 915 q 381 997 381 959 l 493 997 q 470 906 493 947 q 404 840 447 865 q 301 815 360 815 z "},"ǧ":{"ha":600,"x_min":29,"x_max":597,"o":"m 306 -347 q 162 -325 224 -347 q 65 -259 100 -302 q 29 -153 29 -215 q 58 -60 29 -99 q 133 8 86 -22 q 88 49 103 24 q 74 103 74 73 q 91 159 74 135 q 139 202 108 183 q 61 300 88 239 q 33 432 33 360 q 63 570 33 508 q 149 669 93 633 q 283 706 205 706 q 368 692 330 706 q 437 656 407 679 q 493 693 463 680 q 553 706 522 706 q 573 705 565 706 q 588 703 581 704 l 575 596 q 564 598 570 597 q 547 599 557 599 q 521 596 534 599 q 494 588 508 594 q 523 515 513 555 q 533 432 533 476 q 503 294 533 357 q 418 194 474 232 q 283 157 362 157 q 256 158 269 157 q 230 162 242 160 q 218 139 218 152 q 228 118 218 126 q 261 104 238 110 l 404 71 q 550 2 503 48 q 597 -129 597 -44 q 560 -244 597 -195 q 457 -320 522 -293 q 306 -347 391 -347 m 310 -222 q 413 -201 372 -222 q 453 -139 453 -179 q 431 -86 453 -104 q 357 -56 408 -68 l 237 -26 q 183 -72 203 -47 q 163 -129 163 -97 q 204 -199 163 -175 q 310 -222 245 -222 m 283 282 q 356 324 331 282 q 381 432 381 365 q 356 539 381 497 q 283 581 331 581 q 211 539 235 581 q 186 432 186 497 q 211 324 186 365 q 283 282 235 282 m 300 783 l 144 914 l 144 1024 l 300 926 l 456 1024 l 456 914 l 300 783 z "},"ĝ":{"ha":600,"x_min":29,"x_max":597,"o":"m 306 -347 q 162 -325 224 -347 q 65 -259 100 -302 q 29 -153 29 -215 q 58 -60 29 -99 q 133 8 86 -22 q 88 49 103 24 q 74 103 74 73 q 91 159 74 135 q 139 202 108 183 q 61 300 88 239 q 33 432 33 360 q 63 570 33 508 q 149 669 93 633 q 283 706 205 706 q 368 692 330 706 q 437 656 407 679 q 493 693 463 680 q 553 706 522 706 q 573 705 565 706 q 588 703 581 704 l 575 596 q 564 598 570 597 q 547 599 557 599 q 521 596 534 599 q 494 588 508 594 q 523 515 513 555 q 533 432 533 476 q 503 294 533 357 q 418 194 474 232 q 283 157 362 157 q 256 158 269 157 q 230 162 242 160 q 218 139 218 152 q 228 118 218 126 q 261 104 238 110 l 404 71 q 550 2 503 48 q 597 -129 597 -44 q 560 -244 597 -195 q 457 -320 522 -293 q 306 -347 391 -347 m 310 -222 q 413 -201 372 -222 q 453 -139 453 -179 q 431 -86 453 -104 q 357 -56 408 -68 l 237 -26 q 183 -72 203 -47 q 163 -129 163 -97 q 204 -199 163 -175 q 310 -222 245 -222 m 283 282 q 356 324 331 282 q 381 432 381 365 q 356 539 381 497 q 283 581 331 581 q 211 539 235 581 q 186 432 186 497 q 211 324 186 365 q 283 282 235 282 m 144 783 l 144 893 l 300 1025 l 456 893 l 456 783 l 300 881 l 144 783 z "},"ģ":{"ha":600,"x_min":29,"x_max":597,"o":"m 306 -347 q 162 -325 224 -347 q 65 -259 100 -302 q 29 -153 29 -215 q 58 -60 29 -99 q 133 8 86 -22 q 88 49 103 24 q 74 103 74 73 q 91 159 74 135 q 139 202 108 183 q 61 300 88 239 q 33 432 33 360 q 63 570 33 508 q 149 669 93 633 q 283 706 205 706 q 368 692 330 706 q 437 656 407 679 q 493 693 463 680 q 553 706 522 706 q 573 705 565 706 q 588 703 581 704 l 575 596 q 564 598 570 597 q 547 599 557 599 q 521 596 534 599 q 494 588 508 594 q 523 515 513 555 q 533 432 533 476 q 503 294 533 357 q 418 194 474 232 q 283 157 362 157 q 256 158 269 157 q 230 162 242 160 q 218 139 218 152 q 228 118 218 126 q 261 104 238 110 l 404 71 q 550 2 503 48 q 597 -129 597 -44 q 560 -244 597 -195 q 457 -320 522 -293 q 306 -347 391 -347 m 310 -222 q 413 -201 372 -222 q 453 -139 453 -179 q 431 -86 453 -104 q 357 -56 408 -68 l 237 -26 q 183 -72 203 -47 q 163 -129 163 -97 q 204 -199 163 -175 q 310 -222 245 -222 m 283 282 q 356 324 331 282 q 381 432 381 365 q 356 539 381 497 q 283 581 331 581 q 211 539 235 581 q 186 432 186 497 q 211 324 186 365 q 283 282 235 282 z "},"ġ":{"ha":600,"x_min":29,"x_max":597,"o":"m 306 -347 q 162 -325 224 -347 q 65 -259 100 -302 q 29 -153 29 -215 q 58 -60 29 -99 q 133 8 86 -22 q 88 49 103 24 q 74 103 74 73 q 91 159 74 135 q 139 202 108 183 q 61 300 88 239 q 33 432 33 360 q 63 570 33 508 q 149 669 93 633 q 283 706 205 706 q 368 692 330 706 q 437 656 407 679 q 493 693 463 680 q 553 706 522 706 q 573 705 565 706 q 588 703 581 704 l 575 596 q 564 598 570 597 q 547 599 557 599 q 521 596 534 599 q 494 588 508 594 q 523 515 513 555 q 533 432 533 476 q 503 294 533 357 q 418 194 474 232 q 283 157 362 157 q 256 158 269 157 q 230 162 242 160 q 218 139 218 152 q 228 118 218 126 q 261 104 238 110 l 404 71 q 550 2 503 48 q 597 -129 597 -44 q 560 -244 597 -195 q 457 -320 522 -293 q 306 -347 391 -347 m 310 -222 q 413 -201 372 -222 q 453 -139 453 -179 q 431 -86 453 -104 q 357 -56 408 -68 l 237 -26 q 183 -72 203 -47 q 163 -129 163 -97 q 204 -199 163 -175 q 310 -222 245 -222 m 283 282 q 356 324 331 282 q 381 432 381 365 q 356 539 381 497 q 283 581 331 581 q 211 539 235 581 q 186 432 186 497 q 211 324 186 365 q 283 282 235 282 m 233 836 l 233 971 l 367 971 l 367 836 l 233 836 z "},"ḡ":{"ha":600,"x_min":29,"x_max":597,"o":"m 306 -347 q 162 -325 224 -347 q 65 -259 100 -302 q 29 -153 29 -215 q 58 -60 29 -99 q 133 8 86 -22 q 88 49 103 24 q 74 103 74 73 q 91 159 74 135 q 139 202 108 183 q 61 300 88 239 q 33 432 33 360 q 63 570 33 508 q 149 669 93 633 q 283 706 205 706 q 368 692 330 706 q 437 656 407 679 q 493 693 463 680 q 553 706 522 706 q 573 705 565 706 q 588 703 581 704 l 575 596 q 564 598 570 597 q 547 599 557 599 q 521 596 534 599 q 494 588 508 594 q 523 515 513 555 q 533 432 533 476 q 503 294 533 357 q 418 194 474 232 q 283 157 362 157 q 256 158 269 157 q 230 162 242 160 q 218 139 218 152 q 228 118 218 126 q 261 104 238 110 l 404 71 q 550 2 503 48 q 597 -129 597 -44 q 560 -244 597 -195 q 457 -320 522 -293 q 306 -347 391 -347 m 310 -222 q 413 -201 372 -222 q 453 -139 453 -179 q 431 -86 453 -104 q 357 -56 408 -68 l 237 -26 q 183 -72 203 -47 q 163 -129 163 -97 q 204 -199 163 -175 q 310 -222 245 -222 m 283 282 q 356 324 331 282 q 381 432 381 365 q 356 539 381 497 q 283 581 331 581 q 211 539 235 581 q 186 432 186 497 q 211 324 186 365 q 283 282 235 282 m 100 838 l 100 944 l 500 944 l 500 838 l 100 838 z "},"h":{"ha":660,"x_min":61,"x_max":596,"o":"m 61 0 l 61 1042 l 228 1042 l 228 603 l 179 603 q 264 679 216 652 q 382 706 311 706 q 501 673 453 706 q 572 584 549 641 q 596 451 596 526 l 596 0 l 429 0 l 429 429 q 407 532 429 495 q 335 569 385 569 q 255 540 287 569 q 201 460 222 511 l 228 565 l 228 0 l 61 0 z "},"ħ":{"ha":682,"x_min":0,"x_max":618,"o":"m 83 0 l 83 1042 l 250 1042 l 250 603 l 201 603 q 286 679 238 652 q 404 706 333 706 q 523 673 476 706 q 594 584 571 641 q 618 451 618 526 l 618 0 l 451 0 l 451 429 q 429 532 451 495 q 357 569 407 569 q 277 540 309 569 q 224 460 244 511 l 250 565 l 250 0 l 83 0 m 0 815 l 0 931 l 444 931 l 444 815 l 0 815 z "},"ḫ":{"ha":660,"x_min":61,"x_max":596,"o":"m 61 0 l 61 1042 l 228 1042 l 228 603 l 179 603 q 264 679 216 652 q 382 706 311 706 q 501 673 453 706 q 572 584 549 641 q 596 451 596 526 l 596 0 l 429 0 l 429 429 q 407 532 429 495 q 335 569 385 569 q 255 540 287 569 q 201 460 222 511 l 228 565 l 228 0 l 61 0 z "},"ĥ":{"ha":660,"x_min":-25,"x_max":596,"o":"m 61 0 l 61 1042 l 228 1042 l 228 603 l 179 603 q 264 679 216 652 q 382 706 311 706 q 501 673 453 706 q 572 584 549 641 q 596 451 596 526 l 596 0 l 429 0 l 429 429 q 407 532 429 495 q 335 569 385 569 q 255 540 287 569 q 201 460 222 511 l 228 565 l 228 0 l 61 0 m -25 1104 l -25 1207 l 144 1326 l 314 1207 l 314 1104 l 144 1196 l -25 1104 z "},"ḥ":{"ha":660,"x_min":61,"x_max":596,"o":"m 61 0 l 61 1042 l 228 1042 l 228 603 l 179 603 q 264 679 216 652 q 382 706 311 706 q 501 673 453 706 q 572 584 549 641 q 596 451 596 526 l 596 0 l 429 0 l 429 429 q 407 532 429 495 q 335 569 385 569 q 255 540 287 569 q 201 460 222 511 l 228 565 l 228 0 l 61 0 z "},"i":{"ha":289,"x_min":61,"x_max":228,"o":"m 61 0 l 61 694 l 228 694 l 228 0 l 61 0 m 61 800 l 61 972 l 228 972 l 228 800 l 61 800 z "},"ı":{"ha":288,"x_min":61,"x_max":226,"o":"m 61 0 l 61 694 l 226 694 l 226 0 l 61 0 z "},"í":{"ha":288,"x_min":36,"x_max":254,"o":"m 61 0 l 61 694 l 226 694 l 226 0 l 61 0 m 36 803 l 36 913 l 254 1046 l 254 886 l 36 803 z "},"ĭ":{"ha":288,"x_min":-49,"x_max":338,"o":"m 61 0 l 61 694 l 226 694 l 226 0 l 61 0 m 145 815 q 41 840 85 815 q -25 906 -2 865 q -49 997 -49 947 l 64 997 q 84 937 64 959 q 144 915 105 915 q 205 937 184 915 q 225 997 225 959 l 338 997 q 315 906 338 947 q 248 840 292 865 q 145 815 205 815 z "},"î":{"ha":288,"x_min":-11,"x_max":300,"o":"m 61 0 l 61 694 l 226 694 l 226 0 l 61 0 m -11 783 l -11 893 l 144 1025 l 300 893 l 300 783 l 144 881 l -11 783 z "},"ȉ":{"ha":288,"x_min":-118,"x_max":310,"o":"m 61 0 l 61 694 l 226 694 l 226 0 l 61 0 m 310 817 l 210 817 l 90 1063 l 240 1063 l 310 817 m 114 817 l 13 817 l -118 1063 l 33 1063 l 114 817 z "},"ï":{"ha":288,"x_min":-35,"x_max":324,"o":"m 61 0 l 61 694 l 226 694 l 226 0 l 61 0 m 196 821 l 196 946 l 324 946 l 324 821 l 196 821 m -35 821 l -35 946 l 93 946 l 93 821 l -35 821 z "},"ḯ":{"ha":288,"x_min":-35,"x_max":324,"o":"m 61 0 l 61 694 l 226 694 l 226 0 l 61 0 m -35 810 l -35 929 l 93 929 l 93 810 l -35 810 m 196 810 l 196 929 l 324 929 l 324 810 l 196 810 m 36 985 l 36 1081 l 254 1192 l 254 1049 l 36 985 z "},"ị":{"ha":289,"x_min":61,"x_max":228,"o":"m 61 0 l 61 694 l 228 694 l 228 0 l 61 0 m 61 800 l 61 972 l 228 972 l 228 800 l 61 800 z "},"ì":{"ha":288,"x_min":35,"x_max":253,"o":"m 61 0 l 61 694 l 226 694 l 226 0 l 61 0 m 253 800 l 35 889 l 35 1054 l 253 915 l 253 800 z "},"ỉ":{"ha":288,"x_min":28,"x_max":249,"o":"m 61 0 l 61 694 l 226 694 l 226 0 l 61 0 m 167 742 l 115 793 q 152 837 138 817 q 165 882 165 857 q 152 916 165 905 q 117 928 140 928 q 84 922 101 928 q 51 907 67 917 l 28 989 q 73 1004 49 999 q 122 1010 97 1010 q 212 978 176 1010 q 249 888 249 946 q 227 808 249 842 q 167 742 206 775 z "},"ȋ":{"ha":288,"x_min":-62,"x_max":351,"o":"m 61 0 l 61 694 l 226 694 l 226 0 l 61 0 m 144 994 q 256 970 209 994 q 327 905 302 946 q 351 815 351 865 l 233 815 q 209 871 233 852 q 145 890 185 890 q 80 871 104 890 q 56 815 56 852 l -62 815 q -37 905 -62 865 q 34 970 -12 946 q 144 994 81 994 z "},"ĳ":{"ha":578,"x_min":61,"x_max":517,"o":"m 61 0 l 61 694 l 228 694 l 228 0 l 61 0 m 61 800 l 61 972 l 228 972 l 228 800 l 61 800 m 299 -336 l 285 -194 q 322 -186 308 -194 q 343 -159 336 -178 q 350 -108 350 -140 l 350 694 l 517 694 l 517 -154 q 499 -255 517 -215 q 442 -316 481 -295 q 342 -336 403 -336 l 299 -336 m 350 800 l 350 972 l 517 972 l 517 800 l 350 800 z "},"ī":{"ha":288,"x_min":-56,"x_max":344,"o":"m 61 0 l 61 694 l 226 694 l 226 0 l 61 0 m -56 838 l -56 944 l 344 944 l 344 838 l -56 838 z "},"į":{"ha":289,"x_min":46,"x_max":294,"o":"m 61 0 l 61 694 l 228 694 l 228 0 l 61 0 m 61 800 l 61 972 l 228 972 l 228 800 l 61 800 m 142 0 l 228 0 q 162 -72 190 -36 q 135 -144 135 -108 q 153 -192 135 -176 q 200 -208 171 -208 q 237 -203 220 -208 q 271 -192 254 -199 l 294 -268 q 248 -286 275 -278 q 185 -293 222 -293 q 86 -262 126 -293 q 46 -174 46 -232 q 75 -79 46 -120 q 142 0 103 -37 z "},"ĩ":{"ha":288,"x_min":-65,"x_max":354,"o":"m 61 0 l 61 694 l 226 694 l 226 0 l 61 0 m 240 803 q 179 818 205 803 q 132 849 153 833 q 86 864 110 864 q 47 814 47 864 l -65 814 q -33 939 -62 895 q 49 982 -4 982 q 110 967 84 982 q 157 936 135 951 q 203 921 179 921 q 242 971 242 921 l 354 971 q 323 846 351 890 q 240 803 294 803 z "},"j":{"ha":289,"x_min":-4,"x_max":228,"o":"m 10 -336 l -4 -194 q 33 -186 19 -194 q 54 -159 47 -178 q 61 -108 61 -140 l 61 694 l 228 694 l 228 -154 q 210 -255 228 -215 q 153 -316 192 -295 q 53 -336 115 -336 l 10 -336 m 61 800 l 61 972 l 228 972 l 228 800 l 61 800 z "},"ȷ":{"ha":289,"x_min":-4,"x_max":228,"o":"m 10 -336 l -4 -194 q 33 -186 19 -194 q 54 -159 47 -178 q 61 -108 61 -140 l 61 694 l 228 694 l 228 -154 q 210 -255 228 -215 q 153 -316 192 -295 q 53 -336 115 -336 l 10 -336 z "},"ĵ":{"ha":289,"x_min":-11,"x_max":300,"o":"m 10 -336 l -4 -194 q 33 -186 19 -194 q 54 -159 47 -178 q 61 -108 61 -140 l 61 694 l 228 694 l 228 -154 q 210 -255 228 -215 q 153 -316 192 -295 q 53 -336 115 -336 l 10 -336 m -11 783 l -11 893 l 144 1025 l 300 893 l 300 783 l 144 881 l -11 783 z "},"k":{"ha":586,"x_min":58,"x_max":590,"o":"m 58 0 l 58 1042 l 225 1042 l 225 417 l 396 694 l 585 694 l 379 367 l 590 0 l 401 0 l 225 315 l 225 0 l 58 0 z "},"ķ":{"ha":586,"x_min":58,"x_max":590,"o":"m 58 0 l 58 1042 l 225 1042 l 225 417 l 396 694 l 585 694 l 379 367 l 590 0 l 401 0 l 225 315 l 225 0 l 58 0 m 294 -414 l 231 -414 l 290 -261 l 244 -261 l 244 -126 l 383 -126 l 383 -244 l 294 -414 z "},"ĸ":{"ha":664,"x_min":69,"x_max":658,"o":"m 69 0 l 69 694 l 236 694 l 236 406 l 457 694 l 658 694 l 389 356 l 658 0 l 457 0 l 236 304 l 236 0 l 69 0 z "},"l":{"ha":317,"x_min":64,"x_max":293,"o":"m 217 -14 q 131 9 165 -14 q 81 72 97 31 q 64 168 64 113 l 64 1042 l 231 1042 l 231 225 q 235 166 231 188 q 253 136 240 145 q 293 128 267 128 l 279 -14 l 217 -14 z "},"ĺ":{"ha":317,"x_min":39,"x_max":293,"o":"m 217 -14 q 131 9 165 -14 q 81 72 97 31 q 64 168 64 113 l 64 1042 l 231 1042 l 231 225 q 235 166 231 188 q 253 136 240 145 q 293 128 267 128 l 279 -14 l 217 -14 m 39 1124 l 39 1219 l 257 1331 l 257 1188 l 39 1124 z "},"ľ":{"ha":404,"x_min":64,"x_max":418,"o":"m 217 -14 q 131 9 165 -14 q 81 72 97 31 q 64 168 64 113 l 64 1042 l 231 1042 l 231 225 q 235 166 231 188 q 253 136 240 145 q 293 128 267 128 l 279 -14 l 217 -14 m 286 796 l 286 1042 l 418 1042 l 378 796 l 286 796 z "},"ļ":{"ha":317,"x_min":64,"x_max":293,"o":"m 217 -14 q 131 9 165 -14 q 81 72 97 31 q 64 168 64 113 l 64 1042 l 231 1042 l 231 225 q 235 166 231 188 q 253 136 240 145 q 293 128 267 128 l 279 -14 l 217 -14 m 169 -414 l 106 -414 l 165 -261 l 119 -261 l 119 -126 l 258 -126 l 258 -244 l 169 -414 z "},"ŀ":{"ha":444,"x_min":64,"x_max":442,"o":"m 217 -14 q 131 9 165 -14 q 81 72 97 31 q 64 168 64 113 l 64 1042 l 231 1042 l 231 225 q 235 166 231 188 q 253 136 240 145 q 293 128 267 128 l 279 -14 l 217 -14 m 297 493 l 297 660 l 442 660 l 442 493 l 297 493 z "},"ḷ":{"ha":317,"x_min":64,"x_max":293,"o":"m 217 -14 q 131 9 165 -14 q 81 72 97 31 q 64 168 64 113 l 64 1042 l 231 1042 l 231 225 q 235 166 231 188 q 253 136 240 145 q 293 128 267 128 l 279 -14 l 217 -14 z "},"ǉ":{"ha":606,"x_min":64,"x_max":544,"o":"m 217 -14 q 131 9 165 -14 q 81 72 97 31 q 64 168 64 113 l 64 1042 l 231 1042 l 231 225 q 235 166 231 188 q 253 136 240 145 q 293 128 267 128 l 279 -14 l 217 -14 m 326 -336 l 313 -194 q 350 -186 335 -194 q 371 -159 364 -178 q 378 -108 378 -140 l 378 694 l 544 694 l 544 -154 q 526 -255 544 -215 q 470 -316 508 -295 q 369 -336 431 -336 l 326 -336 m 378 800 l 378 972 l 544 972 l 544 800 l 378 800 z "},"ḻ":{"ha":317,"x_min":-11,"x_max":389,"o":"m 217 -14 q 131 9 165 -14 q 81 72 97 31 q 64 168 64 113 l 64 1042 l 231 1042 l 231 225 q 235 166 231 188 q 253 136 240 145 q 293 128 267 128 l 279 -14 l 217 -14 z "},"ł":{"ha":329,"x_min":-14,"x_max":318,"o":"m 214 -14 q 128 9 162 -14 q 78 72 94 31 q 61 168 61 113 l 61 1042 l 228 1042 l 228 225 q 232 166 228 188 q 250 136 237 145 q 290 128 264 128 l 276 -14 l 214 -14 m -14 528 l -14 649 l 318 742 l 318 621 l -14 528 z "},"m":{"ha":1038,"x_min":69,"x_max":972,"o":"m 69 0 l 69 694 l 211 694 l 222 603 l 188 603 q 269 679 222 652 q 381 706 315 706 q 466 690 428 706 q 530 644 504 674 q 569 575 556 615 l 526 575 q 612 670 556 635 q 744 706 669 706 q 872 673 821 706 q 947 584 922 641 q 972 451 972 526 l 972 0 l 806 0 l 806 429 q 784 532 806 494 q 710 569 763 569 q 665 562 684 569 q 632 540 645 554 q 611 503 618 525 q 604 451 604 481 l 604 0 l 438 0 l 438 429 q 428 505 438 473 q 397 553 418 536 q 343 569 376 569 q 263 540 295 569 q 210 460 231 511 l 236 565 l 236 0 l 69 0 z "},"ṃ":{"ha":1038,"x_min":69,"x_max":972,"o":"m 69 0 l 69 694 l 211 694 l 222 603 l 188 603 q 269 679 222 652 q 381 706 315 706 q 466 690 428 706 q 530 644 504 674 q 569 575 556 615 l 526 575 q 612 670 556 635 q 744 706 669 706 q 872 673 821 706 q 947 584 922 641 q 972 451 972 526 l 972 0 l 806 0 l 806 429 q 784 532 806 494 q 710 569 763 569 q 665 562 684 569 q 632 540 645 554 q 611 503 618 525 q 604 451 604 481 l 604 0 l 438 0 l 438 429 q 428 505 438 473 q 397 553 418 536 q 343 569 376 569 q 263 540 295 569 q 210 460 231 511 l 236 565 l 236 0 l 69 0 z "},"n":{"ha":668,"x_min":69,"x_max":604,"o":"m 69 0 l 69 694 l 214 694 l 225 603 l 188 603 q 272 679 224 652 q 390 706 319 706 q 551 635 498 706 q 604 451 604 564 l 604 0 l 438 0 l 438 429 q 415 532 438 495 q 343 569 393 569 q 263 540 295 569 q 210 460 231 511 l 236 565 l 236 0 l 69 0 z "},"ń":{"ha":668,"x_min":69,"x_max":604,"o":"m 69 0 l 69 694 l 214 694 l 225 603 l 188 603 q 272 679 224 652 q 390 706 319 706 q 551 635 498 706 q 604 451 604 564 l 604 0 l 438 0 l 438 429 q 415 532 438 495 q 343 569 393 569 q 263 540 295 569 q 210 460 231 511 l 236 565 l 236 0 l 69 0 m 239 789 l 239 899 l 457 1032 l 457 872 l 239 789 z "},"ŉ":{"ha":885,"x_min":69,"x_max":821,"o":"m 286 0 l 286 694 l 431 694 l 442 603 l 404 603 q 489 679 441 652 q 607 706 536 706 q 768 635 715 706 q 821 451 821 564 l 821 0 l 654 0 l 654 429 q 632 532 654 495 q 560 569 610 569 q 480 540 512 569 q 426 460 447 511 l 453 565 l 453 0 l 286 0 z "},"ň":{"ha":668,"x_min":69,"x_max":604,"o":"m 69 0 l 69 694 l 214 694 l 225 603 l 188 603 q 272 679 224 652 q 390 706 319 706 q 551 635 498 706 q 604 451 604 564 l 604 0 l 438 0 l 438 429 q 415 532 438 495 q 343 569 393 569 q 263 540 295 569 q 210 460 231 511 l 236 565 l 236 0 l 69 0 m 347 769 l 192 900 l 192 1010 l 347 913 l 503 1010 l 503 900 l 347 769 z "},"ņ":{"ha":668,"x_min":69,"x_max":604,"o":"m 69 0 l 69 694 l 214 694 l 225 603 l 188 603 q 272 679 224 652 q 390 706 319 706 q 551 635 498 706 q 604 451 604 564 l 604 0 l 438 0 l 438 429 q 415 532 438 495 q 343 569 393 569 q 263 540 295 569 q 210 460 231 511 l 236 565 l 236 0 l 69 0 m 321 -414 l 257 -414 l 317 -261 l 271 -261 l 271 -126 l 410 -126 l 410 -244 l 321 -414 z "},"ṅ":{"ha":668,"x_min":69,"x_max":604,"o":"m 69 0 l 69 694 l 214 694 l 225 603 l 188 603 q 272 679 224 652 q 390 706 319 706 q 551 635 498 706 q 604 451 604 564 l 604 0 l 438 0 l 438 429 q 415 532 438 495 q 343 569 393 569 q 263 540 295 569 q 210 460 231 511 l 236 565 l 236 0 l 69 0 m 281 822 l 281 957 l 414 957 l 414 822 l 281 822 z "},"ṇ":{"ha":668,"x_min":69,"x_max":604,"o":"m 69 0 l 69 694 l 214 694 l 225 603 l 188 603 q 272 679 224 652 q 390 706 319 706 q 551 635 498 706 q 604 451 604 564 l 604 0 l 438 0 l 438 429 q 415 532 438 495 q 343 569 393 569 q 263 540 295 569 q 210 460 231 511 l 236 565 l 236 0 l 69 0 z "},"ŋ":{"ha":682,"x_min":69,"x_max":618,"o":"m 618 14 q 584 -133 618 -74 q 491 -220 550 -191 q 356 -249 431 -249 q 298 -244 326 -249 q 243 -233 269 -240 l 261 -100 q 340 -112 301 -112 q 417 -84 388 -112 q 446 0 446 -56 l 446 429 q 424 535 446 501 q 351 569 401 569 q 285 554 313 569 q 236 510 257 538 l 236 0 l 69 0 l 69 694 l 215 694 l 221 640 q 300 686 256 667 q 399 706 344 706 q 564 632 510 706 q 618 443 618 559 l 618 14 z "},"ǌ":{"ha":957,"x_min":69,"x_max":896,"o":"m 69 0 l 69 694 l 214 694 l 225 603 l 188 603 q 272 679 224 652 q 390 706 319 706 q 551 635 498 706 q 604 451 604 564 l 604 0 l 438 0 l 438 429 q 415 532 438 495 q 343 569 393 569 q 263 540 295 569 q 210 460 231 511 l 236 565 l 236 0 l 69 0 m 678 -336 l 664 -194 q 701 -186 687 -194 q 722 -159 715 -178 q 729 -108 729 -140 l 729 694 l 896 694 l 896 -154 q 878 -255 896 -215 q 821 -316 860 -295 q 721 -336 783 -336 l 678 -336 m 729 800 l 729 972 l 896 972 l 896 800 l 729 800 z "},"ṉ":{"ha":668,"x_min":69,"x_max":604,"o":"m 69 0 l 69 694 l 214 694 l 225 603 l 188 603 q 272 679 224 652 q 390 706 319 706 q 551 635 498 706 q 604 451 604 564 l 604 0 l 438 0 l 438 429 q 415 532 438 495 q 343 569 393 569 q 263 540 295 569 q 210 460 231 511 l 236 565 l 236 0 l 69 0 z "},"ñ":{"ha":668,"x_min":69,"x_max":604,"o":"m 69 0 l 69 694 l 214 694 l 225 603 l 188 603 q 272 679 224 652 q 390 706 319 706 q 551 635 498 706 q 604 451 604 564 l 604 0 l 438 0 l 438 429 q 415 532 438 495 q 343 569 393 569 q 263 540 295 569 q 210 460 231 511 l 236 565 l 236 0 l 69 0 m 443 789 q 382 804 408 789 q 334 835 356 819 q 289 850 313 850 q 250 800 250 850 l 138 800 q 170 925 141 881 q 251 968 199 968 q 313 953 287 968 q 360 922 338 938 q 406 907 382 907 q 444 957 444 907 l 557 957 q 525 832 554 876 q 443 789 497 789 z "},"o":{"ha":682,"x_min":33,"x_max":649,"o":"m 340 -14 q 174 35 243 -14 q 69 167 106 85 q 33 346 33 249 q 69 525 33 443 q 174 656 106 607 q 340 706 243 706 q 507 656 438 706 q 612 525 576 607 q 649 346 649 443 q 612 167 649 249 q 507 35 576 85 q 340 -14 438 -14 m 340 122 q 443 185 407 122 q 479 347 479 247 q 443 507 479 445 q 340 569 407 569 q 239 507 276 569 q 203 346 203 445 q 239 185 203 247 q 340 122 276 122 z "},"ó":{"ha":682,"x_min":33,"x_max":649,"o":"m 340 -14 q 174 35 243 -14 q 69 167 106 85 q 33 346 33 249 q 69 525 33 443 q 174 656 106 607 q 340 706 243 706 q 507 656 438 706 q 612 525 576 607 q 649 346 649 443 q 612 167 649 249 q 507 35 576 85 q 340 -14 438 -14 m 340 122 q 443 185 407 122 q 479 347 479 247 q 443 507 479 445 q 340 569 407 569 q 239 507 276 569 q 203 346 203 445 q 239 185 203 247 q 340 122 276 122 m 233 803 l 233 913 l 451 1046 l 451 886 l 233 803 z "},"ŏ":{"ha":682,"x_min":33,"x_max":649,"o":"m 340 -14 q 174 35 243 -14 q 69 167 106 85 q 33 346 33 249 q 69 525 33 443 q 174 656 106 607 q 340 706 243 706 q 507 656 438 706 q 612 525 576 607 q 649 346 649 443 q 612 167 649 249 q 507 35 576 85 q 340 -14 438 -14 m 340 122 q 443 185 407 122 q 479 347 479 247 q 443 507 479 445 q 340 569 407 569 q 239 507 276 569 q 203 346 203 445 q 239 185 203 247 q 340 122 276 122 m 342 815 q 239 840 282 815 q 172 906 195 865 q 149 997 149 947 l 261 997 q 282 937 261 959 q 342 915 302 915 q 402 937 381 915 q 422 997 422 959 l 535 997 q 512 906 535 947 q 445 840 489 865 q 342 815 402 815 z "},"ô":{"ha":682,"x_min":33,"x_max":649,"o":"m 340 -14 q 174 35 243 -14 q 69 167 106 85 q 33 346 33 249 q 69 525 33 443 q 174 656 106 607 q 340 706 243 706 q 507 656 438 706 q 612 525 576 607 q 649 346 649 443 q 612 167 649 249 q 507 35 576 85 q 340 -14 438 -14 m 340 122 q 443 185 407 122 q 479 347 479 247 q 443 507 479 445 q 340 569 407 569 q 239 507 276 569 q 203 346 203 445 q 239 185 203 247 q 340 122 276 122 m 186 783 l 186 893 l 342 1025 l 497 893 l 497 783 l 342 881 l 186 783 z "},"ố":{"ha":682,"x_min":33,"x_max":671,"o":"m 340 -14 q 174 35 243 -14 q 69 167 106 85 q 33 346 33 249 q 69 525 33 443 q 174 656 106 607 q 340 706 243 706 q 507 656 438 706 q 612 525 576 607 q 649 346 649 443 q 612 167 649 249 q 507 35 576 85 q 340 -14 438 -14 m 340 122 q 443 185 407 122 q 479 347 479 247 q 443 507 479 445 q 340 569 407 569 q 239 507 276 569 q 203 346 203 445 q 239 185 203 247 q 340 122 276 122 m 172 757 l 172 860 l 342 979 l 511 860 l 511 757 l 342 849 l 172 757 m 439 957 l 517 1133 l 671 1133 l 543 957 l 439 957 z "},"ộ":{"ha":682,"x_min":33,"x_max":649,"o":"m 340 -14 q 174 35 243 -14 q 69 167 106 85 q 33 346 33 249 q 69 525 33 443 q 174 656 106 607 q 340 706 243 706 q 507 656 438 706 q 612 525 576 607 q 649 346 649 443 q 612 167 649 249 q 507 35 576 85 q 340 -14 438 -14 m 340 122 q 443 185 407 122 q 479 347 479 247 q 443 507 479 445 q 340 569 407 569 q 239 507 276 569 q 203 346 203 445 q 239 185 203 247 q 340 122 276 122 m 186 783 l 186 893 l 342 1025 l 497 893 l 497 783 l 342 881 l 186 783 z "},"ồ":{"ha":682,"x_min":33,"x_max":649,"o":"m 340 -14 q 174 35 243 -14 q 69 167 106 85 q 33 346 33 249 q 69 525 33 443 q 174 656 106 607 q 340 706 243 706 q 507 656 438 706 q 612 525 576 607 q 649 346 649 443 q 612 167 649 249 q 507 35 576 85 q 340 -14 438 -14 m 340 122 q 443 185 407 122 q 479 347 479 247 q 443 507 479 445 q 340 569 407 569 q 239 507 276 569 q 203 346 203 445 q 239 185 203 247 q 340 122 276 122 m 172 757 l 172 860 l 342 979 l 511 860 l 511 757 l 342 849 l 172 757 m 478 957 l 378 1133 l 521 1133 l 578 957 l 478 957 z "},"ổ":{"ha":682,"x_min":33,"x_max":649,"o":"m 340 -14 q 174 35 243 -14 q 69 167 106 85 q 33 346 33 249 q 69 525 33 443 q 174 656 106 607 q 340 706 243 706 q 507 656 438 706 q 612 525 576 607 q 649 346 649 443 q 612 167 649 249 q 507 35 576 85 q 340 -14 438 -14 m 340 122 q 443 185 407 122 q 479 347 479 247 q 443 507 479 445 q 340 569 407 569 q 239 507 276 569 q 203 346 203 445 q 239 185 203 247 q 340 122 276 122 m 172 757 l 172 860 l 342 979 l 511 860 l 511 757 l 342 849 l 172 757 m 475 939 l 460 1000 q 492 1017 481 1006 q 503 1047 503 1028 q 491 1077 503 1067 q 457 1086 479 1086 q 423 1081 440 1086 q 389 1067 406 1075 l 365 1151 q 413 1166 388 1161 q 465 1171 438 1171 q 555 1143 519 1171 q 592 1064 592 1116 q 563 987 592 1016 q 475 939 533 958 z "},"ỗ":{"ha":682,"x_min":33,"x_max":649,"o":"m 340 -14 q 174 35 243 -14 q 69 167 106 85 q 33 346 33 249 q 69 525 33 443 q 174 656 106 607 q 340 706 243 706 q 507 656 438 706 q 612 525 576 607 q 649 346 649 443 q 612 167 649 249 q 507 35 576 85 q 340 -14 438 -14 m 340 122 q 443 185 407 122 q 479 347 479 247 q 443 507 479 445 q 340 569 407 569 q 239 507 276 569 q 203 346 203 445 q 239 185 203 247 q 340 122 276 122 m 172 757 l 172 860 l 342 979 l 511 860 l 511 757 l 342 849 l 172 757 m 449 1029 q 386 1043 417 1029 q 328 1071 356 1057 q 276 1085 300 1085 q 236 1039 236 1085 l 131 1039 q 156 1147 131 1110 q 235 1185 182 1185 q 297 1171 267 1185 q 356 1143 328 1157 q 407 1129 383 1129 q 447 1175 447 1129 l 553 1175 q 527 1067 553 1106 q 449 1029 502 1029 z "},"ȍ":{"ha":682,"x_min":33,"x_max":649,"o":"m 340 -14 q 174 35 243 -14 q 69 167 106 85 q 33 346 33 249 q 69 525 33 443 q 174 656 106 607 q 340 706 243 706 q 507 656 438 706 q 612 525 576 607 q 649 346 649 443 q 612 167 649 249 q 507 35 576 85 q 340 -14 438 -14 m 340 122 q 443 185 407 122 q 479 347 479 247 q 443 507 479 445 q 340 569 407 569 q 239 507 276 569 q 203 346 203 445 q 239 185 203 247 q 340 122 276 122 m 507 817 l 407 817 l 288 1063 l 438 1063 l 507 817 m 311 817 l 210 817 l 79 1063 l 231 1063 l 311 817 z "},"ö":{"ha":682,"x_min":33,"x_max":649,"o":"m 340 -14 q 174 35 243 -14 q 69 167 106 85 q 33 346 33 249 q 69 525 33 443 q 174 656 106 607 q 340 706 243 706 q 507 656 438 706 q 612 525 576 607 q 649 346 649 443 q 612 167 649 249 q 507 35 576 85 q 340 -14 438 -14 m 340 122 q 443 185 407 122 q 479 347 479 247 q 443 507 479 445 q 340 569 407 569 q 239 507 276 569 q 203 346 203 445 q 239 185 203 247 q 340 122 276 122 m 393 821 l 393 946 l 521 946 l 521 821 l 393 821 m 163 821 l 163 946 l 290 946 l 290 821 l 163 821 z "},"ȫ":{"ha":682,"x_min":33,"x_max":649,"o":"m 340 -14 q 174 35 243 -14 q 69 167 106 85 q 33 346 33 249 q 69 525 33 443 q 174 656 106 607 q 340 706 243 706 q 507 656 438 706 q 612 525 576 607 q 649 346 649 443 q 612 167 649 249 q 507 35 576 85 q 340 -14 438 -14 m 340 122 q 443 185 407 122 q 479 347 479 247 q 443 507 479 445 q 340 569 407 569 q 239 507 276 569 q 203 346 203 445 q 239 185 203 247 q 340 122 276 122 m 163 810 l 163 929 l 290 929 l 290 810 l 163 810 m 393 810 l 393 929 l 521 929 l 521 810 l 393 810 m 128 1032 l 128 1132 l 556 1132 l 556 1032 l 128 1032 z "},"ȱ":{"ha":682,"x_min":33,"x_max":649,"o":"m 340 -14 q 174 35 243 -14 q 69 167 106 85 q 33 346 33 249 q 69 525 33 443 q 174 656 106 607 q 340 706 243 706 q 507 656 438 706 q 612 525 576 607 q 649 346 649 443 q 612 167 649 249 q 507 35 576 85 q 340 -14 438 -14 m 340 122 q 443 185 407 122 q 479 347 479 247 q 443 507 479 445 q 340 569 407 569 q 239 507 276 569 q 203 346 203 445 q 239 185 203 247 q 340 122 276 122 m 272 822 l 272 957 l 411 957 l 411 822 l 272 822 m 128 1074 l 128 1174 l 556 1174 l 556 1074 l 128 1074 z "},"ọ":{"ha":682,"x_min":33,"x_max":649,"o":"m 340 -14 q 174 35 243 -14 q 69 167 106 85 q 33 346 33 249 q 69 525 33 443 q 174 656 106 607 q 340 706 243 706 q 507 656 438 706 q 612 525 576 607 q 649 346 649 443 q 612 167 649 249 q 507 35 576 85 q 340 -14 438 -14 m 340 122 q 443 185 407 122 q 479 347 479 247 q 443 507 479 445 q 340 569 407 569 q 239 507 276 569 q 203 346 203 445 q 239 185 203 247 q 340 122 276 122 z "},"ò":{"ha":682,"x_min":33,"x_max":649,"o":"m 340 -14 q 174 35 243 -14 q 69 167 106 85 q 33 346 33 249 q 69 525 33 443 q 174 656 106 607 q 340 706 243 706 q 507 656 438 706 q 612 525 576 607 q 649 346 649 443 q 612 167 649 249 q 507 35 576 85 q 340 -14 438 -14 m 340 122 q 443 185 407 122 q 479 347 479 247 q 443 507 479 445 q 340 569 407 569 q 239 507 276 569 q 203 346 203 445 q 239 185 203 247 q 340 122 276 122 m 450 800 l 232 889 l 232 1054 l 450 915 l 450 800 z "},"ỏ":{"ha":682,"x_min":33,"x_max":649,"o":"m 340 -14 q 174 35 243 -14 q 69 167 106 85 q 33 346 33 249 q 69 525 33 443 q 174 656 106 607 q 340 706 243 706 q 507 656 438 706 q 612 525 576 607 q 649 346 649 443 q 612 167 649 249 q 507 35 576 85 q 340 -14 438 -14 m 340 122 q 443 185 407 122 q 479 347 479 247 q 443 507 479 445 q 340 569 407 569 q 239 507 276 569 q 203 346 203 445 q 239 185 203 247 q 340 122 276 122 m 364 742 l 313 793 q 349 837 335 817 q 363 882 363 857 q 350 916 363 905 q 314 928 337 928 q 282 922 299 928 q 249 907 265 917 l 225 989 q 270 1004 246 999 q 319 1010 294 1010 q 409 978 373 1010 q 446 888 446 946 q 425 808 446 842 q 364 742 403 775 z "},"ơ":{"ha":682,"x_min":33,"x_max":649,"o":"m 340 -14 q 174 35 243 -14 q 69 167 106 85 q 33 346 33 249 q 69 525 33 443 q 174 656 106 607 q 340 706 243 706 q 507 656 438 706 q 612 525 576 607 q 649 346 649 443 q 612 167 649 249 q 507 35 576 85 q 340 -14 438 -14 m 340 122 q 443 185 407 122 q 479 347 479 247 q 443 507 479 445 q 340 569 407 569 q 239 507 276 569 q 203 346 203 445 q 239 185 203 247 q 340 122 276 122 m 406 581 l 406 694 q 479 718 453 694 q 506 797 506 742 l 646 797 q 612 675 646 723 q 523 604 578 627 q 406 581 468 581 z "},"ớ":{"ha":682,"x_min":33,"x_max":649,"o":"m 340 -14 q 174 35 243 -14 q 69 167 106 85 q 33 346 33 249 q 69 525 33 443 q 174 656 106 607 q 340 706 243 706 q 507 656 438 706 q 612 525 576 607 q 649 346 649 443 q 612 167 649 249 q 507 35 576 85 q 340 -14 438 -14 m 340 122 q 443 185 407 122 q 479 347 479 247 q 443 507 479 445 q 340 569 407 569 q 239 507 276 569 q 203 346 203 445 q 239 185 203 247 q 340 122 276 122 m 406 581 l 406 694 q 479 718 453 694 q 506 797 506 742 l 646 797 q 612 675 646 723 q 523 604 578 627 q 406 581 468 581 m 233 803 l 233 913 l 451 1046 l 451 886 l 233 803 z "},"ợ":{"ha":682,"x_min":33,"x_max":649,"o":"m 340 -14 q 174 35 243 -14 q 69 167 106 85 q 33 346 33 249 q 69 525 33 443 q 174 656 106 607 q 340 706 243 706 q 507 656 438 706 q 612 525 576 607 q 649 346 649 443 q 612 167 649 249 q 507 35 576 85 q 340 -14 438 -14 m 340 122 q 443 185 407 122 q 479 347 479 247 q 443 507 479 445 q 340 569 407 569 q 239 507 276 569 q 203 346 203 445 q 239 185 203 247 q 340 122 276 122 m 406 581 l 406 694 q 479 718 453 694 q 506 797 506 742 l 646 797 q 612 675 646 723 q 523 604 578 627 q 406 581 468 581 z "},"ờ":{"ha":682,"x_min":33,"x_max":649,"o":"m 340 -14 q 174 35 243 -14 q 69 167 106 85 q 33 346 33 249 q 69 525 33 443 q 174 656 106 607 q 340 706 243 706 q 507 656 438 706 q 612 525 576 607 q 649 346 649 443 q 612 167 649 249 q 507 35 576 85 q 340 -14 438 -14 m 340 122 q 443 185 407 122 q 479 347 479 247 q 443 507 479 445 q 340 569 407 569 q 239 507 276 569 q 203 346 203 445 q 239 185 203 247 q 340 122 276 122 m 406 581 l 406 694 q 479 718 453 694 q 506 797 506 742 l 646 797 q 612 675 646 723 q 523 604 578 627 q 406 581 468 581 m 450 800 l 232 889 l 232 1054 l 450 915 l 450 800 z "},"ở":{"ha":682,"x_min":33,"x_max":649,"o":"m 340 -14 q 174 35 243 -14 q 69 167 106 85 q 33 346 33 249 q 69 525 33 443 q 174 656 106 607 q 340 706 243 706 q 507 656 438 706 q 612 525 576 607 q 649 346 649 443 q 612 167 649 249 q 507 35 576 85 q 340 -14 438 -14 m 340 122 q 443 185 407 122 q 479 347 479 247 q 443 507 479 445 q 340 569 407 569 q 239 507 276 569 q 203 346 203 445 q 239 185 203 247 q 340 122 276 122 m 406 581 l 406 694 q 479 718 453 694 q 506 797 506 742 l 646 797 q 612 675 646 723 q 523 604 578 627 q 406 581 468 581 m 364 742 l 313 793 q 349 837 335 817 q 363 882 363 857 q 350 916 363 905 q 314 928 337 928 q 282 922 299 928 q 249 907 265 917 l 225 989 q 270 1004 246 999 q 319 1010 294 1010 q 409 978 373 1010 q 446 888 446 946 q 425 808 446 842 q 364 742 403 775 z "},"ỡ":{"ha":682,"x_min":33,"x_max":649,"o":"m 340 -14 q 174 35 243 -14 q 69 167 106 85 q 33 346 33 249 q 69 525 33 443 q 174 656 106 607 q 340 706 243 706 q 507 656 438 706 q 612 525 576 607 q 649 346 649 443 q 612 167 649 249 q 507 35 576 85 q 340 -14 438 -14 m 340 122 q 443 185 407 122 q 479 347 479 247 q 443 507 479 445 q 340 569 407 569 q 239 507 276 569 q 203 346 203 445 q 239 185 203 247 q 340 122 276 122 m 406 581 l 406 694 q 479 718 453 694 q 506 797 506 742 l 646 797 q 612 675 646 723 q 523 604 578 627 q 406 581 468 581 m 438 803 q 376 818 402 803 q 329 849 351 833 q 283 864 307 864 q 244 814 244 864 l 132 814 q 164 939 135 895 q 246 982 193 982 q 307 967 281 982 q 355 936 333 951 q 400 921 376 921 q 439 971 439 921 l 551 971 q 520 846 549 890 q 438 803 491 803 z "},"ő":{"ha":682,"x_min":33,"x_max":649,"o":"m 340 -14 q 174 35 243 -14 q 69 167 106 85 q 33 346 33 249 q 69 525 33 443 q 174 656 106 607 q 340 706 243 706 q 507 656 438 706 q 612 525 576 607 q 649 346 649 443 q 612 167 649 249 q 507 35 576 85 q 340 -14 438 -14 m 340 122 q 443 185 407 122 q 479 347 479 247 q 443 507 479 445 q 340 569 407 569 q 239 507 276 569 q 203 346 203 445 q 239 185 203 247 q 340 122 276 122 m 392 817 l 481 1063 l 632 1063 l 493 817 l 392 817 m 188 817 l 265 1063 l 417 1063 l 289 817 l 188 817 z "},"ȏ":{"ha":682,"x_min":33,"x_max":649,"o":"m 340 -14 q 174 35 243 -14 q 69 167 106 85 q 33 346 33 249 q 69 525 33 443 q 174 656 106 607 q 340 706 243 706 q 507 656 438 706 q 612 525 576 607 q 649 346 649 443 q 612 167 649 249 q 507 35 576 85 q 340 -14 438 -14 m 340 122 q 443 185 407 122 q 479 347 479 247 q 443 507 479 445 q 340 569 407 569 q 239 507 276 569 q 203 346 203 445 q 239 185 203 247 q 340 122 276 122 m 342 994 q 453 970 406 994 q 524 905 499 946 q 549 815 549 865 l 431 815 q 407 871 431 852 q 342 890 383 890 q 277 871 301 890 q 253 815 253 852 l 135 815 q 160 905 135 865 q 231 970 185 946 q 342 994 278 994 z "},"ō":{"ha":682,"x_min":33,"x_max":649,"o":"m 340 -14 q 174 35 243 -14 q 69 167 106 85 q 33 346 33 249 q 69 525 33 443 q 174 656 106 607 q 340 706 243 706 q 507 656 438 706 q 612 525 576 607 q 649 346 649 443 q 612 167 649 249 q 507 35 576 85 q 340 -14 438 -14 m 340 122 q 443 185 407 122 q 479 347 479 247 q 443 507 479 445 q 340 569 407 569 q 239 507 276 569 q 203 346 203 445 q 239 185 203 247 q 340 122 276 122 m 142 838 l 142 944 l 542 944 l 542 838 l 142 838 z "},"ṓ":{"ha":682,"x_min":33,"x_max":649,"o":"m 340 -14 q 174 35 243 -14 q 69 167 106 85 q 33 346 33 249 q 69 525 33 443 q 174 656 106 607 q 340 706 243 706 q 507 656 438 706 q 612 525 576 607 q 649 346 649 443 q 612 167 649 249 q 507 35 576 85 q 340 -14 438 -14 m 340 122 q 443 185 407 122 q 479 347 479 247 q 443 507 479 445 q 340 569 407 569 q 239 507 276 569 q 203 346 203 445 q 239 185 203 247 q 340 122 276 122 m 128 824 l 128 924 l 556 924 l 556 824 l 128 824 m 233 1015 l 233 1111 l 451 1222 l 451 1079 l 233 1015 z "},"ṑ":{"ha":682,"x_min":33,"x_max":649,"o":"m 340 -14 q 174 35 243 -14 q 69 167 106 85 q 33 346 33 249 q 69 525 33 443 q 174 656 106 607 q 340 706 243 706 q 507 656 438 706 q 612 525 576 607 q 649 346 649 443 q 612 167 649 249 q 507 35 576 85 q 340 -14 438 -14 m 340 122 q 443 185 407 122 q 479 347 479 247 q 443 507 479 445 q 340 569 407 569 q 239 507 276 569 q 203 346 203 445 q 239 185 203 247 q 340 122 276 122 m 128 824 l 128 924 l 556 924 l 556 824 l 128 824 m 450 1015 l 232 1079 l 232 1222 l 450 1111 l 450 1015 z "},"ǫ":{"ha":682,"x_min":33,"x_max":649,"o":"m 340 -14 q 174 35 243 -14 q 69 167 106 85 q 33 346 33 249 q 69 525 33 443 q 174 656 106 607 q 340 706 243 706 q 507 656 438 706 q 612 525 576 607 q 649 346 649 443 q 612 167 649 249 q 507 35 576 85 q 340 -14 438 -14 m 340 122 q 443 185 407 122 q 479 347 479 247 q 443 507 479 445 q 340 569 407 569 q 239 507 276 569 q 203 346 203 445 q 239 185 203 247 q 340 122 276 122 m 326 0 l 413 0 q 347 -72 374 -36 q 319 -144 319 -108 q 338 -192 319 -176 q 385 -208 356 -208 q 422 -203 405 -208 q 456 -192 439 -199 l 479 -268 q 433 -286 460 -278 q 369 -293 406 -293 q 270 -262 310 -293 q 231 -174 231 -232 q 259 -79 231 -120 q 326 0 288 -37 z "},"ø":{"ha":682,"x_min":33,"x_max":649,"o":"m 518 736 l 629 736 l 164 -56 l 53 -56 l 518 736 m 340 -14 q 174 35 243 -14 q 69 167 106 85 q 33 346 33 249 q 69 525 33 443 q 174 656 106 607 q 340 706 243 706 q 507 656 438 706 q 612 525 576 607 q 649 346 649 443 q 612 167 649 249 q 507 35 576 85 q 340 -14 438 -14 m 340 122 q 443 185 407 122 q 479 346 479 247 q 443 507 479 445 q 340 569 407 569 q 239 507 276 569 q 203 346 203 445 q 239 185 203 247 q 340 122 276 122 z "},"ǿ":{"ha":682,"x_min":33,"x_max":649,"o":"m 518 736 l 629 736 l 164 -56 l 53 -56 l 518 736 m 340 -14 q 174 35 243 -14 q 69 167 106 85 q 33 346 33 249 q 69 525 33 443 q 174 656 106 607 q 340 706 243 706 q 507 656 438 706 q 612 525 576 607 q 649 346 649 443 q 612 167 649 249 q 507 35 576 85 q 340 -14 438 -14 m 340 122 q 443 185 407 122 q 479 346 479 247 q 443 507 479 445 q 340 569 407 569 q 239 507 276 569 q 203 346 203 445 q 239 185 203 247 q 340 122 276 122 m 233 803 l 233 913 l 451 1046 l 451 886 l 233 803 z "},"õ":{"ha":682,"x_min":33,"x_max":649,"o":"m 340 -14 q 174 35 243 -14 q 69 167 106 85 q 33 346 33 249 q 69 525 33 443 q 174 656 106 607 q 340 706 243 706 q 507 656 438 706 q 612 525 576 607 q 649 346 649 443 q 612 167 649 249 q 507 35 576 85 q 340 -14 438 -14 m 340 122 q 443 185 407 122 q 479 347 479 247 q 443 507 479 445 q 340 569 407 569 q 239 507 276 569 q 203 346 203 445 q 239 185 203 247 q 340 122 276 122 m 438 803 q 376 818 402 803 q 329 849 351 833 q 283 864 307 864 q 244 814 244 864 l 132 814 q 164 939 135 895 q 246 982 193 982 q 307 967 281 982 q 355 936 333 951 q 400 921 376 921 q 439 971 439 921 l 551 971 q 520 846 549 890 q 438 803 491 803 z "},"ṍ":{"ha":682,"x_min":33,"x_max":649,"o":"m 340 -14 q 174 35 243 -14 q 69 167 106 85 q 33 346 33 249 q 69 525 33 443 q 174 656 106 607 q 340 706 243 706 q 507 656 438 706 q 612 525 576 607 q 649 346 649 443 q 612 167 649 249 q 507 35 576 85 q 340 -14 438 -14 m 340 122 q 443 185 407 122 q 479 347 479 247 q 443 507 479 445 q 340 569 407 569 q 239 507 276 569 q 203 346 203 445 q 239 185 203 247 q 340 122 276 122 m 449 801 q 386 815 417 801 q 328 843 356 829 q 276 857 300 857 q 236 811 236 857 l 131 811 q 156 919 131 882 q 235 957 182 957 q 297 943 267 957 q 356 915 328 929 q 407 901 383 901 q 447 947 447 901 l 553 947 q 527 840 553 878 q 449 801 502 801 m 233 1004 l 233 1100 l 451 1211 l 451 1068 l 233 1004 z "},"ṏ":{"ha":682,"x_min":33,"x_max":649,"o":"m 340 -14 q 174 35 243 -14 q 69 167 106 85 q 33 346 33 249 q 69 525 33 443 q 174 656 106 607 q 340 706 243 706 q 507 656 438 706 q 612 525 576 607 q 649 346 649 443 q 612 167 649 249 q 507 35 576 85 q 340 -14 438 -14 m 340 122 q 443 185 407 122 q 479 347 479 247 q 443 507 479 445 q 340 569 407 569 q 239 507 276 569 q 203 346 203 445 q 239 185 203 247 q 340 122 276 122 m 449 801 q 386 815 417 801 q 328 843 356 829 q 276 857 300 857 q 236 811 236 857 l 131 811 q 156 919 131 882 q 235 957 182 957 q 297 943 267 957 q 356 915 328 929 q 407 901 383 901 q 447 947 447 901 l 553 947 q 527 840 553 878 q 449 801 502 801 m 163 1038 l 163 1157 l 290 1157 l 290 1038 l 163 1038 m 393 1038 l 393 1157 l 521 1157 l 521 1038 l 393 1038 z "},"ȭ":{"ha":682,"x_min":33,"x_max":649,"o":"m 340 -14 q 174 35 243 -14 q 69 167 106 85 q 33 346 33 249 q 69 525 33 443 q 174 656 106 607 q 340 706 243 706 q 507 656 438 706 q 612 525 576 607 q 649 346 649 443 q 612 167 649 249 q 507 35 576 85 q 340 -14 438 -14 m 340 122 q 443 185 407 122 q 479 347 479 247 q 443 507 479 445 q 340 569 407 569 q 239 507 276 569 q 203 346 203 445 q 239 185 203 247 q 340 122 276 122 m 449 801 q 386 815 417 801 q 328 843 356 829 q 276 857 300 857 q 236 811 236 857 l 131 811 q 156 919 131 882 q 235 957 182 957 q 297 943 267 957 q 356 915 328 929 q 407 901 383 901 q 447 947 447 901 l 553 947 q 527 840 553 878 q 449 801 502 801 m 128 1051 l 128 1151 l 556 1151 l 556 1051 l 128 1051 z "},"œ":{"ha":1072,"x_min":33,"x_max":1038,"o":"m 340 -14 q 174 35 243 -14 q 69 167 106 85 q 33 346 33 249 q 69 525 33 443 q 174 656 106 607 q 340 706 243 706 q 491 659 427 706 q 592 538 554 613 l 536 538 q 638 659 573 613 q 793 706 703 706 q 925 670 871 706 q 1009 568 980 634 q 1038 414 1038 503 q 1035 361 1038 386 q 1026 310 1032 337 l 653 310 q 683 206 660 246 q 743 147 706 165 q 831 128 781 128 q 929 145 885 128 q 1007 185 974 162 l 1011 39 q 925 2 977 18 q 810 -14 874 -14 q 644 32 712 -14 q 539 156 576 78 l 593 157 q 492 34 557 81 q 340 -14 428 -14 m 340 128 q 442 189 406 128 q 478 346 478 249 q 442 503 478 443 q 340 564 406 564 q 239 503 276 564 q 203 346 203 443 q 239 189 203 249 q 340 128 276 128 m 654 426 l 869 426 q 861 489 869 458 q 834 542 853 521 q 778 564 814 564 q 695 526 726 564 q 654 426 664 489 z "},"p":{"ha":685,"x_min":63,"x_max":657,"o":"m 63 -336 l 63 694 l 196 694 l 229 579 l 183 597 q 272 676 224 647 q 389 706 320 706 q 536 656 476 706 q 626 525 596 607 q 657 346 657 443 q 626 167 657 249 q 536 35 596 85 q 389 -14 476 -14 q 274 8 318 -14 q 183 79 229 31 l 229 114 l 229 -336 l 63 -336 m 357 122 q 453 185 419 122 q 488 347 488 247 q 453 507 488 445 q 357 569 419 569 q 280 541 310 569 q 235 462 249 513 q 221 346 221 412 q 235 230 221 280 q 280 151 249 179 q 357 122 310 122 z "},"þ":{"ha":686,"x_min":64,"x_max":658,"o":"m 64 -336 l 64 1042 l 231 1042 l 231 579 l 185 597 q 274 676 226 647 q 390 706 322 706 q 538 656 478 706 q 628 525 597 607 q 658 346 658 443 q 628 167 658 249 q 538 35 597 85 q 390 -14 478 -14 q 275 8 319 -14 q 185 79 231 31 l 231 114 l 231 -336 l 64 -336 m 358 122 q 455 185 420 122 q 489 346 489 247 q 455 507 489 445 q 358 569 420 569 q 281 541 311 569 q 236 462 251 513 q 222 346 222 412 q 236 230 222 280 q 281 151 251 179 q 358 122 311 122 z "},"q":{"ha":685,"x_min":63,"x_max":657,"o":"m 490 -336 l 490 114 l 542 82 q 455 11 502 36 q 338 -14 408 -14 q 186 35 248 -14 q 94 167 125 85 q 63 346 63 249 q 94 525 63 443 q 186 656 125 607 q 338 706 248 706 q 457 676 408 706 q 543 597 506 647 l 490 579 l 531 694 l 657 694 l 657 -336 l 490 -336 m 363 122 q 440 151 410 122 q 484 230 470 179 q 499 346 499 280 q 466 507 499 445 q 363 569 433 569 q 266 507 300 569 q 232 346 232 445 q 266 185 232 247 q 363 122 300 122 z "},"r":{"ha":399,"x_min":63,"x_max":408,"o":"m 63 0 l 63 694 l 208 694 l 219 621 q 289 683 255 660 q 372 706 324 706 q 408 701 392 706 l 396 533 q 376 539 387 537 q 351 540 366 540 q 290 524 317 540 q 229 474 263 507 l 229 0 l 63 0 z "},"ŕ":{"ha":399,"x_min":63,"x_max":408,"o":"m 63 0 l 63 694 l 208 694 l 219 621 q 289 683 255 660 q 372 706 324 706 q 408 701 392 706 l 396 533 q 376 539 387 537 q 351 540 366 540 q 290 524 317 540 q 229 474 263 507 l 229 0 l 63 0 m 136 803 l 136 913 l 354 1046 l 354 886 l 136 803 z "},"ř":{"ha":399,"x_min":63,"x_max":408,"o":"m 63 0 l 63 694 l 208 694 l 219 621 q 289 683 255 660 q 372 706 324 706 q 408 701 392 706 l 396 533 q 376 539 387 537 q 351 540 366 540 q 290 524 317 540 q 229 474 263 507 l 229 0 l 63 0 m 244 783 l 89 914 l 89 1024 l 244 926 l 400 1024 l 400 914 l 244 783 z "},"ŗ":{"ha":399,"x_min":63,"x_max":408,"o":"m 63 0 l 63 694 l 208 694 l 219 621 q 289 683 255 660 q 372 706 324 706 q 408 701 392 706 l 396 533 q 376 539 387 537 q 351 540 366 540 q 290 524 317 540 q 229 474 263 507 l 229 0 l 63 0 m 126 -414 l 63 -414 l 122 -261 l 76 -261 l 76 -126 l 215 -126 l 215 -244 l 126 -414 z "},"ȑ":{"ha":399,"x_min":-18,"x_max":410,"o":"m 63 0 l 63 694 l 208 694 l 219 621 q 289 683 255 660 q 372 706 324 706 q 408 701 392 706 l 396 533 q 376 539 387 537 q 351 540 366 540 q 290 524 317 540 q 229 474 263 507 l 229 0 l 63 0 m 410 817 l 310 817 l 190 1063 l 340 1063 l 410 817 m 214 817 l 113 817 l -18 1063 l 133 1063 l 214 817 z "},"ṛ":{"ha":399,"x_min":63,"x_max":408,"o":"m 63 0 l 63 694 l 208 694 l 219 621 q 289 683 255 660 q 372 706 324 706 q 408 701 392 706 l 396 533 q 376 539 387 537 q 351 540 366 540 q 290 524 317 540 q 229 474 263 507 l 229 0 l 63 0 z "},"ȓ":{"ha":399,"x_min":38,"x_max":451,"o":"m 63 0 l 63 694 l 208 694 l 219 621 q 289 683 255 660 q 372 706 324 706 q 408 701 392 706 l 396 533 q 376 539 387 537 q 351 540 366 540 q 290 524 317 540 q 229 474 263 507 l 229 0 l 63 0 m 244 994 q 356 970 309 994 q 427 905 402 946 q 451 815 451 865 l 333 815 q 309 871 333 852 q 245 890 285 890 q 180 871 204 890 q 156 815 156 852 l 38 815 q 63 905 38 865 q 134 970 88 946 q 244 994 181 994 z "},"ṟ":{"ha":399,"x_min":-54,"x_max":408,"o":"m 63 0 l 63 694 l 208 694 l 219 621 q 289 683 255 660 q 372 706 324 706 q 408 701 392 706 l 396 533 q 376 539 387 537 q 351 540 366 540 q 290 524 317 540 q 229 474 263 507 l 229 0 l 63 0 z "},"s":{"ha":513,"x_min":40,"x_max":482,"o":"m 239 -14 q 134 -1 181 -14 q 40 35 88 11 l 56 182 q 142 134 99 153 q 226 115 185 115 q 299 133 274 115 q 324 183 324 151 q 314 222 324 206 q 279 255 303 239 q 211 292 254 271 q 121 345 158 317 q 63 410 83 372 q 43 504 43 447 q 72 609 43 563 q 153 680 101 654 q 279 706 206 706 q 379 691 335 706 q 461 654 424 677 l 446 511 q 373 562 410 542 q 290 582 335 582 q 226 565 251 582 q 201 515 201 548 q 233 459 201 480 q 331 403 264 438 q 396 364 367 384 q 443 318 424 343 q 472 262 463 293 q 482 190 482 231 q 452 81 482 126 q 367 10 422 35 q 239 -14 312 -14 z "},"ś":{"ha":513,"x_min":40,"x_max":482,"o":"m 239 -14 q 134 -1 181 -14 q 40 35 88 11 l 56 182 q 142 134 99 153 q 226 115 185 115 q 299 133 274 115 q 324 183 324 151 q 314 222 324 206 q 279 255 303 239 q 211 292 254 271 q 121 345 158 317 q 63 410 83 372 q 43 504 43 447 q 72 609 43 563 q 153 680 101 654 q 279 706 206 706 q 379 691 335 706 q 461 654 424 677 l 446 511 q 373 562 410 542 q 290 582 335 582 q 226 565 251 582 q 201 515 201 548 q 233 459 201 480 q 331 403 264 438 q 396 364 367 384 q 443 318 424 343 q 472 262 463 293 q 482 190 482 231 q 452 81 482 126 q 367 10 422 35 q 239 -14 312 -14 m 167 803 l 167 913 l 385 1046 l 385 886 l 167 803 z "},"ṥ":{"ha":513,"x_min":40,"x_max":482,"o":"m 239 -14 q 134 -1 181 -14 q 40 35 88 11 l 56 182 q 142 134 99 153 q 226 115 185 115 q 299 133 274 115 q 324 183 324 151 q 314 222 324 206 q 279 255 303 239 q 211 292 254 271 q 121 345 158 317 q 63 410 83 372 q 43 504 43 447 q 72 609 43 563 q 153 680 101 654 q 279 706 206 706 q 379 691 335 706 q 461 654 424 677 l 446 511 q 373 562 410 542 q 290 582 335 582 q 226 565 251 582 q 201 515 201 548 q 233 459 201 480 q 331 403 264 438 q 396 364 367 384 q 443 318 424 343 q 472 262 463 293 q 482 190 482 231 q 452 81 482 126 q 367 10 422 35 q 239 -14 312 -14 m 167 776 l 167 872 l 385 983 l 385 840 l 167 776 m 206 1047 l 206 1182 l 344 1182 l 344 1047 l 206 1047 z "},"š":{"ha":513,"x_min":40,"x_max":482,"o":"m 239 -14 q 134 -1 181 -14 q 40 35 88 11 l 56 182 q 142 134 99 153 q 226 115 185 115 q 299 133 274 115 q 324 183 324 151 q 314 222 324 206 q 279 255 303 239 q 211 292 254 271 q 121 345 158 317 q 63 410 83 372 q 43 504 43 447 q 72 609 43 563 q 153 680 101 654 q 279 706 206 706 q 379 691 335 706 q 461 654 424 677 l 446 511 q 373 562 410 542 q 290 582 335 582 q 226 565 251 582 q 201 515 201 548 q 233 459 201 480 q 331 403 264 438 q 396 364 367 384 q 443 318 424 343 q 472 262 463 293 q 482 190 482 231 q 452 81 482 126 q 367 10 422 35 q 239 -14 312 -14 m 275 783 l 119 914 l 119 1024 l 275 926 l 431 1024 l 431 914 l 275 783 z "},"ṧ":{"ha":513,"x_min":40,"x_max":482,"o":"m 239 -14 q 134 -1 181 -14 q 40 35 88 11 l 56 182 q 142 134 99 153 q 226 115 185 115 q 299 133 274 115 q 324 183 324 151 q 314 222 324 206 q 279 255 303 239 q 211 292 254 271 q 121 345 158 317 q 63 410 83 372 q 43 504 43 447 q 72 609 43 563 q 153 680 101 654 q 279 706 206 706 q 379 691 335 706 q 461 654 424 677 l 446 511 q 373 562 410 542 q 290 582 335 582 q 226 565 251 582 q 201 515 201 548 q 233 459 201 480 q 331 403 264 438 q 396 364 367 384 q 443 318 424 343 q 472 262 463 293 q 482 190 482 231 q 452 81 482 126 q 367 10 422 35 q 239 -14 312 -14 m 206 1081 l 206 1215 l 344 1215 l 344 1081 l 206 1081 z "},"ş":{"ha":513,"x_min":40,"x_max":482,"o":"m 239 -14 q 134 -1 181 -14 q 40 35 88 11 l 56 182 q 142 134 99 153 q 226 115 185 115 q 299 133 274 115 q 324 183 324 151 q 314 222 324 206 q 279 255 303 239 q 211 292 254 271 q 121 345 158 317 q 63 410 83 372 q 43 504 43 447 q 72 609 43 563 q 153 680 101 654 q 279 706 206 706 q 379 691 335 706 q 461 654 424 677 l 446 511 q 373 562 410 542 q 290 582 335 582 q 226 565 251 582 q 201 515 201 548 q 233 459 201 480 q 331 403 264 438 q 396 364 367 384 q 443 318 424 343 q 472 262 463 293 q 482 190 482 231 q 452 81 482 126 q 367 10 422 35 q 239 -14 312 -14 m 264 -110 l 221 -86 q 244 -81 233 -83 q 268 -79 256 -79 q 353 -110 322 -79 q 385 -196 385 -140 q 343 -298 385 -263 q 240 -332 301 -332 q 184 -326 208 -332 q 140 -314 159 -321 l 167 -237 q 200 -248 183 -244 q 236 -253 217 -253 q 284 -239 267 -253 q 301 -200 301 -226 q 286 -160 301 -174 q 242 -147 271 -147 q 214 -150 227 -147 q 186 -157 200 -153 l 225 0 l 297 0 l 264 -110 z "},"ŝ":{"ha":513,"x_min":40,"x_max":482,"o":"m 239 -14 q 134 -1 181 -14 q 40 35 88 11 l 56 182 q 142 134 99 153 q 226 115 185 115 q 299 133 274 115 q 324 183 324 151 q 314 222 324 206 q 279 255 303 239 q 211 292 254 271 q 121 345 158 317 q 63 410 83 372 q 43 504 43 447 q 72 609 43 563 q 153 680 101 654 q 279 706 206 706 q 379 691 335 706 q 461 654 424 677 l 446 511 q 373 562 410 542 q 290 582 335 582 q 226 565 251 582 q 201 515 201 548 q 233 459 201 480 q 331 403 264 438 q 396 364 367 384 q 443 318 424 343 q 472 262 463 293 q 482 190 482 231 q 452 81 482 126 q 367 10 422 35 q 239 -14 312 -14 m 119 783 l 119 893 l 275 1025 l 431 893 l 431 783 l 275 881 l 119 783 z "},"ș":{"ha":513,"x_min":40,"x_max":482,"o":"m 239 -14 q 134 -1 181 -14 q 40 35 88 11 l 56 182 q 142 134 99 153 q 226 115 185 115 q 299 133 274 115 q 324 183 324 151 q 314 222 324 206 q 279 255 303 239 q 211 292 254 271 q 121 345 158 317 q 63 410 83 372 q 43 504 43 447 q 72 609 43 563 q 153 680 101 654 q 279 706 206 706 q 379 691 335 706 q 461 654 424 677 l 446 511 q 373 562 410 542 q 290 582 335 582 q 226 565 251 582 q 201 515 201 548 q 233 459 201 480 q 331 403 264 438 q 396 364 367 384 q 443 318 424 343 q 472 262 463 293 q 482 190 482 231 q 452 81 482 126 q 367 10 422 35 q 239 -14 312 -14 m 226 -414 l 163 -414 l 222 -261 l 176 -261 l 176 -126 l 315 -126 l 315 -244 l 226 -414 z "},"ṡ":{"ha":513,"x_min":40,"x_max":482,"o":"m 239 -14 q 134 -1 181 -14 q 40 35 88 11 l 56 182 q 142 134 99 153 q 226 115 185 115 q 299 133 274 115 q 324 183 324 151 q 314 222 324 206 q 279 255 303 239 q 211 292 254 271 q 121 345 158 317 q 63 410 83 372 q 43 504 43 447 q 72 609 43 563 q 153 680 101 654 q 279 706 206 706 q 379 691 335 706 q 461 654 424 677 l 446 511 q 373 562 410 542 q 290 582 335 582 q 226 565 251 582 q 201 515 201 548 q 233 459 201 480 q 331 403 264 438 q 396 364 367 384 q 443 318 424 343 q 472 262 463 293 q 482 190 482 231 q 452 81 482 126 q 367 10 422 35 q 239 -14 312 -14 m 208 836 l 208 971 l 342 971 l 342 836 l 208 836 z "}}}
